  0
SECTION
  2
HEADER
  9
$ACADVER
  1
AC1015
  9
$ACADMAINTVER
 70
     6
  9
$DWGCODEPAGE
  3
ANSI_1252
  9
$INSBASE
 10
0.0
 20
0.0
 30
0.0
  9
$EXTMIN
 10
0.0
 20
0.0
 30
0.0
  9
$EXTMAX
 10
24.0
 20
24.0
 30
0.0
  9
$LIMMIN
 10
0.0
 20
0.0
  9
$LIMMAX
 10
24.0
 20
24.0
  9
$ORTHOMODE
 70
     0
  9
$REGENMODE
 70
     1
  9
$FILLMODE
 70
     1
  9
$QTEXTMODE
 70
     0
  9
$MIRRTEXT
 70
     1
  9
$LTSCALE
 40
1.0
  9
$ATTMODE
 70
     1
  9
$TEXTSIZE
 40
0.1377952756
  9
$TRACEWID
 40
0.05
  9
$TEXTSTYLE
  7
Standard
  9
$CLAYER
  8
0
  9
$CELTYPE
  6
ByLayer
  9
$CECOLOR
 62
   256
  9
$CELTSCALE
 40
1.0
  9
$DISPSILH
 70
     0
  9
$DIMSCALE
 40
1.0
  9
$DIMASZ
 40
0.13
  9
$DIMEXO
 40
0.0393700787
  9
$DIMDLI
 40
0.38
  9
$DIMRND
 40
0.0
  9
$DIMDLE
 40
0.0
  9
$DIMEXE
 40
0.0393700787
  9
$DIMTP
 40
0.0
  9
$DIMTM
 40
0.0
  9
$DIMTXT
 40
0.1377952756
  9
$DIMCEN
 40
0.09
  9
$DIMTSZ
 40
0.0
  9
$DIMTOL
 70
     0
  9
$DIMLIM
 70
     0
  9
$DIMTIH
 70
     1
  9
$DIMTOH
 70
     1
  9
$DIMSE1
 70
     0
  9
$DIMSE2
 70
     0
  9
$DIMTAD
 70
     1
  9
$DIMZIN
 70
     0
  9
$DIMBLK
  1

  9
$DIMASO
 70
     1
  9
$DIMSHO
 70
     1
  9
$DIMPOST
  1

  9
$DIMAPOST
  1

  9
$DIMALT
 70
     0
  9
$DIMALTD
 70
     2
  9
$DIMALTF
 40
25.4
  9
$DIMLFAC
 40
1.0
  9
$DIMTOFL
 70
     0
  9
$DIMTVP
 40
0.0
  9
$DIMTIX
 70
     0
  9
$DIMSOXD
 70
     0
  9
$DIMSAH
 70
     0
  9
$DIMBLK1
  1

  9
$DIMBLK2
  1

  9
$DIMSTYLE
  2
Standard
  9
$DIMCLRD
 70
     0
  9
$DIMCLRE
 70
     0
  9
$DIMCLRT
 70
     0
  9
$DIMTFAC
 40
1.0
  9
$DIMGAP
 40
0.06
  9
$DIMJUST
 70
     0
  9
$DIMSD1
 70
     0
  9
$DIMSD2
 70
     0
  9
$DIMTOLJ
 70
     1
  9
$DIMTZIN
 70
     0
  9
$DIMALTZ
 70
     0
  9
$DIMALTTZ
 70
     0
  9
$DIMUPT
 70
     0
  9
$DIMDEC
 70
     2
  9
$DIMTDEC
 70
     2
  9
$DIMALTU
 70
     2
  9
$DIMALTTD
 70
     2
  9
$DIMTXSTY
  7
Standard
  9
$DIMAUNIT
 70
     0
  9
$DIMADEC
 70
     2
  9
$DIMALTRND
 40
0.0
  9
$DIMAZIN
 70
     0
  9
$DIMDSEP
 70
    46
  9
$DIMATFIT
 70
     3
  9
$DIMFRAC
 70
     0
  9
$DIMLDRBLK
  1

  9
$DIMLUNIT
 70
     2
  9
$DIMLWD
 70
    -2
  9
$DIMLWE
 70
    -2
  9
$DIMTMOVE
 70
     0
  9
$LUNITS
 70
     2
  9
$LUPREC
 70
     2
  9
$SKETCHINC
 40
0.1
  9
$FILLETRAD
 40
0.5
  9
$AUNITS
 70
     0
  9
$AUPREC
 70
     2
  9
$MENU
  1
.
  9
$ELEVATION
 40
0.0
  9
$PELEVATION
 40
0.0
  9
$THICKNESS
 40
0.0
  9
$LIMCHECK
 70
     0
  9
$CHAMFERA
 40
0.0
  9
$CHAMFERB
 40
0.0
  9
$CHAMFERC
 40
0.0
  9
$CHAMFERD
 40
0.0
  9
$SKPOLY
 70
     0
  9
$TDCREATE
 40
2457391.900620521
  9
$TDUCREATE
 40
2457392.108953854
  9
$TDUPDATE
 40
2457391.900621597
  9
$TDUUPDATE
 40
2457392.108954931
  9
$TDINDWG
 40
0.0000000116
  9
$TDUSRTIMER
 40
0.0000000116
  9
$USRTIMER
 70
     1
  9
$ANGBASE
 50
0.0
  9
$ANGDIR
 70
     0
  9
$PDMODE
 70
     0
  9
$PDSIZE
 40
-1.0
  9
$PLINEWID
 40
0.0
  9
$SPLFRAME
 70
     0
  9
$SPLINETYPE
 70
     6
  9
$SPLINESEGS
 70
     8
  9
$HANDSEED
  5
3B7
  9
$SURFTAB1
 70
     6
  9
$SURFTAB2
 70
     6
  9
$SURFTYPE
 70
     6
  9
$SURFU
 70
     6
  9
$SURFV
 70
     6
  9
$UCSBASE
  2

  9
$UCSNAME
  2

  9
$UCSORG
 10
0.0
 20
0.0
 30
0.0
  9
$UCSXDIR
 10
1.0
 20
0.0
 30
0.0
  9
$UCSYDIR
 10
0.0
 20
1.0
 30
0.0
  9
$UCSORTHOREF
  2

  9
$UCSORTHOVIEW
 70
     0
  9
$UCSORGTOP
 10
0.0
 20
0.0
 30
0.0
  9
$UCSORGBOTTOM
 10
0.0
 20
0.0
 30
0.0
  9
$UCSORGLEFT
 10
0.0
 20
0.0
 30
0.0
  9
$UCSORGRIGHT
 10
0.0
 20
0.0
 30
0.0
  9
$UCSORGFRONT
 10
0.0
 20
0.0
 30
0.0
  9
$UCSORGBACK
 10
0.0
 20
0.0
 30
0.0
  9
$PUCSBASE
  2

  9
$PUCSNAME
  2

  9
$PUCSORG
 10
0.0
 20
0.0
 30
0.0
  9
$PUCSXDIR
 10
1.0
 20
0.0
 30
0.0
  9
$PUCSYDIR
 10
0.0
 20
1.0
 30
0.0
  9
$PUCSORTHOREF
  2

  9
$PUCSORTHOVIEW
 70
     0
  9
$PUCSORGTOP
 10
0.0
 20
0.0
 30
0.0
  9
$PUCSORGBOTTOM
 10
0.0
 20
0.0
 30
0.0
  9
$PUCSORGLEFT
 10
0.0
 20
0.0
 30
0.0
  9
$PUCSORGRIGHT
 10
0.0
 20
0.0
 30
0.0
  9
$PUCSORGFRONT
 10
0.0
 20
0.0
 30
0.0
  9
$PUCSORGBACK
 10
0.0
 20
0.0
 30
0.0
  9
$USERI1
 70
     0
  9
$USERI2
 70
     0
  9
$USERI3
 70
     0
  9
$USERI4
 70
     0
  9
$USERI5
 70
     0
  9
$USERR1
 40
0.0
  9
$USERR2
 40
0.0
  9
$USERR3
 40
0.0
  9
$USERR4
 40
0.0
  9
$USERR5
 40
0.0
  9
$WORLDVIEW
 70
     1
  9
$SHADEDGE
 70
     3
  9
$SHADEDIF
 70
    70
  9
$TILEMODE
 70
     1
  9
$MAXACTVP
 70
    64
  9
$PINSBASE
 10
0.0
 20
0.0
 30
0.0
  9
$PLIMCHECK
 70
     0
  9
$PEXTMIN
 10
1.0000000000E+20
 20
1.0000000000E+20
 30
1.0000000000E+20
  9
$PEXTMAX
 10
-1.0000000000E+20
 20
-1.0000000000E+20
 30
-1.0000000000E+20
  9
$PLIMMIN
 10
0.0
 20
0.0
  9
$PLIMMAX
 10
12.0
 20
9.0
  9
$UNITMODE
 70
     0
  9
$VISRETAIN
 70
     1
  9
$PLINEGEN
 70
     0
  9
$PSLTSCALE
 70
     1
  9
$TREEDEPTH
 70
  3020
  9
$CMLSTYLE
  2
Standard
  9
$CMLJUST
 70
     0
  9
$CMLSCALE
 40
1.0
  9
$PROXYGRAPHICS
 70
     1
  9
$MEASUREMENT
 70
     0
  9
$CELWEIGHT
370
    -1
  9
$ENDCAPS
280
     0
  9
$JOINSTYLE
280
     0
  9
$LWDISPLAY
290
     1
  9
$INSUNITS
 70
     1
  9
$HYPERLINKBASE
  1

  9
$STYLESHEET
  1

  9
$XEDIT
290
     1
  9
$CEPSNTYPE
380
     0
  9
$PSTYLEMODE
290
     1
  9
$FINGERPRINTGUID
  2
{A7848A0A-B18B-4DE7-9267-8D9EF3DF48DF}
  9
$VERSIONGUID
  2
{FAEB1C32-E019-11D5-929B-00C0DF256EC4}
  9
$EXTNAMES
290
     1
  9
$PSVPSCALE
 40
0.0
  9
$OLESTARTUP
290
     0
  0
ENDSEC
  0
SECTION
  2
CLASSES
  0
CLASS
  1
ACDBDICTIONARYWDFLT
  2
AcDbDictionaryWithDefault
  3
ObjectDBX Classes
 90
        0
280
     0
281
     0
  0
CLASS
  1
VISUALSTYLE
  2
AcDbVisualStyle
  3
ObjectDBX Classes
 90
     4095
280
     0
281
     0
  0
CLASS
  1
MATERIAL
  2
AcDbMaterial
  3
ObjectDBX Classes
 90
     1153
280
     0
281
     0
  0
CLASS
  1
SCALE
  2
AcDbScale
  3
ObjectDBX Classes
 90
     1153
280
     0
281
     0
  0
CLASS
  1
TABLESTYLE
  2
AcDbTableStyle
  3
ObjectDBX Classes
 90
     4095
280
     0
281
     0
  0
CLASS
  1
MLEADERSTYLE
  2
AcDbMLeaderStyle
  3
ACDB_MLEADERSTYLE_CLASS
 90
     4095
280
     0
281
     0
  0
CLASS
  1
SUN
  2
AcDbSun
  3
SCENEOE
 90
     1153
280
     0
281
     0
  0
CLASS
  1
ACDBPLACEHOLDER
  2
AcDbPlaceHolder
  3
ObjectDBX Classes
 90
        0
280
     0
281
     0
  0
CLASS
  1
LAYOUT
  2
AcDbLayout
  3
ObjectDBX Classes
 90
        0
280
     0
281
     0
  0
ENDSEC
  0
SECTION
  2
TABLES
  0
TABLE
  2
VPORT
  5
8
330
0
100
AcDbSymbolTable
 70
     1
  0
VPORT
  5
29
330
8
100
AcDbSymbolTableRecord
100
AcDbViewportTableRecord
  2
*Active
 70
     0
 10
0.0
 20
0.0
 11
1.0
 21
1.0
 12
12.0
 22
12.0
 13
0.0
 23
0.0
 14
0.5
 24
0.5
 15
0.5
 25
0.5
 16
0.0
 26
0.0
 36
1.0
 17
0.0
 27
0.0
 37
0.0
 40
24.0
 41
1.0
 42
50.0
 43
0.0
 44
0.0
 50
0.0
 51
0.0
 71
     0
 72
  2000
 73
     1
 74
     3
 75
     0
 76
     0
 77
     0
 78
     0
281
     0
 65
     1
110
0.0
120
0.0
130
0.0
111
1.0
121
0.0
131
0.0
112
0.0
122
1.0
132
0.0
 79
     0
146
0.0
  0
ENDTAB
  0
TABLE
  2
LTYPE
  5
5
330
0
100
AcDbSymbolTable
 70
     6
  0
LTYPE
  5
14
330
5
100
AcDbSymbolTableRecord
100
AcDbLinetypeTableRecord
  2
ByBlock
 70
     0
  3

 72
    65
 73
     0
 40
0.0
  0
LTYPE
  5
15
330
5
100
AcDbSymbolTableRecord
100
AcDbLinetypeTableRecord
  2
ByLayer
 70
     0
  3

 72
    65
 73
     0
 40
0.0
  0
LTYPE
  5
16
330
5
100
AcDbSymbolTableRecord
100
AcDbLinetypeTableRecord
  2
Continuous
 70
     0
  3
Solid line
 72
    65
 73
     0
 40
0.0
  0
LTYPE
  5
6E
330
5
100
AcDbSymbolTableRecord
100
AcDbLinetypeTableRecord
  2
HIDDEN
 70
     0
  3
Hidden __ __ __ __ __ __ __ __ __ __ __ __ __ __
 72
    65
 73
     2
 40
0.075
 49
0.05
 74
     0
 49
-0.025
 74
     0
  0
LTYPE
  5
6F
330
5
100
AcDbSymbolTableRecord
100
AcDbLinetypeTableRecord
  2
PHANTOM
 70
     0
  3
Phantom ______  __  __  ______  __  __  ______
 72
    65
 73
     6
 40
0.5
 49
0.25
 74
     0
 49
-0.05
 74
     0
 49
0.05
 74
     0
 49
-0.05
 74
     0
 49
0.05
 74
     0
 49
-0.05
 74
     0
  0
LTYPE
  5
70
330
5
100
AcDbSymbolTableRecord
100
AcDbLinetypeTableRecord
  2
CENTER
 70
     0
  3
Center ____ _ ____ _ ____ _ ____ _ ____ _ ____
 72
    65
 73
     4
 40
0.4
 49
0.25
 74
     0
 49
-0.05
 74
     0
 49
0.05
 74
     0
 49
-0.05
 74
     0
  0
LTYPE
  5
71
330
5
100
AcDbSymbolTableRecord
100
AcDbLinetypeTableRecord
  2
CENTERX2
 70
     0
  3
Center (2x) ________  __  ________  __  _____
 72
    65
 73
     4
 40
0.8
 49
0.5
 74
     0
 49
-0.1
 74
     0
 49
0.1
 74
     0
 49
-0.1
 74
     0
  0
LTYPE
  5
72
330
5
100
AcDbSymbolTableRecord
100
AcDbLinetypeTableRecord
  2
DOT2
 70
     0
  3
Dot (.5x) ........................................
 72
    65
 73
     2
 40
0.025
 49
0.0
 74
     0
 49
-0.025
 74
     0
  0
ENDTAB
  0
TABLE
  2
LAYER
  5
2
330
0
100
AcDbSymbolTable
 70
     1
  0
LAYER
  5
10
330
2
100
AcDbSymbolTableRecord
100
AcDbLayerTableRecord
  2
0
 70
     0
 62
     7
  6
Continuous
370
    -3
390
F
  0
ENDTAB
  0
TABLE
  2
STYLE
  5
3
330
0
100
AcDbSymbolTable
 70
     2
  0
STYLE
  5
11
330
3
100
AcDbSymbolTableRecord
100
AcDbTextStyleTableRecord
  2
Standard
 70
     0
 40
0.0
 41
1.0
 50
0.0
 71
     0
 42
0.1377952756
  3
txt
  4

  0
STYLE
  5
3B4
330
3
100
AcDbSymbolTableRecord
100
AcDbTextStyleTableRecord
  2
SLDTEXTSTYLE0
 70
     0
 40
0.0
 41
0.7
 50
0.0
 71
     0
 42
0.1377952756
  3
TXT
  4

  0
ENDTAB
  0
TABLE
  2
VIEW
  5
6
330
0
100
AcDbSymbolTable
 70
     0
  0
ENDTAB
  0
TABLE
  2
UCS
  5
7
330
0
100
AcDbSymbolTable
 70
     0
  0
ENDTAB
  0
TABLE
  2
APPID
  5
9
330
0
100
AcDbSymbolTable
 70
     1
  0
APPID
  5
12
330
9
100
AcDbSymbolTableRecord
100
AcDbRegAppTableRecord
  2
ACAD
 70
     0
  0
ENDTAB
  0
TABLE
  2
DIMSTYLE
  5
A
330
0
100
AcDbSymbolTable
 70
     1
100
AcDbDimStyleTable
  0
DIMSTYLE
105
27
330
A
100
AcDbSymbolTableRecord
100
AcDbDimStyleTableRecord
  2
Standard
 70
     0
178
     0
340
11
  0
ENDTAB
  0
TABLE
  2
BLOCK_RECORD
  5
1
330
0
100
AcDbSymbolTable
 70
     1
  0
BLOCK_RECORD
  5
1F
330
1
100
AcDbSymbolTableRecord
100
AcDbBlockTableRecord
  2
*Model_Space
340
22
  0
BLOCK_RECORD
  5
1B
330
1
100
AcDbSymbolTableRecord
100
AcDbBlockTableRecord
  2
*Paper_Space
340
1E
  0
BLOCK_RECORD
  5
23
330
1
100
AcDbSymbolTableRecord
100
AcDbBlockTableRecord
  2
*Paper_Space0
340
26
  0
ENDTAB
  0
ENDSEC
  0
SECTION
  2
BLOCKS
  0
BLOCK
  5
20
330
1F
100
AcDbEntity
  8
0
100
AcDbBlockBegin
  2
*Model_Space
 70
     0
 10
0.0
 20
0.0
 30
0.0
  3
*Model_Space
  1

  0
ENDBLK
  5
21
330
1F
100
AcDbEntity
  8
0
100
AcDbBlockEnd
  0
BLOCK
  5
1C
330
1B
100
AcDbEntity
 67
     1
  8
0
100
AcDbBlockBegin
  2
*Paper_Space
 70
     0
 10
0.0
 20
0.0
 30
0.0
  3
*Paper_Space
  1

  0
ENDBLK
  5
1D
330
1B
100
AcDbEntity
 67
     1
  8
0
100
AcDbBlockEnd
  0
BLOCK
  5
24
330
23
100
AcDbEntity
  8
0
100
AcDbBlockBegin
  2
*Paper_Space0
 70
     0
 10
0.0
 20
0.0
 30
0.0
  3
*Paper_Space0
  1

  0
ENDBLK
  5
25
330
23
100
AcDbEntity
  8
0
100
AcDbBlockEnd
  0
ENDSEC
  0
SECTION
  2
ENTITIES
  0
LINE
  5
73
330
1F
100
AcDbEntity
  8
0
  6
Continuous
 62
     7
370
    15
100
AcDbLine
 10
2.3224195459
 20
7.3197139504
 30
0.0
 11
2.3224195459
 21
7.8197139443
 31
0.0
  0
LINE
  5
74
330
1F
100
AcDbEntity
  8
0
  6
Continuous
 62
     7
370
    15
100
AcDbLine
 10
2.5724193779
 20
7.3197139504
 30
0.0
 11
2.3224195459
 21
7.3197139504
 31
0.0
  0
LINE
  5
75
330
1F
100
AcDbEntity
  8
0
  6
Continuous
 62
     7
370
    15
100
AcDbLine
 10
2.5724193779
 20
7.8197139443
 30
0.0
 11
2.5724193779
 21
7.3197139504
 31
0.0
  0
LINE
  5
76
330
1F
100
AcDbEntity
  8
0
  6
Continuous
 62
     7
370
    15
100
AcDbLine
 10
2.3224195459
 20
7.8197139443
 30
0.0
 11
2.5724193779
 21
7.8197139443
 31
0.0
  0
LINE
  5
77
330
1F
100
AcDbEntity
  8
0
  6
Continuous
 62
     7
370
    15
100
AcDbLine
 10
2.3224195459
 20
9.3197139262
 30
0.0
 11
2.3224195459
 21
9.8197140302
 31
0.0
  0
LINE
  5
78
330
1F
100
AcDbEntity
  8
0
  6
Continuous
 62
     7
370
    15
100
AcDbLine
 10
2.5724193779
 20
9.3197139262
 30
0.0
 11
2.3224195459
 21
9.3197139262
 31
0.0
  0
LINE
  5
79
330
1F
100
AcDbEntity
  8
0
  6
Continuous
 62
     7
370
    15
100
AcDbLine
 10
2.5724193779
 20
9.8197140302
 30
0.0
 11
2.5724193779
 21
9.3197139262
 31
0.0
  0
LINE
  5
7A
330
1F
100
AcDbEntity
  8
0
  6
Continuous
 62
     7
370
    15
100
AcDbLine
 10
2.3224195459
 20
9.8197140302
 30
0.0
 11
2.5724193779
 21
9.8197140302
 31
0.0
  0
LINE
  5
7B
330
1F
100
AcDbEntity
  8
0
  6
Continuous
 62
     7
370
    15
100
AcDbLine
 10
8.9543831462
 20
12.2284090047
 30
0.0
 11
9.0168832509
 21
12.3366621275
 31
0.0
  0
LINE
  5
7C
330
1F
100
AcDbEntity
  8
0
  6
Continuous
 62
     7
370
    15
100
AcDbLine
 10
9.0331915158
 20
12.182908837
 30
0.0
 11
8.9543831462
 21
12.2284090047
 31
0.0
  0
LINE
  5
7D
330
1F
100
AcDbEntity
  8
0
  6
Continuous
 62
     7
370
    15
100
AcDbLine
 10
9.0331915158
 20
12.182908837
 30
0.0
 11
8.9681916534
 21
12.0703255776
 31
0.0
  0
LINE
  5
7E
330
1F
100
AcDbEntity
  8
0
  6
Continuous
 62
     7
370
    15
100
AcDbLine
 10
8.9681916534
 20
12.0703255776
 30
0.0
 11
9.1136838926
 21
11.9863255613
 31
0.0
  0
LINE
  5
7F
330
1F
100
AcDbEntity
  8
0
  6
Continuous
 62
     7
370
    15
100
AcDbLine
 10
9.1786837551
 20
12.0989088207
 30
0.0
 11
9.1136838926
 21
11.9863255613
 31
0.0
  0
LINE
  5
80
330
1F
100
AcDbEntity
  8
0
  6
Continuous
 62
     7
370
    15
100
AcDbLine
 10
9.1786837551
 20
12.0989088207
 30
0.0
 11
9.2574921247
 21
12.0534089463
 31
0.0
  0
LINE
  5
81
330
1F
100
AcDbEntity
  8
0
  6
Continuous
 62
     7
370
    15
100
AcDbLine
 10
9.2574921247
 20
12.0534089463
 30
0.0
 11
9.3199922293
 21
12.1616620691
 31
0.0
  0
LINE
  5
82
330
1F
100
AcDbEntity
  8
0
  6
Continuous
 62
     7
370
    15
100
AcDbLine
 10
9.3199922293
 20
12.1616620691
 30
0.0
 11
9.2411838597
 21
12.2071619435
 31
0.0
  0
LINE
  5
83
330
1F
100
AcDbEntity
  8
0
  6
Continuous
 62
     7
370
    15
100
AcDbLine
 10
9.2411838597
 20
12.2071619435
 30
0.0
 11
9.413683867
 21
12.5059410786
 31
0.0
  0
LINE
  5
84
330
1F
100
AcDbEntity
  8
0
  6
Continuous
 62
     7
370
    15
100
AcDbLine
 10
9.7739505318
 20
12.2979408148
 30
0.0
 11
9.413683867
 21
12.5059410786
 31
0.0
  0
LINE
  5
85
330
1F
100
AcDbEntity
  8
0
  6
Continuous
 62
     7
370
    15
100
AcDbLine
 10
9.7739505318
 20
12.2979408148
 30
0.0
 11
9.8989504478
 21
12.5144470604
 31
0.0
  0
LINE
  5
86
330
1F
100
AcDbEntity
  8
0
  6
Continuous
 62
     7
370
    15
100
AcDbLine
 10
10.3319632323
 20
12.2644472284
 30
0.0
 11
9.8989504478
 21
12.5144470604
 31
0.0
  0
LINE
  5
87
330
1F
100
AcDbEntity
  8
0
  6
Continuous
 62
     7
370
    15
100
AcDbLine
 10
10.206963023
 20
12.0479409828
 30
0.0
 11
10.3319632323
 21
12.2644472284
 31
0.0
  0
LINE
  5
88
330
1F
100
AcDbEntity
  8
0
  6
Continuous
 62
     7
370
    15
100
AcDbLine
 10
10.7418369774
 20
11.7391314302
 30
0.0
 11
10.206963023
 21
12.0479409828
 31
0.0
  0
LINE
  5
89
330
1F
100
AcDbEntity
  8
0
  6
Continuous
 62
     7
370
    15
100
AcDbLine
 10
11.05064653
 20
11.2042574758
 30
0.0
 11
10.7418369774
 21
11.7391314302
 31
0.0
  0
LINE
  5
8A
330
1F
100
AcDbEntity
  8
0
  6
Continuous
 62
     7
370
    15
100
AcDbLine
 10
11.05064653
 20
11.2042574758
 30
0.0
 11
11.2671527756
 21
11.3292576851
 31
0.0
  0
LINE
  5
8B
330
1F
100
AcDbEntity
  8
0
  6
Continuous
 62
     7
370
    15
100
AcDbLine
 10
11.2671527756
 20
11.3292576851
 30
0.0
 11
11.5171526075
 21
10.8962449007
 31
0.0
  0
LINE
  5
8C
330
1F
100
AcDbEntity
  8
0
  6
Continuous
 62
     7
370
    15
100
AcDbLine
 10
11.300646362
 20
10.7712449847
 30
0.0
 11
11.5171526075
 21
10.8962449007
 31
0.0
  0
LINE
  5
8D
330
1F
100
AcDbEntity
  8
0
  6
Continuous
 62
     7
370
    15
100
AcDbLine
 10
11.5086466258
 20
10.4109783198
 30
0.0
 11
11.300646362
 21
10.7712449847
 31
0.0
  0
LINE
  5
8E
330
1F
100
AcDbEntity
  8
0
  6
Continuous
 62
     7
370
    15
100
AcDbLine
 10
11.2098674907
 20
10.2384783126
 30
0.0
 11
11.5086466258
 21
10.4109783198
 31
0.0
  0
LINE
  5
8F
330
1F
100
AcDbEntity
  8
0
  6
Continuous
 62
     7
370
    15
100
AcDbLine
 10
11.1643676163
 20
10.3172866822
 30
0.0
 11
11.2098674907
 21
10.2384783126
 31
0.0
  0
LINE
  5
90
330
1F
100
AcDbEntity
  8
0
  6
Continuous
 62
     7
370
    15
100
AcDbLine
 10
11.0561144935
 20
10.2547865775
 30
0.0
 11
11.1643676163
 21
10.3172866822
 31
0.0
  0
LINE
  5
91
330
1F
100
AcDbEntity
  8
0
  6
Continuous
 62
     7
370
    15
100
AcDbLine
 10
11.1016143679
 20
10.1759782079
 30
0.0
 11
11.0561144935
 21
10.2547865775
 31
0.0
  0
LINE
  5
92
330
1F
100
AcDbEntity
  8
0
  6
Continuous
 62
     7
370
    15
100
AcDbLine
 10
11.1016143679
 20
10.1759782079
 30
0.0
 11
10.9890311084
 21
10.1109783455
 31
0.0
  0
LINE
  5
93
330
1F
100
AcDbEntity
  8
0
  6
Continuous
 62
     7
370
    15
100
AcDbLine
 10
10.9890311084
 20
10.1109783455
 30
0.0
 11
11.0730311247
 21
9.9654861062
 31
0.0
  0
LINE
  5
94
330
1F
100
AcDbEntity
  8
0
  6
Continuous
 62
     7
370
    15
100
AcDbLine
 10
11.1856143842
 20
10.0304859686
 30
0.0
 11
11.0730311247
 21
9.9654861062
 31
0.0
  0
LINE
  5
95
330
1F
100
AcDbEntity
  8
0
  6
Continuous
 62
     7
370
    15
100
AcDbLine
 10
11.1856143842
 20
10.0304859686
 30
0.0
 11
11.2311145519
 21
9.951677599
 31
0.0
  0
LINE
  5
96
330
1F
100
AcDbEntity
  8
0
  6
Continuous
 62
     7
370
    15
100
AcDbLine
 10
11.2311145519
 20
9.951677599
 30
0.0
 11
11.3393676747
 21
10.0141777037
 31
0.0
  0
LINE
  5
97
330
1F
100
AcDbEntity
  8
0
  6
Continuous
 62
     7
370
    15
100
AcDbLine
 10
11.3393676747
 20
10.0141777037
 30
0.0
 11
11.2938675069
 21
10.0929860733
 31
0.0
  0
LINE
  5
98
330
1F
100
AcDbEntity
  8
0
  6
Continuous
 62
     7
370
    15
100
AcDbLine
 10
11.2938675069
 20
10.0929860733
 30
0.0
 11
11.5926463488
 21
10.2654860806
 31
0.0
  0
LINE
  5
99
330
1F
100
AcDbEntity
  8
0
  6
Continuous
 62
     7
370
    15
100
AcDbLine
 10
11.8006466126
 20
9.9052194157
 30
0.0
 11
11.5926463488
 21
10.2654860806
 31
0.0
  0
LINE
  5
9A
330
1F
100
AcDbEntity
  8
0
  6
Continuous
 62
     7
370
    15
100
AcDbLine
 10
11.8006466126
 20
9.9052194157
 30
0.0
 11
12.0171528582
 21
10.0302193317
 31
0.0
  0
LINE
  5
9B
330
1F
100
AcDbEntity
  8
0
  6
Continuous
 62
     7
370
    15
100
AcDbLine
 10
12.2671526901
 20
9.5972066939
 30
0.0
 11
12.0171528582
 21
10.0302193317
 31
0.0
  0
LINE
  5
9C
330
1F
100
AcDbEntity
  8
0
  6
Continuous
 62
     7
370
    15
100
AcDbLine
 10
12.0506464446
 20
9.4722067779
 30
0.0
 11
12.2671526901
 21
9.5972066939
 31
0.0
  0
LINE
  5
9D
330
1F
100
AcDbEntity
  8
0
  6
Continuous
 62
     7
370
    15
100
AcDbLine
 10
12.3594559972
 20
8.9373329702
 30
0.0
 11
12.0506464446
 21
9.4722067779
 31
0.0
  0
LINE
  5
9E
330
1F
100
AcDbEntity
  8
0
  6
Continuous
 62
     7
370
    15
100
AcDbLine
 10
12.3594559972
 20
8.3197139383
 30
0.0
 11
12.3594559972
 21
8.9373329702
 31
0.0
  0
LINE
  5
9F
330
1F
100
AcDbEntity
  8
0
  6
Continuous
 62
     7
370
    15
100
AcDbLine
 10
12.3594559972
 20
8.3197139383
 30
0.0
 11
12.6094558292
 21
8.3197139383
 31
0.0
  0
LINE
  5
A0
330
1F
100
AcDbEntity
  8
0
  6
Continuous
 62
     7
370
    15
100
AcDbLine
 10
12.6094558292
 20
8.3197139383
 30
0.0
 11
12.6094558292
 21
7.8197139443
 31
0.0
  0
LINE
  5
A1
330
1F
100
AcDbEntity
  8
0
  6
Continuous
 62
     7
370
    15
100
AcDbLine
 10
12.3594559972
 20
7.8197139443
 30
0.0
 11
12.6094558292
 21
7.8197139443
 31
0.0
  0
LINE
  5
A2
330
1F
100
AcDbEntity
  8
0
  6
Continuous
 62
     7
370
    15
100
AcDbLine
 10
12.3594559972
 20
7.4037139483
 30
0.0
 11
12.3594559972
 21
7.8197139443
 31
0.0
  0
LINE
  5
A3
330
1F
100
AcDbEntity
  8
0
  6
Continuous
 62
     7
370
    15
100
AcDbLine
 10
12.0144559826
 20
7.4037139483
 30
0.0
 11
12.3594559972
 21
7.4037139483
 31
0.0
  0
LINE
  5
A4
330
1F
100
AcDbEntity
  8
0
  6
Continuous
 62
     7
370
    15
100
AcDbLine
 10
12.0144559826
 20
7.4947139538
 30
0.0
 11
12.0144559826
 21
7.4037139483
 31
0.0
  0
LINE
  5
A5
330
1F
100
AcDbEntity
  8
0
  6
Continuous
 62
     7
370
    15
100
AcDbLine
 10
11.8894557733
 20
7.4947139538
 30
0.0
 11
12.0144559826
 21
7.4947139538
 31
0.0
  0
LINE
  5
A6
330
1F
100
AcDbEntity
  8
0
  6
Continuous
 62
     7
370
    15
100
AcDbLine
 10
11.8894557733
 20
7.4037139483
 30
0.0
 11
11.8894557733
 21
7.4947139538
 31
0.0
  0
LINE
  5
A7
330
1F
100
AcDbEntity
  8
0
  6
Continuous
 62
     7
370
    15
100
AcDbLine
 10
11.8894557733
 20
7.4037139483
 30
0.0
 11
11.7594560484
 21
7.4037139483
 31
0.0
  0
LINE
  5
A8
330
1F
100
AcDbEntity
  8
0
  6
Continuous
 62
     7
370
    15
100
AcDbLine
 10
11.7594560484
 20
7.4037139483
 30
0.0
 11
11.7594560484
 21
7.2357139524
 31
0.0
  0
LINE
  5
A9
330
1F
100
AcDbEntity
  8
0
  6
Continuous
 62
     7
370
    15
100
AcDbLine
 10
11.8894557733
 20
7.2357139524
 30
0.0
 11
11.7594560484
 21
7.2357139524
 31
0.0
  0
LINE
  5
AA
330
1F
100
AcDbEntity
  8
0
  6
Continuous
 62
     7
370
    15
100
AcDbLine
 10
11.8894557733
 20
7.2357139524
 30
0.0
 11
11.8894557733
 21
7.144713947
 31
0.0
  0
LINE
  5
AB
330
1F
100
AcDbEntity
  8
0
  6
Continuous
 62
     7
370
    15
100
AcDbLine
 10
11.8894557733
 20
7.144713947
 30
0.0
 11
12.0144559826
 21
7.144713947
 31
0.0
  0
LINE
  5
AC
330
1F
100
AcDbEntity
  8
0
  6
Continuous
 62
     7
370
    15
100
AcDbLine
 10
12.0144559826
 20
7.144713947
 30
0.0
 11
12.0144559826
 21
7.2357139524
 31
0.0
  0
LINE
  5
AD
330
1F
100
AcDbEntity
  8
0
  6
Continuous
 62
     7
370
    15
100
AcDbLine
 10
12.0144559826
 20
7.2357139524
 30
0.0
 11
12.3594559972
 21
7.2357139524
 31
0.0
  0
LINE
  5
AE
330
1F
100
AcDbEntity
  8
0
  6
Continuous
 62
     7
370
    15
100
AcDbLine
 10
12.3594559972
 20
6.8197139564
 30
0.0
 11
12.3594559972
 21
7.2357139524
 31
0.0
  0
LINE
  5
AF
330
1F
100
AcDbEntity
  8
0
  6
Continuous
 62
     7
370
    15
100
AcDbLine
 10
12.3594559972
 20
6.8197139564
 30
0.0
 11
12.6094558292
 21
6.8197139564
 31
0.0
  0
LINE
  5
B0
330
1F
100
AcDbEntity
  8
0
  6
Continuous
 62
     7
370
    15
100
AcDbLine
 10
12.6094558292
 20
6.3197139625
 30
0.0
 11
12.6094558292
 21
6.8197139564
 31
0.0
  0
LINE
  5
B1
330
1F
100
AcDbEntity
  8
0
  6
Continuous
 62
     7
370
    15
100
AcDbLine
 10
12.3594559972
 20
6.3197139625
 30
0.0
 11
12.6094558292
 21
6.3197139625
 31
0.0
  0
LINE
  5
B2
330
1F
100
AcDbEntity
  8
0
  6
Continuous
 62
     7
370
    15
100
AcDbLine
 10
12.3594559972
 20
5.7020949306
 30
0.0
 11
12.3594559972
 21
6.3197139625
 31
0.0
  0
LINE
  5
B3
330
1F
100
AcDbEntity
  8
0
  6
Continuous
 62
     7
370
    15
100
AcDbLine
 10
12.0506464446
 20
5.1672211228
 30
0.0
 11
12.3594559972
 21
5.7020949306
 31
0.0
  0
LINE
  5
B4
330
1F
100
AcDbEntity
  8
0
  6
Continuous
 62
     7
370
    15
100
AcDbLine
 10
12.0506464446
 20
5.1672211228
 30
0.0
 11
12.2671526901
 21
5.0422212068
 31
0.0
  0
LINE
  5
B5
330
1F
100
AcDbEntity
  8
0
  6
Continuous
 62
     7
370
    15
100
AcDbLine
 10
12.2671526901
 20
5.0422212068
 30
0.0
 11
12.0171528582
 21
4.609208569
 31
0.0
  0
LINE
  5
B6
330
1F
100
AcDbEntity
  8
0
  6
Continuous
 62
     7
370
    15
100
AcDbLine
 10
11.8006466126
 20
4.734208485
 30
0.0
 11
12.0171528582
 21
4.609208569
 31
0.0
  0
LINE
  5
B7
330
1F
100
AcDbEntity
  8
0
  6
Continuous
 62
     7
370
    15
100
AcDbLine
 10
11.5926463488
 20
4.3739418202
 30
0.0
 11
11.8006466126
 21
4.734208485
 31
0.0
  0
LINE
  5
B8
330
1F
100
AcDbEntity
  8
0
  6
Continuous
 62
     7
370
    15
100
AcDbLine
 10
11.2938675069
 20
4.5464418275
 30
0.0
 11
11.5926463488
 21
4.3739418202
 31
0.0
  0
LINE
  5
B9
330
1F
100
AcDbEntity
  8
0
  6
Continuous
 62
     7
370
    15
100
AcDbLine
 10
11.3393676747
 20
4.6252501971
 30
0.0
 11
11.2938675069
 21
4.5464418275
 31
0.0
  0
LINE
  5
BA
330
1F
100
AcDbEntity
  8
0
  6
Continuous
 62
     7
370
    15
100
AcDbLine
 10
11.2311145519
 20
4.6877503017
 30
0.0
 11
11.3393676747
 21
4.6252501971
 31
0.0
  0
LINE
  5
BB
330
1F
100
AcDbEntity
  8
0
  6
Continuous
 62
     7
370
    15
100
AcDbLine
 10
11.1856143842
 20
4.6089419321
 30
0.0
 11
11.2311145519
 21
4.6877503017
 31
0.0
  0
LINE
  5
BC
330
1F
100
AcDbEntity
  8
0
  6
Continuous
 62
     7
370
    15
100
AcDbLine
 10
11.1856143842
 20
4.6089419321
 30
0.0
 11
11.0730311247
 21
4.6739417946
 31
0.0
  0
LINE
  5
BD
330
1F
100
AcDbEntity
  8
0
  6
Continuous
 62
     7
370
    15
100
AcDbLine
 10
11.0730311247
 20
4.6739417946
 30
0.0
 11
10.9890311084
 21
4.5284495553
 31
0.0
  0
LINE
  5
BE
330
1F
100
AcDbEntity
  8
0
  6
Continuous
 62
     7
370
    15
100
AcDbLine
 10
11.1016143679
 20
4.4634496929
 30
0.0
 11
10.9890311084
 21
4.5284495553
 31
0.0
  0
LINE
  5
BF
330
1F
100
AcDbEntity
  8
0
  6
Continuous
 62
     7
370
    15
100
AcDbLine
 10
11.1016143679
 20
4.4634496929
 30
0.0
 11
11.0561144935
 21
4.3846413233
 31
0.0
  0
LINE
  5
C0
330
1F
100
AcDbEntity
  8
0
  6
Continuous
 62
     7
370
    15
100
AcDbLine
 10
11.0561144935
 20
4.3846413233
 30
0.0
 11
11.1643676163
 21
4.3221412186
 31
0.0
  0
LINE
  5
C1
330
1F
100
AcDbEntity
  8
0
  6
Continuous
 62
     7
370
    15
100
AcDbLine
 10
11.1643676163
 20
4.3221412186
 30
0.0
 11
11.2098674907
 21
4.4009495882
 31
0.0
  0
LINE
  5
C2
330
1F
100
AcDbEntity
  8
0
  6
Continuous
 62
     7
370
    15
100
AcDbLine
 10
11.2098674907
 20
4.4009495882
 30
0.0
 11
11.5086466258
 21
4.2284495809
 31
0.0
  0
LINE
  5
C3
330
1F
100
AcDbEntity
  8
0
  6
Continuous
 62
     7
370
    15
100
AcDbLine
 10
11.300646362
 20
3.8681829161
 30
0.0
 11
11.5086466258
 21
4.2284495809
 31
0.0
  0
LINE
  5
C4
330
1F
100
AcDbEntity
  8
0
  6
Continuous
 62
     7
370
    15
100
AcDbLine
 10
11.300646362
 20
3.8681829161
 30
0.0
 11
11.5171526075
 21
3.7431830001
 31
0.0
  0
LINE
  5
C5
330
1F
100
AcDbEntity
  8
0
  6
Continuous
 62
     7
370
    15
100
AcDbLine
 10
11.2671527756
 20
3.3101702156
 30
0.0
 11
11.5171526075
 21
3.7431830001
 31
0.0
  0
LINE
  5
C6
330
1F
100
AcDbEntity
  8
0
  6
Continuous
 62
     7
370
    15
100
AcDbLine
 10
11.05064653
 20
3.435170425
 30
0.0
 11
11.2671527756
 21
3.3101702156
 31
0.0
  0
LINE
  5
C7
330
1F
100
AcDbEntity
  8
0
  6
Continuous
 62
     7
370
    15
100
AcDbLine
 10
10.7418369774
 20
2.9002964705
 30
0.0
 11
11.05064653
 21
3.435170425
 31
0.0
  0
LINE
  5
C8
330
1F
100
AcDbEntity
  8
0
  6
Continuous
 62
     7
370
    15
100
AcDbLine
 10
10.206963023
 20
2.5914869179
 30
0.0
 11
10.7418369774
 21
2.9002964705
 31
0.0
  0
LINE
  5
C9
330
1F
100
AcDbEntity
  8
0
  6
Continuous
 62
     7
370
    15
100
AcDbLine
 10
10.206963023
 20
2.5914869179
 30
0.0
 11
10.3319632323
 21
2.3749806724
 31
0.0
  0
LINE
  5
CA
330
1F
100
AcDbEntity
  8
0
  6
Continuous
 62
     7
370
    15
100
AcDbLine
 10
10.3319632323
 20
2.3749806724
 30
0.0
 11
9.8989504478
 21
2.1249808404
 31
0.0
  0
LINE
  5
CB
330
1F
100
AcDbEntity
  8
0
  6
Continuous
 62
     7
370
    15
100
AcDbLine
 10
9.7739505318
 20
2.3414870859
 30
0.0
 11
9.8989504478
 21
2.1249808404
 31
0.0
  0
LINE
  5
CC
330
1F
100
AcDbEntity
  8
0
  6
Continuous
 62
     7
370
    15
100
AcDbLine
 10
9.413683867
 20
2.1334868221
 30
0.0
 11
9.7739505318
 21
2.3414870859
 31
0.0
  0
LINE
  5
CD
330
1F
100
AcDbEntity
  8
0
  6
Continuous
 62
     7
370
    15
100
AcDbLine
 10
9.2411838597
 20
2.4322659573
 30
0.0
 11
9.413683867
 21
2.1334868221
 31
0.0
  0
LINE
  5
CE
330
1F
100
AcDbEntity
  8
0
  6
Continuous
 62
     7
370
    15
100
AcDbLine
 10
9.3199922293
 20
2.4777658316
 30
0.0
 11
9.2411838597
 21
2.4322659573
 31
0.0
  0
LINE
  5
CF
330
1F
100
AcDbEntity
  8
0
  6
Continuous
 62
     7
370
    15
100
AcDbLine
 10
9.2574921247
 20
2.5860189544
 30
0.0
 11
9.3199922293
 21
2.4777658316
 31
0.0
  0
LINE
  5
D0
330
1F
100
AcDbEntity
  8
0
  6
Continuous
 62
     7
370
    15
100
AcDbLine
 10
9.1786837551
 20
2.54051908
 30
0.0
 11
9.2574921247
 21
2.5860189544
 31
0.0
  0
LINE
  5
D1
330
1F
100
AcDbEntity
  8
0
  6
Continuous
 62
     7
370
    15
100
AcDbLine
 10
9.1786837551
 20
2.54051908
 30
0.0
 11
9.1136838926
 21
2.6531023395
 31
0.0
  0
LINE
  5
D2
330
1F
100
AcDbEntity
  8
0
  6
Continuous
 62
     7
370
    15
100
AcDbLine
 10
9.1136838926
 20
2.6531023395
 30
0.0
 11
8.9681916534
 21
2.5691023232
 31
0.0
  0
LINE
  5
D3
330
1F
100
AcDbEntity
  8
0
  6
Continuous
 62
     7
370
    15
100
AcDbLine
 10
9.0331915158
 20
2.4565190638
 30
0.0
 11
8.9681916534
 21
2.5691023232
 31
0.0
  0
LINE
  5
D4
330
1F
100
AcDbEntity
  8
0
  6
Continuous
 62
     7
370
    15
100
AcDbLine
 10
9.0331915158
 20
2.4565190638
 30
0.0
 11
8.9543831462
 21
2.411018896
 31
0.0
  0
LINE
  5
D5
330
1F
100
AcDbEntity
  8
0
  6
Continuous
 62
     7
370
    15
100
AcDbLine
 10
8.9543831462
 20
2.411018896
 30
0.0
 11
9.0168832509
 21
2.3027657733
 31
0.0
  0
LINE
  5
D6
330
1F
100
AcDbEntity
  8
0
  6
Continuous
 62
     7
370
    15
100
AcDbLine
 10
9.0168832509
 20
2.3027657733
 30
0.0
 11
9.0956916205
 21
2.348265941
 31
0.0
  0
LINE
  5
D7
330
1F
100
AcDbEntity
  8
0
  6
Continuous
 62
     7
370
    15
100
AcDbLine
 10
9.0956916205
 20
2.348265941
 30
0.0
 11
9.2681916277
 21
2.0494870992
 31
0.0
  0
LINE
  5
D8
330
1F
100
AcDbEntity
  8
0
  6
Continuous
 62
     7
370
    15
100
AcDbLine
 10
8.9079249629
 20
1.8414868353
 30
0.0
 11
9.2681916277
 21
2.0494870992
 31
0.0
  0
LINE
  5
D9
330
1F
100
AcDbEntity
  8
0
  6
Continuous
 62
     7
370
    15
100
AcDbLine
 10
8.9079249629
 20
1.8414868353
 30
0.0
 11
9.0329248789
 21
1.6249805898
 31
0.0
  0
LINE
  5
DA
330
1F
100
AcDbEntity
  8
0
  6
Continuous
 62
     7
370
    15
100
AcDbLine
 10
8.5999122411
 20
1.3749807578
 30
0.0
 11
9.0329248789
 21
1.6249805898
 31
0.0
  0
LINE
  5
DB
330
1F
100
AcDbEntity
  8
0
  6
Continuous
 62
     7
370
    15
100
AcDbLine
 10
8.4749123251
 20
1.5914870033
 30
0.0
 11
8.5999122411
 21
1.3749807578
 31
0.0
  0
LINE
  5
DC
330
1F
100
AcDbEntity
  8
0
  6
Continuous
 62
     7
370
    15
100
AcDbLine
 10
7.9400385173
 20
1.2826774507
 30
0.0
 11
8.4749123251
 21
1.5914870033
 31
0.0
  0
LINE
  5
DD
330
1F
100
AcDbEntity
  8
0
  6
Continuous
 62
     7
370
    15
100
AcDbLine
 10
7.3224194855
 20
1.2826774507
 30
0.0
 11
7.9400385173
 21
1.2826774507
 31
0.0
  0
LINE
  5
DE
330
1F
100
AcDbEntity
  8
0
  6
Continuous
 62
     7
370
    15
100
AcDbLine
 10
7.3224194855
 20
1.2826774507
 30
0.0
 11
7.3224194855
 21
1.0326776188
 31
0.0
  0
LINE
  5
DF
330
1F
100
AcDbEntity
  8
0
  6
Continuous
 62
     7
370
    15
100
AcDbLine
 10
7.3224194855
 20
1.0326776188
 30
0.0
 11
6.8224194915
 21
1.0326776188
 31
0.0
  0
LINE
  5
E0
330
1F
100
AcDbEntity
  8
0
  6
Continuous
 62
     7
370
    15
100
AcDbLine
 10
6.8224194915
 20
1.2826774507
 30
0.0
 11
6.8224194915
 21
1.0326776188
 31
0.0
  0
LINE
  5
E1
330
1F
100
AcDbEntity
  8
0
  6
Continuous
 62
     7
370
    15
100
AcDbLine
 10
6.4064194955
 20
1.2826774507
 30
0.0
 11
6.8224194915
 21
1.2826774507
 31
0.0
  0
LINE
  5
E2
330
1F
100
AcDbEntity
  8
0
  6
Continuous
 62
     7
370
    15
100
AcDbLine
 10
6.4064194955
 20
1.6276774653
 30
0.0
 11
6.4064194955
 21
1.2826774507
 31
0.0
  0
LINE
  5
E3
330
1F
100
AcDbEntity
  8
0
  6
Continuous
 62
     7
370
    15
100
AcDbLine
 10
6.4974195009
 20
1.6276774653
 30
0.0
 11
6.4064194955
 21
1.6276774653
 31
0.0
  0
LINE
  5
E4
330
1F
100
AcDbEntity
  8
0
  6
Continuous
 62
     7
370
    15
100
AcDbLine
 10
6.4974195009
 20
1.7526776746
 30
0.0
 11
6.4974195009
 21
1.6276774653
 31
0.0
  0
LINE
  5
E5
330
1F
100
AcDbEntity
  8
0
  6
Continuous
 62
     7
370
    15
100
AcDbLine
 10
6.4064194955
 20
1.7526776746
 30
0.0
 11
6.4974195009
 21
1.7526776746
 31
0.0
  0
LINE
  5
E6
330
1F
100
AcDbEntity
  8
0
  6
Continuous
 62
     7
370
    15
100
AcDbLine
 10
6.4064194955
 20
1.7526776746
 30
0.0
 11
6.4064194955
 21
1.8826773995
 31
0.0
  0
LINE
  5
E7
330
1F
100
AcDbEntity
  8
0
  6
Continuous
 62
     7
370
    15
100
AcDbLine
 10
6.4064194955
 20
1.8826773995
 30
0.0
 11
6.2384194996
 21
1.8826773995
 31
0.0
  0
LINE
  5
E8
330
1F
100
AcDbEntity
  8
0
  6
Continuous
 62
     7
370
    15
100
AcDbLine
 10
6.2384194996
 20
1.7526776746
 30
0.0
 11
6.2384194996
 21
1.8826773995
 31
0.0
  0
LINE
  5
E9
330
1F
100
AcDbEntity
  8
0
  6
Continuous
 62
     7
370
    15
100
AcDbLine
 10
6.2384194996
 20
1.7526776746
 30
0.0
 11
6.1474194942
 21
1.7526776746
 31
0.0
  0
LINE
  5
EA
330
1F
100
AcDbEntity
  8
0
  6
Continuous
 62
     7
370
    15
100
AcDbLine
 10
6.1474194942
 20
1.7526776746
 30
0.0
 11
6.1474194942
 21
1.6276774653
 31
0.0
  0
LINE
  5
EB
330
1F
100
AcDbEntity
  8
0
  6
Continuous
 62
     7
370
    15
100
AcDbLine
 10
6.1474194942
 20
1.6276774653
 30
0.0
 11
6.2384194996
 21
1.6276774653
 31
0.0
  0
LINE
  5
EC
330
1F
100
AcDbEntity
  8
0
  6
Continuous
 62
     7
370
    15
100
AcDbLine
 10
6.2384194996
 20
1.6276774653
 30
0.0
 11
6.2384194996
 21
1.2826774507
 31
0.0
  0
LINE
  5
ED
330
1F
100
AcDbEntity
  8
0
  6
Continuous
 62
     7
370
    15
100
AcDbLine
 10
5.8224195036
 20
1.2826774507
 30
0.0
 11
6.2384194996
 21
1.2826774507
 31
0.0
  0
LINE
  5
EE
330
1F
100
AcDbEntity
  8
0
  6
Continuous
 62
     7
370
    15
100
AcDbLine
 10
5.8224195036
 20
1.2826774507
 30
0.0
 11
5.8224195036
 21
1.0326776188
 31
0.0
  0
LINE
  5
EF
330
1F
100
AcDbEntity
  8
0
  6
Continuous
 62
     7
370
    15
100
AcDbLine
 10
5.3224195096
 20
1.0326776188
 30
0.0
 11
5.8224195036
 21
1.0326776188
 31
0.0
  0
LINE
  5
F0
330
1F
100
AcDbEntity
  8
0
  6
Continuous
 62
     7
370
    15
100
AcDbLine
 10
5.3224195096
 20
1.2826774507
 30
0.0
 11
5.3224195096
 21
1.0326776188
 31
0.0
  0
LINE
  5
F1
330
1F
100
AcDbEntity
  8
0
  6
Continuous
 62
     7
370
    15
100
AcDbLine
 10
4.7048004777
 20
1.2826774507
 30
0.0
 11
5.3224195096
 21
1.2826774507
 31
0.0
  0
LINE
  5
F2
330
1F
100
AcDbEntity
  8
0
  6
Continuous
 62
     7
370
    15
100
AcDbLine
 10
4.16992667
 20
1.5914870033
 30
0.0
 11
4.7048004777
 21
1.2826774507
 31
0.0
  0
LINE
  5
F3
330
1F
100
AcDbEntity
  8
0
  6
Continuous
 62
     7
370
    15
100
AcDbLine
 10
4.16992667
 20
1.5914870033
 30
0.0
 11
4.044926754
 21
1.3749807578
 31
0.0
  0
LINE
  5
F4
330
1F
100
AcDbEntity
  8
0
  6
Continuous
 62
     7
370
    15
100
AcDbLine
 10
4.044926754
 20
1.3749807578
 30
0.0
 11
3.6119141162
 21
1.6249805898
 31
0.0
  0
LINE
  5
F5
330
1F
100
AcDbEntity
  8
0
  6
Continuous
 62
     7
370
    15
100
AcDbLine
 10
3.7369140322
 20
1.8414868353
 30
0.0
 11
3.6119141162
 21
1.6249805898
 31
0.0
  0
LINE
  5
F6
330
1F
100
AcDbEntity
  8
0
  6
Continuous
 62
     7
370
    15
100
AcDbLine
 10
3.3766473674
 20
2.0494870992
 30
0.0
 11
3.7369140322
 21
1.8414868353
 31
0.0
  0
LINE
  5
F7
330
1F
100
AcDbEntity
  8
0
  6
Continuous
 62
     7
370
    15
100
AcDbLine
 10
3.5491473746
 20
2.348265941
 30
0.0
 11
3.3766473674
 21
2.0494870992
 31
0.0
  0
LINE
  5
F8
330
1F
100
AcDbEntity
  8
0
  6
Continuous
 62
     7
370
    15
100
AcDbLine
 10
3.6279557442
 20
2.3027657733
 30
0.0
 11
3.5491473746
 21
2.348265941
 31
0.0
  0
LINE
  5
F9
330
1F
100
AcDbEntity
  8
0
  6
Continuous
 62
     7
370
    15
100
AcDbLine
 10
3.6904558489
 20
2.411018896
 30
0.0
 11
3.6279557442
 21
2.3027657733
 31
0.0
  0
LINE
  5
FA
330
1F
100
AcDbEntity
  8
0
  6
Continuous
 62
     7
370
    15
100
AcDbLine
 10
3.6116474793
 20
2.4565190638
 30
0.0
 11
3.6904558489
 21
2.411018896
 31
0.0
  0
LINE
  5
FB
330
1F
100
AcDbEntity
  8
0
  6
Continuous
 62
     7
370
    15
100
AcDbLine
 10
3.6116474793
 20
2.4565190638
 30
0.0
 11
3.6766473417
 21
2.5691023232
 31
0.0
  0
LINE
  5
FC
330
1F
100
AcDbEntity
  8
0
  6
Continuous
 62
     7
370
    15
100
AcDbLine
 10
3.6766473417
 20
2.5691023232
 30
0.0
 11
3.5311551025
 21
2.6531023395
 31
0.0
  0
LINE
  5
FD
330
1F
100
AcDbEntity
  8
0
  6
Continuous
 62
     7
370
    15
100
AcDbLine
 10
3.46615524
 20
2.54051908
 30
0.0
 11
3.5311551025
 21
2.6531023395
 31
0.0
  0
LINE
  5
FE
330
1F
100
AcDbEntity
  8
0
  6
Continuous
 62
     7
370
    15
100
AcDbLine
 10
3.46615524
 20
2.54051908
 30
0.0
 11
3.3873468704
 21
2.5860189544
 31
0.0
  0
LINE
  5
FF
330
1F
100
AcDbEntity
  8
0
  6
Continuous
 62
     7
370
    15
100
AcDbLine
 10
3.3873468704
 20
2.5860189544
 30
0.0
 11
3.3248467658
 21
2.4777658316
 31
0.0
  0
LINE
  5
100
330
1F
100
AcDbEntity
  8
0
  6
Continuous
 62
     7
370
    15
100
AcDbLine
 10
3.3248467658
 20
2.4777658316
 30
0.0
 11
3.4036551354
 21
2.4322659573
 31
0.0
  0
LINE
  5
101
330
1F
100
AcDbEntity
  8
0
  6
Continuous
 62
     7
370
    15
100
AcDbLine
 10
3.4036551354
 20
2.4322659573
 30
0.0
 11
3.2311551281
 21
2.1334868221
 31
0.0
  0
LINE
  5
102
330
1F
100
AcDbEntity
  8
0
  6
Continuous
 62
     7
370
    15
100
AcDbLine
 10
2.8708884633
 20
2.3414870859
 30
0.0
 11
3.2311551281
 21
2.1334868221
 31
0.0
  0
LINE
  5
103
330
1F
100
AcDbEntity
  8
0
  6
Continuous
 62
     7
370
    15
100
AcDbLine
 10
2.8708884633
 20
2.3414870859
 30
0.0
 11
2.7458885473
 21
2.1249808404
 31
0.0
  0
LINE
  5
104
330
1F
100
AcDbEntity
  8
0
  6
Continuous
 62
     7
370
    15
100
AcDbLine
 10
2.3128757628
 20
2.3749806724
 30
0.0
 11
2.7458885473
 21
2.1249808404
 31
0.0
  0
LINE
  5
105
330
1F
100
AcDbEntity
  8
0
  6
Continuous
 62
     7
370
    15
100
AcDbLine
 10
2.4378759721
 20
2.5914869179
 30
0.0
 11
2.3128757628
 21
2.3749806724
 31
0.0
  0
LINE
  5
106
330
1F
100
AcDbEntity
  8
0
  6
Continuous
 62
     7
370
    15
100
AcDbLine
 10
1.9030020177
 20
2.9002964705
 30
0.0
 11
2.4378759721
 21
2.5914869179
 31
0.0
  0
LINE
  5
107
330
1F
100
AcDbEntity
  8
0
  6
Continuous
 62
     7
370
    15
100
AcDbLine
 10
1.5941924651
 20
3.435170425
 30
0.0
 11
1.9030020177
 21
2.9002964705
 31
0.0
  0
LINE
  5
108
330
1F
100
AcDbEntity
  8
0
  6
Continuous
 62
     7
370
    15
100
AcDbLine
 10
1.5941924651
 20
3.435170425
 30
0.0
 11
1.3776862195
 21
3.3101702156
 31
0.0
  0
LINE
  5
109
330
1F
100
AcDbEntity
  8
0
  6
Continuous
 62
     7
370
    15
100
AcDbLine
 10
1.3776862195
 20
3.3101702156
 30
0.0
 11
1.1276863875
 21
3.7431830001
 31
0.0
  0
LINE
  5
10A
330
1F
100
AcDbEntity
  8
0
  6
Continuous
 62
     7
370
    15
100
AcDbLine
 10
1.3441926331
 20
3.8681829161
 30
0.0
 11
1.1276863875
 21
3.7431830001
 31
0.0
  0
LINE
  5
10B
330
1F
100
AcDbEntity
  8
0
  6
Continuous
 62
     7
370
    15
100
AcDbLine
 10
1.1361923693
 20
4.2284495809
 30
0.0
 11
1.3441926331
 21
3.8681829161
 31
0.0
  0
LINE
  5
10C
330
1F
100
AcDbEntity
  8
0
  6
Continuous
 62
     7
370
    15
100
AcDbLine
 10
1.4349715044
 20
4.4009495882
 30
0.0
 11
1.1361923693
 21
4.2284495809
 31
0.0
  0
LINE
  5
10D
330
1F
100
AcDbEntity
  8
0
  6
Continuous
 62
     7
370
    15
100
AcDbLine
 10
1.4804713788
 20
4.3221412186
 30
0.0
 11
1.4349715044
 21
4.4009495882
 31
0.0
  0
LINE
  5
10E
330
1F
100
AcDbEntity
  8
0
  6
Continuous
 62
     7
370
    15
100
AcDbLine
 10
1.5887245016
 20
4.3846413233
 30
0.0
 11
1.4804713788
 21
4.3221412186
 31
0.0
  0
LINE
  5
10F
330
1F
100
AcDbEntity
  8
0
  6
Continuous
 62
     7
370
    15
100
AcDbLine
 10
1.5432246272
 20
4.4634496929
 30
0.0
 11
1.5887245016
 21
4.3846413233
 31
0.0
  0
LINE
  5
110
330
1F
100
AcDbEntity
  8
0
  6
Continuous
 62
     7
370
    15
100
AcDbLine
 10
1.5432246272
 20
4.4634496929
 30
0.0
 11
1.6558078866
 21
4.5284495553
 31
0.0
  0
LINE
  5
111
330
1F
100
AcDbEntity
  8
0
  6
Continuous
 62
     7
370
    15
100
AcDbLine
 10
1.6558078866
 20
4.5284495553
 30
0.0
 11
1.5718078703
 21
4.6739417946
 31
0.0
  0
LINE
  5
112
330
1F
100
AcDbEntity
  8
0
  6
Continuous
 62
     7
370
    15
100
AcDbLine
 10
1.4592246109
 20
4.6089419321
 30
0.0
 11
1.5718078703
 21
4.6739417946
 31
0.0
  0
LINE
  5
113
330
1F
100
AcDbEntity
  8
0
  6
Continuous
 62
     7
370
    15
100
AcDbLine
 10
1.4592246109
 20
4.6089419321
 30
0.0
 11
1.4137244432
 21
4.6877503017
 31
0.0
  0
LINE
  5
114
330
1F
100
AcDbEntity
  8
0
  6
Continuous
 62
     7
370
    15
100
AcDbLine
 10
1.4137244432
 20
4.6877503017
 30
0.0
 11
1.3054713204
 21
4.6252501971
 31
0.0
  0
LINE
  5
115
330
1F
100
AcDbEntity
  8
0
  6
Continuous
 62
     7
370
    15
100
AcDbLine
 10
1.3054713204
 20
4.6252501971
 30
0.0
 11
1.3509714881
 21
4.5464418275
 31
0.0
  0
LINE
  5
116
330
1F
100
AcDbEntity
  8
0
  6
Continuous
 62
     7
370
    15
100
AcDbLine
 10
1.3509714881
 20
4.5464418275
 30
0.0
 11
1.0521926463
 21
4.3739418202
 31
0.0
  0
LINE
  5
117
330
1F
100
AcDbEntity
  8
0
  6
Continuous
 62
     7
370
    15
100
AcDbLine
 10
0.8441923825
 20
4.734208485
 30
0.0
 11
1.0521926463
 21
4.3739418202
 31
0.0
  0
LINE
  5
118
330
1F
100
AcDbEntity
  8
0
  6
Continuous
 62
     7
370
    15
100
AcDbLine
 10
0.8441923825
 20
4.734208485
 30
0.0
 11
0.6276861369
 21
4.609208569
 31
0.0
  0
LINE
  5
119
330
1F
100
AcDbEntity
  8
0
  6
Continuous
 62
     7
370
    15
100
AcDbLine
 10
0.3776863049
 20
5.0422212068
 30
0.0
 11
0.6276861369
 21
4.609208569
 31
0.0
  0
LINE
  5
11A
330
1F
100
AcDbEntity
  8
0
  6
Continuous
 62
     7
370
    15
100
AcDbLine
 10
0.5941925505
 20
5.1672211228
 30
0.0
 11
0.3776863049
 21
5.0422212068
 31
0.0
  0
LINE
  5
11B
330
1F
100
AcDbEntity
  8
0
  6
Continuous
 62
     7
370
    15
100
AcDbLine
 10
0.2853829979
 20
5.7020949306
 30
0.0
 11
0.5941925505
 21
5.1672211228
 31
0.0
  0
LINE
  5
11C
330
1F
100
AcDbEntity
  8
0
  6
Continuous
 62
     7
370
    15
100
AcDbLine
 10
0.2853829979
 20
6.3197139625
 30
0.0
 11
0.2853829979
 21
5.7020949306
 31
0.0
  0
LINE
  5
11D
330
1F
100
AcDbEntity
  8
0
  6
Continuous
 62
     7
370
    15
100
AcDbLine
 10
0.2853829979
 20
6.3197139625
 30
0.0
 11
0.0353831659
 21
6.3197139625
 31
0.0
  0
LINE
  5
11E
330
1F
100
AcDbEntity
  8
0
  6
Continuous
 62
     7
370
    15
100
AcDbLine
 10
0.0353831659
 20
6.3197139625
 30
0.0
 11
0.0353831659
 21
6.8197139564
 31
0.0
  0
LINE
  5
11F
330
1F
100
AcDbEntity
  8
0
  6
Continuous
 62
     7
370
    15
100
AcDbLine
 10
0.2853829979
 20
6.8197139564
 30
0.0
 11
0.0353831659
 21
6.8197139564
 31
0.0
  0
LINE
  5
120
330
1F
100
AcDbEntity
  8
0
  6
Continuous
 62
     7
370
    15
100
AcDbLine
 10
0.2853829979
 20
7.2357139524
 30
0.0
 11
0.2853829979
 21
6.8197139564
 31
0.0
  0
LINE
  5
121
330
1F
100
AcDbEntity
  8
0
  6
Continuous
 62
     7
370
    15
100
AcDbLine
 10
0.6303830124
 20
7.2357139524
 30
0.0
 11
0.2853829979
 21
7.2357139524
 31
0.0
  0
LINE
  5
122
330
1F
100
AcDbEntity
  8
0
  6
Continuous
 62
     7
370
    15
100
AcDbLine
 10
0.6303830124
 20
7.144713947
 30
0.0
 11
0.6303830124
 21
7.2357139524
 31
0.0
  0
LINE
  5
123
330
1F
100
AcDbEntity
  8
0
  6
Continuous
 62
     7
370
    15
100
AcDbLine
 10
0.7553832218
 20
7.144713947
 30
0.0
 11
0.6303830124
 21
7.144713947
 31
0.0
  0
LINE
  5
124
330
1F
100
AcDbEntity
  8
0
  6
Continuous
 62
     7
370
    15
100
AcDbLine
 10
0.7553832218
 20
7.2357139524
 30
0.0
 11
0.7553832218
 21
7.144713947
 31
0.0
  0
LINE
  5
125
330
1F
100
AcDbEntity
  8
0
  6
Continuous
 62
     7
370
    15
100
AcDbLine
 10
0.7553832218
 20
7.2357139524
 30
0.0
 11
0.8853829467
 21
7.2357139524
 31
0.0
  0
LINE
  5
126
330
1F
100
AcDbEntity
  8
0
  6
Continuous
 62
     7
370
    15
100
AcDbLine
 10
0.8853829467
 20
7.2357139524
 30
0.0
 11
0.8853829467
 21
7.4037139483
 31
0.0
  0
LINE
  5
127
330
1F
100
AcDbEntity
  8
0
  6
Continuous
 62
     7
370
    15
100
AcDbLine
 10
0.7553832218
 20
7.4037139483
 30
0.0
 11
0.8853829467
 21
7.4037139483
 31
0.0
  0
LINE
  5
128
330
1F
100
AcDbEntity
  8
0
  6
Continuous
 62
     7
370
    15
100
AcDbLine
 10
0.7553832218
 20
7.4037139483
 30
0.0
 11
0.7553832218
 21
7.4947139538
 31
0.0
  0
LINE
  5
129
330
1F
100
AcDbEntity
  8
0
  6
Continuous
 62
     7
370
    15
100
AcDbLine
 10
0.7553832218
 20
7.4947139538
 30
0.0
 11
0.6303830124
 21
7.4947139538
 31
0.0
  0
LINE
  5
12A
330
1F
100
AcDbEntity
  8
0
  6
Continuous
 62
     7
370
    15
100
AcDbLine
 10
0.6303830124
 20
7.4947139538
 30
0.0
 11
0.6303830124
 21
7.4037139483
 31
0.0
  0
LINE
  5
12B
330
1F
100
AcDbEntity
  8
0
  6
Continuous
 62
     7
370
    15
100
AcDbLine
 10
0.6303830124
 20
7.4037139483
 30
0.0
 11
0.2853829979
 21
7.4037139483
 31
0.0
  0
LINE
  5
12C
330
1F
100
AcDbEntity
  8
0
  6
Continuous
 62
     7
370
    15
100
AcDbLine
 10
0.2853829979
 20
7.8197139443
 30
0.0
 11
0.2853829979
 21
7.4037139483
 31
0.0
  0
LINE
  5
12D
330
1F
100
AcDbEntity
  8
0
  6
Continuous
 62
     7
370
    15
100
AcDbLine
 10
0.2853829979
 20
7.8197139443
 30
0.0
 11
0.0353831659
 21
7.8197139443
 31
0.0
  0
LINE
  5
12E
330
1F
100
AcDbEntity
  8
0
  6
Continuous
 62
     7
370
    15
100
AcDbLine
 10
0.0353831659
 20
8.3197139383
 30
0.0
 11
0.0353831659
 21
7.8197139443
 31
0.0
  0
LINE
  5
12F
330
1F
100
AcDbEntity
  8
0
  6
Continuous
 62
     7
370
    15
100
AcDbLine
 10
0.2853829979
 20
8.3197139383
 30
0.0
 11
0.0353831659
 21
8.3197139383
 31
0.0
  0
LINE
  5
130
330
1F
100
AcDbEntity
  8
0
  6
Continuous
 62
     7
370
    15
100
AcDbLine
 10
0.2853829979
 20
8.9373329702
 30
0.0
 11
0.2853829979
 21
8.3197139383
 31
0.0
  0
LINE
  5
131
330
1F
100
AcDbEntity
  8
0
  6
Continuous
 62
     7
370
    15
100
AcDbLine
 10
0.5941925505
 20
9.4722067779
 30
0.0
 11
0.2853829979
 21
8.9373329702
 31
0.0
  0
LINE
  5
132
330
1F
100
AcDbEntity
  8
0
  6
Continuous
 62
     7
370
    15
100
AcDbLine
 10
0.5941925505
 20
9.4722067779
 30
0.0
 11
0.3776863049
 21
9.5972066939
 31
0.0
  0
LINE
  5
133
330
1F
100
AcDbEntity
  8
0
  6
Continuous
 62
     7
370
    15
100
AcDbLine
 10
0.3776863049
 20
9.5972066939
 30
0.0
 11
0.6276861369
 21
10.0302193317
 31
0.0
  0
LINE
  5
134
330
1F
100
AcDbEntity
  8
0
  6
Continuous
 62
     7
370
    15
100
AcDbLine
 10
0.8441923825
 20
9.9052194157
 30
0.0
 11
0.6276861369
 21
10.0302193317
 31
0.0
  0
LINE
  5
135
330
1F
100
AcDbEntity
  8
0
  6
Continuous
 62
     7
370
    15
100
AcDbLine
 10
1.0521926463
 20
10.2654860806
 30
0.0
 11
0.8441923825
 21
9.9052194157
 31
0.0
  0
LINE
  5
136
330
1F
100
AcDbEntity
  8
0
  6
Continuous
 62
     7
370
    15
100
AcDbLine
 10
1.3509714881
 20
10.0929860733
 30
0.0
 11
1.0521926463
 21
10.2654860806
 31
0.0
  0
LINE
  5
137
330
1F
100
AcDbEntity
  8
0
  6
Continuous
 62
     7
370
    15
100
AcDbLine
 10
1.3054713204
 20
10.0141777037
 30
0.0
 11
1.3509714881
 21
10.0929860733
 31
0.0
  0
LINE
  5
138
330
1F
100
AcDbEntity
  8
0
  6
Continuous
 62
     7
370
    15
100
AcDbLine
 10
1.4137244432
 20
9.951677599
 30
0.0
 11
1.3054713204
 21
10.0141777037
 31
0.0
  0
LINE
  5
139
330
1F
100
AcDbEntity
  8
0
  6
Continuous
 62
     7
370
    15
100
AcDbLine
 10
1.4592246109
 20
10.0304859686
 30
0.0
 11
1.4137244432
 21
9.951677599
 31
0.0
  0
LINE
  5
13A
330
1F
100
AcDbEntity
  8
0
  6
Continuous
 62
     7
370
    15
100
AcDbLine
 10
1.4592246109
 20
10.0304859686
 30
0.0
 11
1.5718078703
 21
9.9654861062
 31
0.0
  0
LINE
  5
13B
330
1F
100
AcDbEntity
  8
0
  6
Continuous
 62
     7
370
    15
100
AcDbLine
 10
1.5718078703
 20
9.9654861062
 30
0.0
 11
1.6558078866
 21
10.1109783455
 31
0.0
  0
LINE
  5
13C
330
1F
100
AcDbEntity
  8
0
  6
Continuous
 62
     7
370
    15
100
AcDbLine
 10
1.5432246272
 20
10.1759782079
 30
0.0
 11
1.6558078866
 21
10.1109783455
 31
0.0
  0
LINE
  5
13D
330
1F
100
AcDbEntity
  8
0
  6
Continuous
 62
     7
370
    15
100
AcDbLine
 10
1.5432246272
 20
10.1759782079
 30
0.0
 11
1.5887245016
 21
10.2547865775
 31
0.0
  0
LINE
  5
13E
330
1F
100
AcDbEntity
  8
0
  6
Continuous
 62
     7
370
    15
100
AcDbLine
 10
1.5887245016
 20
10.2547865775
 30
0.0
 11
1.4804713788
 21
10.3172866822
 31
0.0
  0
LINE
  5
13F
330
1F
100
AcDbEntity
  8
0
  6
Continuous
 62
     7
370
    15
100
AcDbLine
 10
1.4804713788
 20
10.3172866822
 30
0.0
 11
1.4349715044
 21
10.2384783126
 31
0.0
  0
LINE
  5
140
330
1F
100
AcDbEntity
  8
0
  6
Continuous
 62
     7
370
    15
100
AcDbLine
 10
1.4349715044
 20
10.2384783126
 30
0.0
 11
1.1361923693
 21
10.4109783198
 31
0.0
  0
LINE
  5
141
330
1F
100
AcDbEntity
  8
0
  6
Continuous
 62
     7
370
    15
100
AcDbLine
 10
1.3441926331
 20
10.7712449847
 30
0.0
 11
1.1361923693
 21
10.4109783198
 31
0.0
  0
LINE
  5
142
330
1F
100
AcDbEntity
  8
0
  6
Continuous
 62
     7
370
    15
100
AcDbLine
 10
1.3441926331
 20
10.7712449847
 30
0.0
 11
1.1276863875
 21
10.8962449007
 31
0.0
  0
LINE
  5
143
330
1F
100
AcDbEntity
  8
0
  6
Continuous
 62
     7
370
    15
100
AcDbLine
 10
1.3776862195
 20
11.3292576851
 30
0.0
 11
1.1276863875
 21
10.8962449007
 31
0.0
  0
LINE
  5
144
330
1F
100
AcDbEntity
  8
0
  6
Continuous
 62
     7
370
    15
100
AcDbLine
 10
1.5941924651
 20
11.2042574758
 30
0.0
 11
1.3776862195
 21
11.3292576851
 31
0.0
  0
LINE
  5
145
330
1F
100
AcDbEntity
  8
0
  6
Continuous
 62
     7
370
    15
100
AcDbLine
 10
1.9030020177
 20
11.7391314302
 30
0.0
 11
1.5941924651
 21
11.2042574758
 31
0.0
  0
LINE
  5
146
330
1F
100
AcDbEntity
  8
0
  6
Continuous
 62
     7
370
    15
100
AcDbLine
 10
2.4378759721
 20
12.0479409828
 30
0.0
 11
1.9030020177
 21
11.7391314302
 31
0.0
  0
LINE
  5
147
330
1F
100
AcDbEntity
  8
0
  6
Continuous
 62
     7
370
    15
100
AcDbLine
 10
2.4378759721
 20
12.0479409828
 30
0.0
 11
2.3128757628
 21
12.2644472284
 31
0.0
  0
LINE
  5
148
330
1F
100
AcDbEntity
  8
0
  6
Continuous
 62
     7
370
    15
100
AcDbLine
 10
2.3128757628
 20
12.2644472284
 30
0.0
 11
2.7458885473
 21
12.5144470604
 31
0.0
  0
LINE
  5
149
330
1F
100
AcDbEntity
  8
0
  6
Continuous
 62
     7
370
    15
100
AcDbLine
 10
2.8708884633
 20
12.2979408148
 30
0.0
 11
2.7458885473
 21
12.5144470604
 31
0.0
  0
LINE
  5
14A
330
1F
100
AcDbEntity
  8
0
  6
Continuous
 62
     7
370
    15
100
AcDbLine
 10
3.2311551281
 20
12.5059410786
 30
0.0
 11
2.8708884633
 21
12.2979408148
 31
0.0
  0
LINE
  5
14B
330
1F
100
AcDbEntity
  8
0
  6
Continuous
 62
     7
370
    15
100
AcDbLine
 10
3.4036551354
 20
12.2071619435
 30
0.0
 11
3.2311551281
 21
12.5059410786
 31
0.0
  0
LINE
  5
14C
330
1F
100
AcDbEntity
  8
0
  6
Continuous
 62
     7
370
    15
100
AcDbLine
 10
3.3248467658
 20
12.1616620691
 30
0.0
 11
3.4036551354
 21
12.2071619435
 31
0.0
  0
LINE
  5
14D
330
1F
100
AcDbEntity
  8
0
  6
Continuous
 62
     7
370
    15
100
AcDbLine
 10
3.3873468704
 20
12.0534089463
 30
0.0
 11
3.3248467658
 21
12.1616620691
 31
0.0
  0
LINE
  5
14E
330
1F
100
AcDbEntity
  8
0
  6
Continuous
 62
     7
370
    15
100
AcDbLine
 10
3.46615524
 20
12.0989088207
 30
0.0
 11
3.3873468704
 21
12.0534089463
 31
0.0
  0
LINE
  5
14F
330
1F
100
AcDbEntity
  8
0
  6
Continuous
 62
     7
370
    15
100
AcDbLine
 10
3.46615524
 20
12.0989088207
 30
0.0
 11
3.5311551025
 21
11.9863255613
 31
0.0
  0
LINE
  5
150
330
1F
100
AcDbEntity
  8
0
  6
Continuous
 62
     7
370
    15
100
AcDbLine
 10
3.5311551025
 20
11.9863255613
 30
0.0
 11
3.6766473417
 21
12.0703255776
 31
0.0
  0
LINE
  5
151
330
1F
100
AcDbEntity
  8
0
  6
Continuous
 62
     7
370
    15
100
AcDbLine
 10
3.6116474793
 20
12.182908837
 30
0.0
 11
3.6766473417
 21
12.0703255776
 31
0.0
  0
LINE
  5
152
330
1F
100
AcDbEntity
  8
0
  6
Continuous
 62
     7
370
    15
100
AcDbLine
 10
3.6116474793
 20
12.182908837
 30
0.0
 11
3.6904558489
 21
12.2284090047
 31
0.0
  0
LINE
  5
153
330
1F
100
AcDbEntity
  8
0
  6
Continuous
 62
     7
370
    15
100
AcDbLine
 10
3.6904558489
 20
12.2284090047
 30
0.0
 11
3.6279557442
 21
12.3366621275
 31
0.0
  0
LINE
  5
154
330
1F
100
AcDbEntity
  8
0
  6
Continuous
 62
     7
370
    15
100
AcDbLine
 10
3.6279557442
 20
12.3366621275
 30
0.0
 11
3.5491473746
 21
12.2911619598
 31
0.0
  0
LINE
  5
155
330
1F
100
AcDbEntity
  8
0
  6
Continuous
 62
     7
370
    15
100
AcDbLine
 10
3.5491473746
 20
12.2911619598
 30
0.0
 11
3.3766473674
 21
12.5899408016
 31
0.0
  0
LINE
  5
156
330
1F
100
AcDbEntity
  8
0
  6
Continuous
 62
     7
370
    15
100
AcDbLine
 10
3.7369140322
 20
12.7979410654
 30
0.0
 11
3.3766473674
 21
12.5899408016
 31
0.0
  0
LINE
  5
157
330
1F
100
AcDbEntity
  8
0
  6
Continuous
 62
     7
370
    15
100
AcDbLine
 10
3.7369140322
 20
12.7979410654
 30
0.0
 11
3.6119141162
 21
13.014447311
 31
0.0
  0
LINE
  5
158
330
1F
100
AcDbEntity
  8
0
  6
Continuous
 62
     7
370
    15
100
AcDbLine
 10
4.044926754
 20
13.264447143
 30
0.0
 11
3.6119141162
 21
13.014447311
 31
0.0
  0
LINE
  5
159
330
1F
100
AcDbEntity
  8
0
  6
Continuous
 62
     7
370
    15
100
AcDbLine
 10
4.16992667
 20
13.0479408974
 30
0.0
 11
4.044926754
 21
13.264447143
 31
0.0
  0
LINE
  5
15A
330
1F
100
AcDbEntity
  8
0
  6
Continuous
 62
     7
370
    15
100
AcDbLine
 10
4.7048004777
 20
13.35675045
 30
0.0
 11
4.16992667
 21
13.0479408974
 31
0.0
  0
LINE
  5
15B
330
1F
100
AcDbEntity
  8
0
  6
Continuous
 62
     7
370
    15
100
AcDbLine
 10
5.3224195096
 20
13.35675045
 30
0.0
 11
4.7048004777
 21
13.35675045
 31
0.0
  0
LINE
  5
15C
330
1F
100
AcDbEntity
  8
0
  6
Continuous
 62
     7
370
    15
100
AcDbLine
 10
5.3224195096
 20
13.35675045
 30
0.0
 11
5.3224195096
 21
13.606750282
 31
0.0
  0
LINE
  5
15D
330
1F
100
AcDbEntity
  8
0
  6
Continuous
 62
     7
370
    15
100
AcDbLine
 10
5.3224195096
 20
13.606750282
 30
0.0
 11
5.8224195036
 21
13.606750282
 31
0.0
  0
LINE
  5
15E
330
1F
100
AcDbEntity
  8
0
  6
Continuous
 62
     7
370
    15
100
AcDbLine
 10
5.8224195036
 20
13.35675045
 30
0.0
 11
5.8224195036
 21
13.606750282
 31
0.0
  0
LINE
  5
15F
330
1F
100
AcDbEntity
  8
0
  6
Continuous
 62
     7
370
    15
100
AcDbLine
 10
6.2384194996
 20
13.35675045
 30
0.0
 11
5.8224195036
 21
13.35675045
 31
0.0
  0
LINE
  5
160
330
1F
100
AcDbEntity
  8
0
  6
Continuous
 62
     7
370
    15
100
AcDbLine
 10
6.2384194996
 20
13.0117504355
 30
0.0
 11
6.2384194996
 21
13.35675045
 31
0.0
  0
LINE
  5
161
330
1F
100
AcDbEntity
  8
0
  6
Continuous
 62
     7
370
    15
100
AcDbLine
 10
6.1474194942
 20
13.0117504355
 30
0.0
 11
6.2384194996
 21
13.0117504355
 31
0.0
  0
LINE
  5
162
330
1F
100
AcDbEntity
  8
0
  6
Continuous
 62
     7
370
    15
100
AcDbLine
 10
6.1474194942
 20
12.8867502262
 30
0.0
 11
6.1474194942
 21
13.0117504355
 31
0.0
  0
LINE
  5
163
330
1F
100
AcDbEntity
  8
0
  6
Continuous
 62
     7
370
    15
100
AcDbLine
 10
6.2384194996
 20
12.8867502262
 30
0.0
 11
6.1474194942
 21
12.8867502262
 31
0.0
  0
LINE
  5
164
330
1F
100
AcDbEntity
  8
0
  6
Continuous
 62
     7
370
    15
100
AcDbLine
 10
6.2384194996
 20
12.8867502262
 30
0.0
 11
6.2384194996
 21
12.7567505013
 31
0.0
  0
LINE
  5
165
330
1F
100
AcDbEntity
  8
0
  6
Continuous
 62
     7
370
    15
100
AcDbLine
 10
6.2384194996
 20
12.7567505013
 30
0.0
 11
6.4064194955
 21
12.7567505013
 31
0.0
  0
LINE
  5
166
330
1F
100
AcDbEntity
  8
0
  6
Continuous
 62
     7
370
    15
100
AcDbLine
 10
6.4064194955
 20
12.8867502262
 30
0.0
 11
6.4064194955
 21
12.7567505013
 31
0.0
  0
LINE
  5
167
330
1F
100
AcDbEntity
  8
0
  6
Continuous
 62
     7
370
    15
100
AcDbLine
 10
6.4064194955
 20
12.8867502262
 30
0.0
 11
6.4974195009
 21
12.8867502262
 31
0.0
  0
LINE
  5
168
330
1F
100
AcDbEntity
  8
0
  6
Continuous
 62
     7
370
    15
100
AcDbLine
 10
6.4974195009
 20
12.8867502262
 30
0.0
 11
6.4974195009
 21
13.0117504355
 31
0.0
  0
LINE
  5
169
330
1F
100
AcDbEntity
  8
0
  6
Continuous
 62
     7
370
    15
100
AcDbLine
 10
6.4974195009
 20
13.0117504355
 30
0.0
 11
6.4064194955
 21
13.0117504355
 31
0.0
  0
LINE
  5
16A
330
1F
100
AcDbEntity
  8
0
  6
Continuous
 62
     7
370
    15
100
AcDbLine
 10
6.4064194955
 20
13.0117504355
 30
0.0
 11
6.4064194955
 21
13.35675045
 31
0.0
  0
LINE
  5
16B
330
1F
100
AcDbEntity
  8
0
  6
Continuous
 62
     7
370
    15
100
AcDbLine
 10
6.8224194915
 20
13.35675045
 30
0.0
 11
6.4064194955
 21
13.35675045
 31
0.0
  0
LINE
  5
16C
330
1F
100
AcDbEntity
  8
0
  6
Continuous
 62
     7
370
    15
100
AcDbLine
 10
6.8224194915
 20
13.35675045
 30
0.0
 11
6.8224194915
 21
13.606750282
 31
0.0
  0
LINE
  5
16D
330
1F
100
AcDbEntity
  8
0
  6
Continuous
 62
     7
370
    15
100
AcDbLine
 10
7.3224194855
 20
13.606750282
 30
0.0
 11
6.8224194915
 21
13.606750282
 31
0.0
  0
LINE
  5
16E
330
1F
100
AcDbEntity
  8
0
  6
Continuous
 62
     7
370
    15
100
AcDbLine
 10
7.3224194855
 20
13.35675045
 30
0.0
 11
7.3224194855
 21
13.606750282
 31
0.0
  0
LINE
  5
16F
330
1F
100
AcDbEntity
  8
0
  6
Continuous
 62
     7
370
    15
100
AcDbLine
 10
7.9400385173
 20
13.35675045
 30
0.0
 11
7.3224194855
 21
13.35675045
 31
0.0
  0
LINE
  5
170
330
1F
100
AcDbEntity
  8
0
  6
Continuous
 62
     7
370
    15
100
AcDbLine
 10
8.4749123251
 20
13.0479408974
 30
0.0
 11
7.9400385173
 21
13.35675045
 31
0.0
  0
LINE
  5
171
330
1F
100
AcDbEntity
  8
0
  6
Continuous
 62
     7
370
    15
100
AcDbLine
 10
8.4749123251
 20
13.0479408974
 30
0.0
 11
8.5999122411
 21
13.264447143
 31
0.0
  0
LINE
  5
172
330
1F
100
AcDbEntity
  8
0
  6
Continuous
 62
     7
370
    15
100
AcDbLine
 10
8.5999122411
 20
13.264447143
 30
0.0
 11
9.0329248789
 21
13.014447311
 31
0.0
  0
LINE
  5
173
330
1F
100
AcDbEntity
  8
0
  6
Continuous
 62
     7
370
    15
100
AcDbLine
 10
8.9079249629
 20
12.7979410654
 30
0.0
 11
9.0329248789
 21
13.014447311
 31
0.0
  0
LINE
  5
174
330
1F
100
AcDbEntity
  8
0
  6
Continuous
 62
     7
370
    15
100
AcDbLine
 10
9.2681916277
 20
12.5899408016
 30
0.0
 11
8.9079249629
 21
12.7979410654
 31
0.0
  0
LINE
  5
175
330
1F
100
AcDbEntity
  8
0
  6
Continuous
 62
     7
370
    15
100
AcDbLine
 10
9.0956916205
 20
12.2911619598
 30
0.0
 11
9.2681916277
 21
12.5899408016
 31
0.0
  0
LINE
  5
176
330
1F
100
AcDbEntity
  8
0
  6
Continuous
 62
     7
370
    15
100
AcDbLine
 10
9.0168832509
 20
12.3366621275
 30
0.0
 11
9.0956916205
 21
12.2911619598
 31
0.0
  0
CIRCLE
  5
177
330
1F
100
AcDbEntity
  8
0
  6
Continuous
 62
     7
370
    15
100
AcDbCircle
 10
6.3224194975
 20
7.3197139504
 30
0.0
 40
2.499999999999999
  0
CIRCLE
  5
178
330
1F
100
AcDbEntity
  8
0
  6
Continuous
 62
     7
370
    15
100
AcDbCircle
 10
6.3224194975
 20
2.1120316985
 30
0.0
 40
0.0825000000000005
  0
LINE
  5
179
330
1F
100
AcDbEntity
  8
0
  6
Continuous
 62
     7
370
    15
100
AcDbLine
 10
5.0724194576
 20
1.987031874
 30
0.0
 11
5.5724194883
 21
1.987031874
 31
0.0
  0
LINE
  5
17A
330
1F
100
AcDbEntity
  8
0
  6
Continuous
 62
     7
370
    15
100
AcDbLine
 10
5.5724194883
 20
1.987031874
 30
0.0
 11
5.5724194883
 21
2.237031706
 31
0.0
  0
LINE
  5
17B
330
1F
100
AcDbEntity
  8
0
  6
Continuous
 62
     7
370
    15
100
AcDbLine
 10
5.5724194883
 20
2.237031706
 30
0.0
 11
5.0724194576
 21
2.237031706
 31
0.0
  0
LINE
  5
17C
330
1F
100
AcDbEntity
  8
0
  6
Continuous
 62
     7
370
    15
100
AcDbLine
 10
5.0724194576
 20
2.237031706
 30
0.0
 11
5.0724194576
 21
1.987031874
 31
0.0
  0
LINE
  5
17D
330
1F
100
AcDbEntity
  8
0
  6
Continuous
 62
     7
370
    15
100
AcDbLine
 10
7.0724195068
 20
1.987031874
 30
0.0
 11
7.5724195374
 21
1.987031874
 31
0.0
  0
LINE
  5
17E
330
1F
100
AcDbEntity
  8
0
  6
Continuous
 62
     7
370
    15
100
AcDbLine
 10
7.5724195374
 20
1.987031874
 30
0.0
 11
7.5724195374
 21
2.237031706
 31
0.0
  0
LINE
  5
17F
330
1F
100
AcDbEntity
  8
0
  6
Continuous
 62
     7
370
    15
100
AcDbLine
 10
7.5724195374
 20
2.237031706
 30
0.0
 11
7.0724195068
 21
2.237031706
 31
0.0
  0
LINE
  5
180
330
1F
100
AcDbEntity
  8
0
  6
Continuous
 62
     7
370
    15
100
AcDbLine
 10
7.0724195068
 20
2.237031706
 30
0.0
 11
7.0724195068
 21
1.987031874
 31
0.0
  0
LINE
  5
181
330
1F
100
AcDbEntity
  8
0
  6
Continuous
 62
     7
370
    15
100
AcDbLine
 10
10.0724196172
 20
9.3197139262
 30
0.0
 11
10.3224194492
 21
9.3197139262
 31
0.0
  0
LINE
  5
182
330
1F
100
AcDbEntity
  8
0
  6
Continuous
 62
     7
370
    15
100
AcDbLine
 10
10.3224194492
 20
9.3197139262
 30
0.0
 11
10.3224194492
 21
9.8197140302
 31
0.0
  0
LINE
  5
183
330
1F
100
AcDbEntity
  8
0
  6
Continuous
 62
     7
370
    15
100
AcDbLine
 10
10.3224194492
 20
9.8197140302
 30
0.0
 11
10.0724196172
 21
9.8197140302
 31
0.0
  0
LINE
  5
184
330
1F
100
AcDbEntity
  8
0
  6
Continuous
 62
     7
370
    15
100
AcDbLine
 10
10.0724196172
 20
9.8197140302
 30
0.0
 11
10.0724196172
 21
9.3197139262
 31
0.0
  0
LINE
  5
185
330
1F
100
AcDbEntity
  8
0
  6
Continuous
 62
     7
370
    15
100
AcDbLine
 10
10.0724196172
 20
7.3197139504
 30
0.0
 11
10.3224194492
 21
7.3197139504
 31
0.0
  0
LINE
  5
186
330
1F
100
AcDbEntity
  8
0
  6
Continuous
 62
     7
370
    15
100
AcDbLine
 10
10.3224194492
 20
7.3197139504
 30
0.0
 11
10.3224194492
 21
7.8197139443
 31
0.0
  0
LINE
  5
187
330
1F
100
AcDbEntity
  8
0
  6
Continuous
 62
     7
370
    15
100
AcDbLine
 10
10.3224194492
 20
7.8197139443
 30
0.0
 11
10.0724196172
 21
7.8197139443
 31
0.0
  0
LINE
  5
188
330
1F
100
AcDbEntity
  8
0
  6
Continuous
 62
     7
370
    15
100
AcDbLine
 10
10.0724196172
 20
7.8197139443
 30
0.0
 11
10.0724196172
 21
7.3197139504
 31
0.0
  0
CIRCLE
  5
189
330
1F
100
AcDbEntity
  8
0
  6
Continuous
 62
     7
370
    15
100
AcDbCircle
 10
10.1974194975
 20
8.5697139504
 30
0.0
 40
0.0824999999999978
  0
CIRCLE
  5
18A
330
1F
100
AcDbEntity
  8
0
  6
Continuous
 62
     7
370
    15
100
AcDbCircle
 10
10.8324046225
 20
9.9235550763
 30
0.0
 40
0.0824999999999991
  0
LINE
  5
18B
330
1F
100
AcDbEntity
  8
0
  6
Continuous
 62
     7
370
    15
100
AcDbLine
 10
11.5656576472
 20
8.9035233207
 30
0.0
 11
11.3156578152
 21
9.3365359585
 31
0.0
  0
LINE
  5
18C
330
1F
100
AcDbEntity
  8
0
  6
Continuous
 62
     7
370
    15
100
AcDbLine
 10
11.3156578152
 20
9.3365359585
 30
0.0
 11
11.0991515697
 21
9.2115360426
 31
0.0
  0
LINE
  5
18D
330
1F
100
AcDbEntity
  8
0
  6
Continuous
 62
     7
370
    15
100
AcDbLine
 10
11.0991515697
 20
9.2115360426
 30
0.0
 11
11.3491514016
 21
8.7785232581
 31
0.0
  0
LINE
  5
18E
330
1F
100
AcDbEntity
  8
0
  6
Continuous
 62
     7
370
    15
100
AcDbLine
 10
11.3491514016
 20
8.7785232581
 30
0.0
 11
11.5656576472
 21
8.9035233207
 31
0.0
  0
LINE
  5
18F
330
1F
100
AcDbEntity
  8
0
  6
Continuous
 62
     7
370
    15
100
AcDbLine
 10
10.5656577326
 20
10.6355740186
 30
0.0
 11
10.3156579006
 21
11.0685868031
 31
0.0
  0
LINE
  5
190
330
1F
100
AcDbEntity
  8
0
  6
Continuous
 62
     7
370
    15
100
AcDbLine
 10
10.3156579006
 20
11.0685868031
 30
0.0
 11
10.0991513617
 21
10.9435868871
 31
0.0
  0
LINE
  5
191
330
1F
100
AcDbEntity
  8
0
  6
Continuous
 62
     7
370
    15
100
AcDbLine
 10
10.0991513617
 20
10.9435868871
 30
0.0
 11
10.3491514871
 21
10.5105741026
 31
0.0
  0
LINE
  5
192
330
1F
100
AcDbEntity
  8
0
  6
Continuous
 62
     7
370
    15
100
AcDbLine
 10
10.3491514871
 20
10.5105741026
 30
0.0
 11
10.5656577326
 21
10.6355740186
 31
0.0
  0
CIRCLE
  5
193
330
1F
100
AcDbEntity
  8
0
  6
Continuous
 62
     7
370
    15
100
AcDbCircle
 10
1.8124343725
 20
9.9235550763
 30
0.0
 40
0.0824999999999994
  0
LINE
  5
194
330
1F
100
AcDbEntity
  8
0
  6
Continuous
 62
     7
370
    15
100
AcDbLine
 10
2.3291810944
 20
11.0685868031
 30
0.0
 11
2.0791812625
 21
10.6355740186
 31
0.0
  0
LINE
  5
195
330
1F
100
AcDbEntity
  8
0
  6
Continuous
 62
     7
370
    15
100
AcDbLine
 10
2.0791812625
 20
10.6355740186
 30
0.0
 11
2.295687508
 21
10.5105741026
 31
0.0
  0
LINE
  5
196
330
1F
100
AcDbEntity
  8
0
  6
Continuous
 62
     7
370
    15
100
AcDbLine
 10
2.295687508
 20
10.5105741026
 30
0.0
 11
2.5456876333
 21
10.9435868871
 31
0.0
  0
LINE
  5
197
330
1F
100
AcDbEntity
  8
0
  6
Continuous
 62
     7
370
    15
100
AcDbLine
 10
2.5456876333
 20
10.9435868871
 30
0.0
 11
2.3291810944
 21
11.0685868031
 31
0.0
  0
LINE
  5
198
330
1F
100
AcDbEntity
  8
0
  6
Continuous
 62
     7
370
    15
100
AcDbLine
 10
1.3291811799
 20
9.3365359585
 30
0.0
 11
1.0791813479
 21
8.9035233207
 31
0.0
  0
LINE
  5
199
330
1F
100
AcDbEntity
  8
0
  6
Continuous
 62
     7
370
    15
100
AcDbLine
 10
1.0791813479
 20
8.9035233207
 30
0.0
 11
1.2956875934
 21
8.7785232581
 31
0.0
  0
LINE
  5
19A
330
1F
100
AcDbEntity
  8
0
  6
Continuous
 62
     7
370
    15
100
AcDbLine
 10
1.2956875934
 20
8.7785232581
 30
0.0
 11
1.5456874254
 21
9.2115360426
 31
0.0
  0
LINE
  5
19B
330
1F
100
AcDbEntity
  8
0
  6
Continuous
 62
     7
370
    15
100
AcDbLine
 10
1.5456874254
 20
9.2115360426
 30
0.0
 11
1.3291811799
 21
9.3365359585
 31
0.0
  0
CIRCLE
  5
19C
330
1F
100
AcDbEntity
  8
0
  6
Continuous
 62
     7
370
    15
100
AcDbCircle
 10
2.4474194975
 20
8.5697139504
 30
0.0
 40
0.0825
  0
LINE
  5
19D
330
1F
100
AcDbEntity
  8
0
  6
Continuous
 62
     7
370
    15
100
AcDbLine
 10
4.822419479
 20
2.8197140414
 30
0.0
 11
5.3224195096
 21
2.8197140414
 31
0.0
  0
LINE
  5
19E
330
1F
100
AcDbEntity
  8
0
  6
Continuous
 62
     7
370
    15
100
AcDbLine
 10
5.3224195096
 20
2.8197140414
 30
0.0
 11
5.3224195096
 21
3.0697138734
 31
0.0
  0
LINE
  5
19F
330
1F
100
AcDbEntity
  8
0
  6
Continuous
 62
     7
370
    15
100
AcDbLine
 10
5.3224195096
 20
3.0697138734
 30
0.0
 11
4.822419479
 21
3.0697138734
 31
0.0
  0
LINE
  5
1A0
330
1F
100
AcDbEntity
  8
0
  6
Continuous
 62
     7
370
    15
100
AcDbLine
 10
4.822419479
 20
3.0697138734
 30
0.0
 11
4.822419479
 21
2.8197140414
 31
0.0
  0
CIRCLE
  5
1A1
330
1F
100
AcDbEntity
  8
0
  6
Continuous
 62
     7
370
    15
100
AcDbCircle
 10
6.3224194975
 20
2.9447139504
 30
0.0
 40
0.0825000000000014
  0
LINE
  5
1A2
330
1F
100
AcDbEntity
  8
0
  6
Continuous
 62
     7
370
    15
100
AcDbLine
 10
7.3224194855
 20
2.8197140414
 30
0.0
 11
7.8224195161
 21
2.8197140414
 31
0.0
  0
LINE
  5
1A3
330
1F
100
AcDbEntity
  8
0
  6
Continuous
 62
     7
370
    15
100
AcDbLine
 10
7.8224195161
 20
2.8197140414
 30
0.0
 11
7.8224195161
 21
3.0697138734
 31
0.0
  0
LINE
  5
1A4
330
1F
100
AcDbEntity
  8
0
  6
Continuous
 62
     7
370
    15
100
AcDbLine
 10
7.8224195161
 20
3.0697138734
 30
0.0
 11
7.3224194855
 21
3.0697138734
 31
0.0
  0
LINE
  5
1A5
330
1F
100
AcDbEntity
  8
0
  6
Continuous
 62
     7
370
    15
100
AcDbLine
 10
7.3224194855
 20
3.0697138734
 30
0.0
 11
7.3224194855
 21
2.8197140414
 31
0.0
  0
CIRCLE
  5
1A6
330
1F
100
AcDbEntity
  8
0
  6
Continuous
 62
     7
370
    15
100
AcDbCircle
 10
8.974069927
 20
9.9713643798
 30
0.0
 40
0.0825000000000031
  0
LINE
  5
1A7
330
1F
100
AcDbEntity
  8
0
  6
Continuous
 62
     7
370
    15
100
AcDbLine
 10
9.9463417137
 20
8.8223158055
 30
0.0
 11
10.1231184715
 21
8.9990925634
 31
0.0
  0
LINE
  5
1A8
330
1F
100
AcDbEntity
  8
0
  6
Continuous
 62
     7
370
    15
100
AcDbLine
 10
10.1231184715
 20
8.9990925634
 30
0.0
 11
9.7695649558
 21
9.3526459324
 31
0.0
  0
LINE
  5
1A9
330
1F
100
AcDbEntity
  8
0
  6
Continuous
 62
     7
370
    15
100
AcDbLine
 10
9.7695649558
 20
9.3526459324
 30
0.0
 11
9.5927884913
 21
9.1758693212
 31
0.0
  0
LINE
  5
1AA
330
1F
100
AcDbEntity
  8
0
  6
Continuous
 62
     7
370
    15
100
AcDbLine
 10
9.5927884913
 20
9.1758693212
 30
0.0
 11
9.9463417137
 21
8.8223158055
 31
0.0
  0
LINE
  5
1AB
330
1F
100
AcDbEntity
  8
0
  6
Continuous
 62
     7
370
    15
100
AcDbLine
 10
8.3553514796
 20
10.7668594087
 30
0.0
 11
8.0017981105
 21
11.1204129244
 31
0.0
  0
LINE
  5
1AC
330
1F
100
AcDbEntity
  8
0
  6
Continuous
 62
     7
370
    15
100
AcDbLine
 10
8.0017981105
 20
11.1204129244
 30
0.0
 11
7.8250213527
 21
10.9436361665
 31
0.0
  0
LINE
  5
1AD
330
1F
100
AcDbEntity
  8
0
  6
Continuous
 62
     7
370
    15
100
AcDbLine
 10
7.8250213527
 20
10.9436361665
 30
0.0
 11
8.1785748684
 21
10.5900829441
 31
0.0
  0
LINE
  5
1AE
330
1F
100
AcDbEntity
  8
0
  6
Continuous
 62
     7
370
    15
100
AcDbLine
 10
8.1785748684
 20
10.5900829441
 30
0.0
 11
8.3553514796
 21
10.7668594087
 31
0.0
  0
LINE
  5
1AF
330
1F
100
AcDbEntity
  8
0
  6
Continuous
 62
     7
370
    15
100
AcDbLine
 10
10.8224194065
 20
5.8197139318
 30
0.0
 11
10.8224194065
 21
6.3197139625
 31
0.0
  0
LINE
  5
1B0
330
1F
100
AcDbEntity
  8
0
  6
Continuous
 62
     7
370
    15
100
AcDbLine
 10
10.8224194065
 20
6.3197139625
 30
0.0
 11
10.5724195745
 21
6.3197139625
 31
0.0
  0
LINE
  5
1B1
330
1F
100
AcDbEntity
  8
0
  6
Continuous
 62
     7
370
    15
100
AcDbLine
 10
10.5724195745
 20
6.3197139625
 30
0.0
 11
10.5724195745
 21
5.8197139318
 31
0.0
  0
LINE
  5
1B2
330
1F
100
AcDbEntity
  8
0
  6
Continuous
 62
     7
370
    15
100
AcDbLine
 10
10.5724195745
 20
5.8197139318
 30
0.0
 11
10.8224194065
 21
5.8197139318
 31
0.0
  0
CIRCLE
  5
1B3
330
1F
100
AcDbEntity
  8
0
  6
Continuous
 62
     7
370
    15
100
AcDbCircle
 10
10.6974194975
 20
7.3197139504
 30
0.0
 40
0.0825000000000014
  0
LINE
  5
1B4
330
1F
100
AcDbEntity
  8
0
  6
Continuous
 62
     7
370
    15
100
AcDbLine
 10
10.8224194065
 20
8.3197139383
 30
0.0
 11
10.8224194065
 21
8.8197139689
 31
0.0
  0
LINE
  5
1B5
330
1F
100
AcDbEntity
  8
0
  6
Continuous
 62
     7
370
    15
100
AcDbLine
 10
10.8224194065
 20
8.8197139689
 30
0.0
 11
10.5724195745
 21
8.8197139689
 31
0.0
  0
LINE
  5
1B6
330
1F
100
AcDbEntity
  8
0
  6
Continuous
 62
     7
370
    15
100
AcDbLine
 10
10.5724195745
 20
8.8197139689
 30
0.0
 11
10.5724195745
 21
8.3197139383
 31
0.0
  0
LINE
  5
1B7
330
1F
100
AcDbEntity
  8
0
  6
Continuous
 62
     7
370
    15
100
AcDbLine
 10
10.5724195745
 20
8.3197139383
 30
0.0
 11
10.8224194065
 21
8.3197139383
 31
0.0
  0
LINE
  5
1B8
330
1F
100
AcDbEntity
  8
0
  6
Continuous
 62
     7
370
    15
100
AcDbLine
 10
7.8224195161
 20
11.8197138593
 30
0.0
 11
7.3224194855
 21
11.8197138593
 31
0.0
  0
LINE
  5
1B9
330
1F
100
AcDbEntity
  8
0
  6
Continuous
 62
     7
370
    15
100
AcDbLine
 10
7.3224194855
 20
11.8197138593
 30
0.0
 11
7.3224194855
 21
11.5697140273
 31
0.0
  0
LINE
  5
1BA
330
1F
100
AcDbEntity
  8
0
  6
Continuous
 62
     7
370
    15
100
AcDbLine
 10
7.3224194855
 20
11.5697140273
 30
0.0
 11
7.8224195161
 21
11.5697140273
 31
0.0
  0
LINE
  5
1BB
330
1F
100
AcDbEntity
  8
0
  6
Continuous
 62
     7
370
    15
100
AcDbLine
 10
7.8224195161
 20
11.5697140273
 30
0.0
 11
7.8224195161
 21
11.8197138593
 31
0.0
  0
CIRCLE
  5
1BC
330
1F
100
AcDbEntity
  8
0
  6
Continuous
 62
     7
370
    15
100
AcDbCircle
 10
6.3224194975
 20
11.6947139504
 30
0.0
 40
0.0825000000000014
  0
LINE
  5
1BD
330
1F
100
AcDbEntity
  8
0
  6
Continuous
 62
     7
370
    15
100
AcDbLine
 10
5.3224195096
 20
11.8197138593
 30
0.0
 11
4.822419479
 21
11.8197138593
 31
0.0
  0
LINE
  5
1BE
330
1F
100
AcDbEntity
  8
0
  6
Continuous
 62
     7
370
    15
100
AcDbLine
 10
4.822419479
 20
11.8197138593
 30
0.0
 11
4.822419479
 21
11.5697140273
 31
0.0
  0
LINE
  5
1BF
330
1F
100
AcDbEntity
  8
0
  6
Continuous
 62
     7
370
    15
100
AcDbLine
 10
4.822419479
 20
11.5697140273
 30
0.0
 11
5.3224195096
 21
11.5697140273
 31
0.0
  0
LINE
  5
1C0
330
1F
100
AcDbEntity
  8
0
  6
Continuous
 62
     7
370
    15
100
AcDbLine
 10
5.3224195096
 20
11.5697140273
 30
0.0
 11
5.3224195096
 21
11.8197138593
 31
0.0
  0
LINE
  5
1C1
330
1F
100
AcDbEntity
  8
0
  6
Continuous
 62
     7
370
    15
100
AcDbLine
 10
1.8224195886
 20
8.8197139689
 30
0.0
 11
1.8224195886
 21
8.3197139383
 31
0.0
  0
LINE
  5
1C2
330
1F
100
AcDbEntity
  8
0
  6
Continuous
 62
     7
370
    15
100
AcDbLine
 10
1.8224195886
 20
8.3197139383
 30
0.0
 11
2.0724194206
 21
8.3197139383
 31
0.0
  0
LINE
  5
1C3
330
1F
100
AcDbEntity
  8
0
  6
Continuous
 62
     7
370
    15
100
AcDbLine
 10
2.0724194206
 20
8.3197139383
 30
0.0
 11
2.0724194206
 21
8.8197139689
 31
0.0
  0
LINE
  5
1C4
330
1F
100
AcDbEntity
  8
0
  6
Continuous
 62
     7
370
    15
100
AcDbLine
 10
2.0724194206
 20
8.8197139689
 30
0.0
 11
1.8224195886
 21
8.8197139689
 31
0.0
  0
CIRCLE
  5
1C5
330
1F
100
AcDbEntity
  8
0
  6
Continuous
 62
     7
370
    15
100
AcDbCircle
 10
1.9474194975
 20
7.3197139504
 30
0.0
 40
0.0825000000000005
  0
LINE
  5
1C6
330
1F
100
AcDbEntity
  8
0
  6
Continuous
 62
     7
370
    15
100
AcDbLine
 10
1.8224195886
 20
6.3197139625
 30
0.0
 11
1.8224195886
 21
5.8197139318
 31
0.0
  0
LINE
  5
1C7
330
1F
100
AcDbEntity
  8
0
  6
Continuous
 62
     7
370
    15
100
AcDbLine
 10
1.8224195886
 20
5.8197139318
 30
0.0
 11
2.0724194206
 21
5.8197139318
 31
0.0
  0
LINE
  5
1C8
330
1F
100
AcDbEntity
  8
0
  6
Continuous
 62
     7
370
    15
100
AcDbLine
 10
2.0724194206
 20
5.8197139318
 30
0.0
 11
2.0724194206
 21
6.3197139625
 31
0.0
  0
LINE
  5
1C9
330
1F
100
AcDbEntity
  8
0
  6
Continuous
 62
     7
370
    15
100
AcDbLine
 10
2.0724194206
 20
6.3197139625
 30
0.0
 11
1.8224195886
 21
6.3197139625
 31
0.0
  0
CIRCLE
  5
1CA
330
1F
100
AcDbEntity
  8
0
  6
Continuous
 62
     7
370
    15
100
AcDbCircle
 10
3.6707690681
 20
9.9713643798
 30
0.0
 40
0.0825000000000014
  0
LINE
  5
1CB
330
1F
100
AcDbEntity
  8
0
  6
Continuous
 62
     7
370
    15
100
AcDbLine
 10
4.8198176424
 20
10.9436361665
 30
0.0
 11
4.6430408845
 21
11.1204129244
 31
0.0
  0
LINE
  5
1CC
330
1F
100
AcDbEntity
  8
0
  6
Continuous
 62
     7
370
    15
100
AcDbLine
 10
4.6430408845
 20
11.1204129244
 30
0.0
 11
4.2894875155
 21
10.7668594087
 31
0.0
  0
LINE
  5
1CD
330
1F
100
AcDbEntity
  8
0
  6
Continuous
 62
     7
370
    15
100
AcDbLine
 10
4.2894875155
 20
10.7668594087
 30
0.0
 11
4.4662641267
 21
10.5900829441
 31
0.0
  0
LINE
  5
1CE
330
1F
100
AcDbEntity
  8
0
  6
Continuous
 62
     7
370
    15
100
AcDbLine
 10
4.4662641267
 20
10.5900829441
 30
0.0
 11
4.8198176424
 21
10.9436361665
 31
0.0
  0
LINE
  5
1CF
330
1F
100
AcDbEntity
  8
0
  6
Continuous
 62
     7
370
    15
100
AcDbLine
 10
2.8752740393
 20
9.3526459324
 30
0.0
 11
2.5217205235
 21
8.9990925634
 31
0.0
  0
LINE
  5
1D0
330
1F
100
AcDbEntity
  8
0
  6
Continuous
 62
     7
370
    15
100
AcDbLine
 10
2.5217205235
 20
8.9990925634
 30
0.0
 11
2.6984972814
 21
8.8223158055
 31
0.0
  0
LINE
  5
1D1
330
1F
100
AcDbEntity
  8
0
  6
Continuous
 62
     7
370
    15
100
AcDbLine
 10
2.6984972814
 20
8.8223158055
 30
0.0
 11
3.0520505038
 21
9.1758693212
 31
0.0
  0
LINE
  5
1D2
330
1F
100
AcDbEntity
  8
0
  6
Continuous
 62
     7
370
    15
100
AcDbLine
 10
3.0520505038
 20
9.1758693212
 30
0.0
 11
2.8752740393
 21
9.3526459324
 31
0.0
  0
CIRCLE
  5
1D3
330
1F
100
AcDbEntity
  8
0
  6
Continuous
 62
     7
370
    15
100
AcDbCircle
 10
3.6707690681
 20
4.6680635209
 30
0.0
 40
0.0825000000000036
  0
LINE
  5
1D4
330
1F
100
AcDbEntity
  8
0
  6
Continuous
 62
     7
370
    15
100
AcDbLine
 10
2.6984972814
 20
5.8171120952
 30
0.0
 11
2.5217205235
 21
5.6403353374
 31
0.0
  0
LINE
  5
1D5
330
1F
100
AcDbEntity
  8
0
  6
Continuous
 62
     7
370
    15
100
AcDbLine
 10
2.5217205235
 20
5.6403353374
 30
0.0
 11
2.8752740393
 21
5.2867819683
 31
0.0
  0
LINE
  5
1D6
330
1F
100
AcDbEntity
  8
0
  6
Continuous
 62
     7
370
    15
100
AcDbLine
 10
2.8752740393
 20
5.2867819683
 30
0.0
 11
3.0520505038
 21
5.4635585795
 31
0.0
  0
LINE
  5
1D7
330
1F
100
AcDbEntity
  8
0
  6
Continuous
 62
     7
370
    15
100
AcDbLine
 10
3.0520505038
 20
5.4635585795
 30
0.0
 11
2.6984972814
 21
5.8171120952
 31
0.0
  0
LINE
  5
1D8
330
1F
100
AcDbEntity
  8
0
  6
Continuous
 62
     7
370
    15
100
AcDbLine
 10
4.2894875155
 20
3.8725684921
 30
0.0
 11
4.6430408845
 21
3.5190149764
 31
0.0
  0
LINE
  5
1D9
330
1F
100
AcDbEntity
  8
0
  6
Continuous
 62
     7
370
    15
100
AcDbLine
 10
4.6430408845
 20
3.5190149764
 30
0.0
 11
4.8198176424
 21
3.6957917342
 31
0.0
  0
LINE
  5
1DA
330
1F
100
AcDbEntity
  8
0
  6
Continuous
 62
     7
370
    15
100
AcDbLine
 10
4.8198176424
 20
3.6957917342
 30
0.0
 11
4.4662641267
 21
4.0493449566
 31
0.0
  0
LINE
  5
1DB
330
1F
100
AcDbEntity
  8
0
  6
Continuous
 62
     7
370
    15
100
AcDbLine
 10
4.4662641267
 20
4.0493449566
 30
0.0
 11
4.2894875155
 21
3.8725684921
 31
0.0
  0
CIRCLE
  5
1DC
330
1F
100
AcDbEntity
  8
0
  6
Continuous
 62
     7
370
    15
100
AcDbCircle
 10
8.974069927
 20
4.6680635209
 30
0.0
 40
0.0825000000000031
  0
LINE
  5
1DD
330
1F
100
AcDbEntity
  8
0
  6
Continuous
 62
     7
370
    15
100
AcDbLine
 10
7.8250213527
 20
3.6957917342
 30
0.0
 11
8.0017981105
 21
3.5190149764
 31
0.0
  0
LINE
  5
1DE
330
1F
100
AcDbEntity
  8
0
  6
Continuous
 62
     7
370
    15
100
AcDbLine
 10
8.0017981105
 20
3.5190149764
 30
0.0
 11
8.3553514796
 21
3.8725684921
 31
0.0
  0
LINE
  5
1DF
330
1F
100
AcDbEntity
  8
0
  6
Continuous
 62
     7
370
    15
100
AcDbLine
 10
8.3553514796
 20
3.8725684921
 30
0.0
 11
8.1785748684
 21
4.0493449566
 31
0.0
  0
LINE
  5
1E0
330
1F
100
AcDbEntity
  8
0
  6
Continuous
 62
     7
370
    15
100
AcDbLine
 10
8.1785748684
 20
4.0493449566
 30
0.0
 11
7.8250213527
 21
3.6957917342
 31
0.0
  0
LINE
  5
1E1
330
1F
100
AcDbEntity
  8
0
  6
Continuous
 62
     7
370
    15
100
AcDbLine
 10
9.7695649558
 20
5.2867819683
 30
0.0
 11
10.1231184715
 21
5.6403353374
 31
0.0
  0
LINE
  5
1E2
330
1F
100
AcDbEntity
  8
0
  6
Continuous
 62
     7
370
    15
100
AcDbLine
 10
10.1231184715
 20
5.6403353374
 30
0.0
 11
9.9463417137
 21
5.8171120952
 31
0.0
  0
LINE
  5
1E3
330
1F
100
AcDbEntity
  8
0
  6
Continuous
 62
     7
370
    15
100
AcDbLine
 10
9.9463417137
 20
5.8171120952
 30
0.0
 11
9.5927884913
 21
5.4635585795
 31
0.0
  0
LINE
  5
1E4
330
1F
100
AcDbEntity
  8
0
  6
Continuous
 62
     7
370
    15
100
AcDbLine
 10
9.5927884913
 20
5.4635585795
 30
0.0
 11
9.7695649558
 21
5.2867819683
 31
0.0
  0
ARC
  5
1E5
330
1F
100
AcDbEntity
  8
0
  6
Continuous
 62
     7
370
    15
100
AcDbCircle
 10
5.6424194975
 20
4.6370316985
 30
0.0
 40
0.125
100
AcDbArc
 50
90.0
 51
180.0
  0
LINE
  5
1E6
330
1F
100
AcDbEntity
  8
0
  6
Continuous
 62
     7
370
    15
100
AcDbLine
 10
5.5174194636
 20
4.6370317943
 30
0.0
 11
5.5174194636
 21
3.4870317459
 31
0.0
  0
ARC
  5
1E7
330
1F
100
AcDbEntity
  8
0
  6
Continuous
 62
     7
370
    15
100
AcDbCircle
 10
5.6424194975
 20
3.4870316985
 30
0.0
 40
0.125
100
AcDbArc
 50
180.0
 51
270.0
  0
LINE
  5
1E8
330
1F
100
AcDbEntity
  8
0
  6
Continuous
 62
     7
370
    15
100
AcDbLine
 10
5.6424195263
 20
3.3620318299
 30
0.0
 11
7.0024194688
 21
3.3620318299
 31
0.0
  0
ARC
  5
1E9
330
1F
100
AcDbEntity
  8
0
  6
Continuous
 62
     7
370
    15
100
AcDbCircle
 10
7.0024194975
 20
3.4870316985
 30
0.0
 40
0.125
100
AcDbArc
 50
270.0
 51
0.0
  0
LINE
  5
1EA
330
1F
100
AcDbEntity
  8
0
  6
Continuous
 62
     7
370
    15
100
AcDbLine
 10
7.1274195314
 20
3.4870317459
 30
0.0
 11
7.1274195314
 21
4.6370317943
 31
0.0
  0
ARC
  5
1EB
330
1F
100
AcDbEntity
  8
0
  6
Continuous
 62
     7
370
    15
100
AcDbCircle
 10
7.0024194975
 20
4.6370316985
 30
0.0
 40
0.125
100
AcDbArc
 50
0.0
 51
90.0
  0
LINE
  5
1EC
330
1F
100
AcDbEntity
  8
0
  6
Continuous
 62
     7
370
    15
100
AcDbLine
 10
7.0024194688
 20
4.7620317103
 30
0.0
 11
5.6424195263
 21
4.7620317103
 31
0.0
  0
LINE
  5
1ED
330
1F
100
AcDbEntity
  8
0
  6
Continuous
 62
     7
370
    15
100
AcDbLine
 10
4.822419479
 20
10.0697138621
 30
0.0
 11
5.3224195096
 21
10.0697138621
 31
0.0
  0
LINE
  5
1EE
330
1F
100
AcDbEntity
  8
0
  6
Continuous
 62
     7
370
    15
100
AcDbLine
 10
5.3224195096
 20
10.0697138621
 30
0.0
 11
5.3224195096
 21
10.3197139875
 31
0.0
  0
LINE
  5
1EF
330
1F
100
AcDbEntity
  8
0
  6
Continuous
 62
     7
370
    15
100
AcDbLine
 10
5.3224195096
 20
10.3197139875
 30
0.0
 11
4.822419479
 21
10.3197139875
 31
0.0
  0
LINE
  5
1F0
330
1F
100
AcDbEntity
  8
0
  6
Continuous
 62
     7
370
    15
100
AcDbLine
 10
4.822419479
 20
10.3197139875
 30
0.0
 11
4.822419479
 21
10.0697138621
 31
0.0
  0
CIRCLE
  5
1F1
330
1F
100
AcDbEntity
  8
0
  6
Continuous
 62
     7
370
    15
100
AcDbCircle
 10
6.3224194975
 20
10.1947139504
 30
0.0
 40
0.0824999999999996
  0
LINE
  5
1F2
330
1F
100
AcDbEntity
  8
0
  6
Continuous
 62
     7
370
    15
100
AcDbLine
 10
7.3224194855
 20
10.3197139875
 30
0.0
 11
7.3224194855
 21
10.0697138621
 31
0.0
  0
LINE
  5
1F3
330
1F
100
AcDbEntity
  8
0
  6
Continuous
 62
     7
370
    15
100
AcDbLine
 10
7.3224194855
 20
10.0697138621
 30
0.0
 11
7.8224195161
 21
10.0697138621
 31
0.0
  0
LINE
  5
1F4
330
1F
100
AcDbEntity
  8
0
  6
Continuous
 62
     7
370
    15
100
AcDbLine
 10
7.8224195161
 20
10.0697138621
 30
0.0
 11
7.8224195161
 21
10.3197139875
 31
0.0
  0
LINE
  5
1F5
330
1F
100
AcDbEntity
  8
0
  6
Continuous
 62
     7
370
    15
100
AcDbLine
 10
7.8224195161
 20
10.3197139875
 30
0.0
 11
7.3224194855
 21
10.3197139875
 31
0.0
  0
LINE
  5
1F6
330
1F
100
AcDbEntity
  8
0
  6
Continuous
 62
     7
370
    15
100
AcDbLine
 10
10.0467743447
 20
19.3856222845
 30
0.0
 11
10.0467743447
 21
18.8856222538
 31
0.0
  0
LINE
  5
1F7
330
1F
100
AcDbEntity
  8
0
  6
Continuous
 62
     7
370
    15
100
AcDbLine
 10
9.7967745127
 20
19.3856222845
 30
0.0
 11
10.0467743447
 21
19.3856222845
 31
0.0
  0
LINE
  5
1F8
330
1F
100
AcDbEntity
  8
0
  6
Continuous
 62
     7
370
    15
100
AcDbLine
 10
9.7967745127
 20
18.8856222538
 30
0.0
 11
9.7967745127
 21
19.3856222845
 31
0.0
  0
LINE
  5
1F9
330
1F
100
AcDbEntity
  8
0
  6
Continuous
 62
     7
370
    15
100
AcDbLine
 10
10.0467743447
 20
18.8856222538
 30
0.0
 11
9.7967745127
 21
18.8856222538
 31
0.0
  0
LINE
  5
1FA
330
1F
100
AcDbEntity
  8
0
  6
Continuous
 62
     7
370
    15
100
AcDbLine
 10
9.7967745127
 20
14.3856221249
 30
0.0
 11
9.7967745127
 21
14.8856223755
 31
0.0
  0
LINE
  5
1FB
330
1F
100
AcDbEntity
  8
0
  6
Continuous
 62
     7
370
    15
100
AcDbLine
 10
10.0467743447
 20
14.3856221249
 30
0.0
 11
9.7967745127
 21
14.3856221249
 31
0.0
  0
LINE
  5
1FC
330
1F
100
AcDbEntity
  8
0
  6
Continuous
 62
     7
370
    15
100
AcDbLine
 10
10.0467743447
 20
14.8856223755
 30
0.0
 11
10.0467743447
 21
14.3856221249
 31
0.0
  0
LINE
  5
1FD
330
1F
100
AcDbEntity
  8
0
  6
Continuous
 62
     7
370
    15
100
AcDbLine
 10
9.7967745127
 20
14.8856223755
 30
0.0
 11
10.0467743447
 21
14.8856223755
 31
0.0
  0
CIRCLE
  5
1FE
330
1F
100
AcDbEntity
  8
0
  6
Continuous
 62
     7
370
    15
100
AcDbCircle
 10
7.796774393
 20
23.3433044965
 30
0.0
 40
0.0824999999999996
  0
LINE
  5
1FF
330
1F
100
AcDbEntity
  8
0
  6
Continuous
 62
     7
370
    15
100
AcDbLine
 10
8.5467744728
 20
23.468304321
 30
0.0
 11
8.0467743689
 21
23.468304321
 31
0.0
  0
LINE
  5
200
330
1F
100
AcDbEntity
  8
0
  6
Continuous
 62
     7
370
    15
100
AcDbLine
 10
8.0467743689
 20
23.468304321
 30
0.0
 11
8.0467743689
 21
23.218304489
 31
0.0
  0
LINE
  5
201
330
1F
100
AcDbEntity
  8
0
  6
Continuous
 62
     7
370
    15
100
AcDbLine
 10
8.0467743689
 20
23.218304489
 30
0.0
 11
8.5467744728
 21
23.218304489
 31
0.0
  0
LINE
  5
202
330
1F
100
AcDbEntity
  8
0
  6
Continuous
 62
     7
370
    15
100
AcDbLine
 10
8.5467744728
 20
23.218304489
 30
0.0
 11
8.5467744728
 21
23.468304321
 31
0.0
  0
LINE
  5
203
330
1F
100
AcDbEntity
  8
0
  6
Continuous
 62
     7
370
    15
100
AcDbLine
 10
4.0467744172
 20
23.468304321
 30
0.0
 11
3.5467743132
 21
23.468304321
 31
0.0
  0
LINE
  5
204
330
1F
100
AcDbEntity
  8
0
  6
Continuous
 62
     7
370
    15
100
AcDbLine
 10
3.5467743132
 20
23.468304321
 30
0.0
 11
3.5467743132
 21
23.218304489
 31
0.0
  0
LINE
  5
205
330
1F
100
AcDbEntity
  8
0
  6
Continuous
 62
     7
370
    15
100
AcDbLine
 10
3.5467743132
 20
23.218304489
 30
0.0
 11
4.0467744172
 21
23.218304489
 31
0.0
  0
LINE
  5
206
330
1F
100
AcDbEntity
  8
0
  6
Continuous
 62
     7
370
    15
100
AcDbLine
 10
4.0467744172
 20
23.218304489
 30
0.0
 11
4.0467744172
 21
23.468304321
 31
0.0
  0
CIRCLE
  5
207
330
1F
100
AcDbEntity
  8
0
  6
Continuous
 62
     7
370
    15
100
AcDbCircle
 10
4.296774393
 20
23.3433044965
 30
0.0
 40
0.0824999999999996
  0
LINE
  5
208
330
1F
100
AcDbEntity
  8
0
  6
Continuous
 62
     7
370
    15
100
AcDbLine
 10
2.0467744414
 20
14.3856221249
 30
0.0
 11
2.2967742734
 21
14.3856221249
 31
0.0
  0
LINE
  5
209
330
1F
100
AcDbEntity
  8
0
  6
Continuous
 62
     7
370
    15
100
AcDbLine
 10
2.2967742734
 20
14.3856221249
 30
0.0
 11
2.2967742734
 21
14.8856223755
 31
0.0
  0
LINE
  5
20A
330
1F
100
AcDbEntity
  8
0
  6
Continuous
 62
     7
370
    15
100
AcDbLine
 10
2.2967742734
 20
14.8856223755
 30
0.0
 11
2.0467744414
 21
14.8856223755
 31
0.0
  0
LINE
  5
20B
330
1F
100
AcDbEntity
  8
0
  6
Continuous
 62
     7
370
    15
100
AcDbLine
 10
2.0467744414
 20
14.8856223755
 30
0.0
 11
2.0467744414
 21
14.3856221249
 31
0.0
  0
CIRCLE
  5
20C
330
1F
100
AcDbEntity
  8
0
  6
Continuous
 62
     7
370
    15
100
AcDbCircle
 10
2.171774393
 20
15.1356222446
 30
0.0
 40
0.0825
  0
LINE
  5
20D
330
1F
100
AcDbEntity
  8
0
  6
Continuous
 62
     7
370
    15
100
AcDbLine
 10
2.2967742734
 20
19.3856222845
 30
0.0
 11
2.0467744414
 21
19.3856222845
 31
0.0
  0
LINE
  5
20E
330
1F
100
AcDbEntity
  8
0
  6
Continuous
 62
     7
370
    15
100
AcDbLine
 10
2.0467744414
 20
19.3856222845
 30
0.0
 11
2.0467744414
 21
18.8856222538
 31
0.0
  0
LINE
  5
20F
330
1F
100
AcDbEntity
  8
0
  6
Continuous
 62
     7
370
    15
100
AcDbLine
 10
2.0467744414
 20
18.8856222538
 30
0.0
 11
2.2967742734
 21
18.8856222538
 31
0.0
  0
LINE
  5
210
330
1F
100
AcDbEntity
  8
0
  6
Continuous
 62
     7
370
    15
100
AcDbLine
 10
2.2967742734
 20
18.8856222538
 30
0.0
 11
2.2967742734
 21
19.3856222845
 31
0.0
  0
CIRCLE
  5
211
330
1F
100
AcDbEntity
  8
0
  6
Continuous
 62
     7
370
    15
100
AcDbCircle
 10
2.171774393
 20
18.6356222446
 30
0.0
 40
0.0825
  0
CIRCLE
  5
212
330
1F
100
AcDbEntity
  8
0
  6
Continuous
 62
     7
370
    15
100
AcDbCircle
 10
9.921774393
 20
15.1356222446
 30
0.0
 40
0.0824999999999978
  0
CIRCLE
  5
213
330
1F
100
AcDbEntity
  8
0
  6
Continuous
 62
     7
370
    15
100
AcDbCircle
 10
9.921774393
 20
18.6356222446
 30
0.0
 40
0.0824999999999996
  0
CIRCLE
  5
214
330
1F
100
AcDbEntity
  8
0
  6
Continuous
 62
     7
370
    15
100
AcDbCircle
 10
9.681759518
 20
14.016236662
 30
0.0
 40
0.0824999999999997
  0
LINE
  5
215
330
1F
100
AcDbEntity
  8
0
  6
Continuous
 62
     7
370
    15
100
AcDbLine
 10
9.4150126295
 20
13.3042175774
 30
0.0
 11
9.6650127548
 21
13.7372303618
 31
0.0
  0
LINE
  5
216
330
1F
100
AcDbEntity
  8
0
  6
Continuous
 62
     7
370
    15
100
AcDbLine
 10
9.6650127548
 20
13.7372303618
 30
0.0
 11
9.4485062159
 21
13.8622302778
 31
0.0
  0
LINE
  5
217
330
1F
100
AcDbEntity
  8
0
  6
Continuous
 62
     7
370
    15
100
AcDbLine
 10
9.4485062159
 20
13.8622302778
 30
0.0
 11
9.198506384
 21
13.4292174934
 31
0.0
  0
LINE
  5
218
330
1F
100
AcDbEntity
  8
0
  6
Continuous
 62
     7
370
    15
100
AcDbLine
 10
9.198506384
 20
13.4292174934
 30
0.0
 11
9.4150126295
 21
13.3042175774
 31
0.0
  0
LINE
  5
219
330
1F
100
AcDbEntity
  8
0
  6
Continuous
 62
     7
370
    15
100
AcDbLine
 10
11.665012584
 20
17.2013319042
 30
0.0
 11
11.915012416
 21
17.6343446154
 31
0.0
  0
LINE
  5
21A
330
1F
100
AcDbEntity
  8
0
  6
Continuous
 62
     7
370
    15
100
AcDbLine
 10
11.915012416
 20
17.6343446154
 30
0.0
 11
11.6985061704
 21
17.7593446414
 31
0.0
  0
LINE
  5
21B
330
1F
100
AcDbEntity
  8
0
  6
Continuous
 62
     7
370
    15
100
AcDbLine
 10
11.6985061704
 20
17.7593446414
 30
0.0
 11
11.4485063384
 21
17.3263318936
 31
0.0
  0
LINE
  5
21C
330
1F
100
AcDbEntity
  8
0
  6
Continuous
 62
     7
370
    15
100
AcDbLine
 10
11.4485063384
 20
17.3263318936
 30
0.0
 11
11.665012584
 21
17.2013319042
 31
0.0
  0
CIRCLE
  5
21D
330
1F
100
AcDbEntity
  8
0
  6
Continuous
 62
     7
370
    15
100
AcDbCircle
 10
11.431759518
 20
17.0473255752
 30
0.0
 40
0.0824999999999991
  0
CIRCLE
  5
21E
330
1F
100
AcDbEntity
  8
0
  6
Continuous
 62
     7
370
    15
100
AcDbCircle
 10
0.661789268
 20
17.0473255752
 30
0.0
 40
0.0825000000000011
  0
LINE
  5
21F
330
1F
100
AcDbEntity
  8
0
  6
Continuous
 62
     7
370
    15
100
AcDbLine
 10
0.1785363701
 20
17.6343446154
 30
0.0
 11
0.4285362021
 21
17.2013319042
 31
0.0
  0
LINE
  5
220
330
1F
100
AcDbEntity
  8
0
  6
Continuous
 62
     7
370
    15
100
AcDbLine
 10
0.4285362021
 20
17.2013319042
 30
0.0
 11
0.6450424476
 21
17.3263318936
 31
0.0
  0
LINE
  5
221
330
1F
100
AcDbEntity
  8
0
  6
Continuous
 62
     7
370
    15
100
AcDbLine
 10
0.6450424476
 20
17.3263318936
 30
0.0
 11
0.3950426157
 21
17.7593446414
 31
0.0
  0
LINE
  5
222
330
1F
100
AcDbEntity
  8
0
  6
Continuous
 62
     7
370
    15
100
AcDbLine
 10
0.3950426157
 20
17.7593446414
 30
0.0
 11
0.1785363701
 21
17.6343446154
 31
0.0
  0
LINE
  5
223
330
1F
100
AcDbEntity
  8
0
  6
Continuous
 62
     7
370
    15
100
AcDbLine
 10
2.4285360312
 20
13.7372303618
 30
0.0
 11
2.6785361565
 21
13.3042175774
 31
0.0
  0
LINE
  5
224
330
1F
100
AcDbEntity
  8
0
  6
Continuous
 62
     7
370
    15
100
AcDbLine
 10
2.6785361565
 20
13.3042175774
 30
0.0
 11
2.8950424021
 21
13.4292174934
 31
0.0
  0
LINE
  5
225
330
1F
100
AcDbEntity
  8
0
  6
Continuous
 62
     7
370
    15
100
AcDbLine
 10
2.8950424021
 20
13.4292174934
 30
0.0
 11
2.6450425701
 21
13.8622302778
 31
0.0
  0
LINE
  5
226
330
1F
100
AcDbEntity
  8
0
  6
Continuous
 62
     7
370
    15
100
AcDbLine
 10
2.6450425701
 20
13.8622302778
 30
0.0
 11
2.4285360312
 21
13.7372303618
 31
0.0
  0
CIRCLE
  5
227
330
1F
100
AcDbEntity
  8
0
  6
Continuous
 62
     7
370
    15
100
AcDbCircle
 10
2.411789268
 20
14.016236662
 30
0.0
 40
0.0825000000000013
  0
CIRCLE
  5
228
330
1F
100
AcDbEntity
  8
0
  6
Continuous
 62
     7
370
    15
100
AcDbCircle
 10
4.953024393
 20
22.9683044965
 30
0.0
 40
0.1093749999999991
  0
CIRCLE
  5
229
330
1F
100
AcDbEntity
  8
0
  6
Continuous
 62
     7
370
    15
100
AcDbCircle
 10
7.140524393
 20
22.9683044965
 30
0.0
 40
0.109375
  0
LINE
  5
22A
330
1F
100
AcDbEntity
  8
0
  6
Continuous
 62
     7
370
    15
100
AcDbLine
 10
7.1717743703
 20
23.7183047396
 30
0.0
 11
7.1717743703
 21
23.7187998806
 31
0.0
  0
ARC
  5
22B
330
1F
100
AcDbEntity
  8
0
  6
Continuous
 62
     7
370
    15
100
AcDbCircle
 10
7.421774393
 20
23.7188001031
 30
0.0
 40
0.2500000000000046
100
AcDbArc
 50
76.164776386
 51
180.0
  0
ARC
  5
22C
330
1F
100
AcDbEntity
  8
0
  6
Continuous
 62
     7
370
    15
100
AcDbCircle
 10
11.5694482524
 20
16.5348182455
 30
0.0
 40
0.2500000000000016
100
AcDbArc
 50
240.0
 51
343.835223614
  0
LINE
  5
22D
330
1F
100
AcDbEntity
  8
0
  6
Continuous
 62
     7
370
    15
100
AcDbLine
 10
11.444448412
 20
16.318311825
 30
0.0
 11
11.4440189769
 21
16.3185596888
 31
0.0
  0
ARC
  5
22E
330
1F
100
AcDbEntity
  8
0
  6
Continuous
 62
     7
370
    15
100
AcDbCircle
 10
11.3190190445
 20
16.1020533469
 30
0.0
 40
0.2500000000000032
100
AcDbArc
 50
60.0
 51
86.8178356328
  0
ARC
  5
22F
330
1F
100
AcDbEntity
  8
0
  6
Continuous
 62
     7
370
    15
100
AcDbCircle
 10
11.346774393
 20
16.6012823932
 30
0.0
 40
0.2500000000000018
100
AcDbArc
 50
180.0
 51
266.8178356328
  0
LINE
  5
230
330
1F
100
AcDbEntity
  8
0
  6
Continuous
 62
     7
370
    15
100
AcDbLine
 10
11.0967744017
 20
16.6012823827
 30
0.0
 11
11.0967744017
 21
18.3231222469
 31
0.0
  0
ARC
  5
231
330
1F
100
AcDbEntity
  8
0
  6
Continuous
 62
     7
370
    15
100
AcDbCircle
 10
10.909274393
 20
18.3231222446
 30
0.0
 40
0.1875
100
AcDbArc
 50
0.0
 51
90.0
  0
LINE
  5
232
330
1F
100
AcDbEntity
  8
0
  6
Continuous
 62
     7
370
    15
100
AcDbLine
 10
10.2342743653
 20
18.5106222492
 30
0.0
 11
10.909274381
 21
18.5106222492
 31
0.0
  0
ARC
  5
233
330
1F
100
AcDbEntity
  8
0
  6
Continuous
 62
     7
370
    15
100
AcDbCircle
 10
10.234274393
 20
18.3231222446
 30
0.0
 40
0.1875
100
AcDbArc
 50
90.0
 51
180.0
  0
LINE
  5
234
330
1F
100
AcDbEntity
  8
0
  6
Continuous
 62
     7
370
    15
100
AcDbLine
 10
10.0467743447
 20
15.4305510938
 30
0.0
 11
10.0467743447
 21
18.3231222469
 31
0.0
  0
ARC
  5
235
330
1F
100
AcDbEntity
  8
0
  6
Continuous
 62
     7
370
    15
100
AcDbCircle
 10
10.234274393
 20
15.4305511008
 30
0.0
 40
0.1875000000000014
100
AcDbArc
 50
180.0
 51
253.7065529434
  0
ARC
  5
236
330
1F
100
AcDbEntity
  8
0
  6
Continuous
 62
     7
370
    15
100
AcDbCircle
 10
10.1115307345
 20
15.0106222446
 30
0.0
 40
0.2500000000000014
100
AcDbArc
 50
330.0
 51
73.7065529434
  0
LINE
  5
237
330
1F
100
AcDbEntity
  8
0
  6
Continuous
 62
     7
370
    15
100
AcDbLine
 10
10.3280369889
 20
14.8856223755
 30
0.0
 11
10.2275128168
 21
14.7115087602
 31
0.0
  0
ARC
  5
238
330
1F
100
AcDbEntity
  8
0
  6
Continuous
 62
     7
370
    15
100
AcDbCircle
 10
10.4440190445
 20
14.5865088903
 30
0.0
 40
0.2500000000000029
100
AcDbArc
 50
150.0
 51
240.0
  0
LINE
  5
239
330
1F
100
AcDbEntity
  8
0
  6
Continuous
 62
     7
370
    15
100
AcDbLine
 10
10.3190191464
 20
14.3700025987
 30
0.0
 11
10.3194482881
 21
14.3697547349
 31
0.0
  0
ARC
  5
23A
330
1F
100
AcDbEntity
  8
0
  6
Continuous
 62
     7
370
    15
100
AcDbCircle
 10
10.1944482524
 20
14.1532483851
 30
0.0
 40
0.2499999999999999
100
AcDbArc
 50
316.164776386
 51
60.0
  0
ARC
  5
23B
330
1F
100
AcDbEntity
  8
0
  6
Continuous
 62
     7
370
    15
100
AcDbCircle
 10
6.046774393
 20
18.1356222446
 30
0.0
 40
6.000000000000001
100
AcDbArc
 50
302.9207345281
 51
316.164776386
  0
ARC
  5
23C
330
1F
100
AcDbEntity
  8
0
  6
Continuous
 62
     7
370
    15
100
AcDbCircle
 10
9.171774393
 20
13.3089386005
 30
0.0
 40
0.2500000000000004
100
AcDbArc
 50
180.0
 51
302.9207345281
  0
LINE
  5
23D
330
1F
100
AcDbEntity
  8
0
  6
Continuous
 62
     7
370
    15
100
AcDbLine
 10
8.9217745141
 20
14.6192784923
 30
0.0
 11
8.9217745141
 21
13.3089387228
 31
0.0
  0
ARC
  5
23E
330
1F
100
AcDbEntity
  8
0
  6
Continuous
 62
     7
370
    15
100
AcDbCircle
 10
8.671774393
 20
14.6192786363
 30
0.0
 40
0.25
100
AcDbArc
 50
0.0
 51
90.0
  0
LINE
  5
23F
330
1F
100
AcDbEntity
  8
0
  6
Continuous
 62
     7
370
    15
100
AcDbLine
 10
8.6717743888
 20
14.8692786176
 30
0.0
 11
3.4217743973
 21
14.8692786176
 31
0.0
  0
ARC
  5
240
330
1F
100
AcDbEntity
  8
0
  6
Continuous
 62
     7
370
    15
100
AcDbCircle
 10
3.421774393
 20
14.6192786363
 30
0.0
 40
0.2500000000000018
100
AcDbArc
 50
90.0
 51
180.0
  0
LINE
  5
241
330
1F
100
AcDbEntity
  8
0
  6
Continuous
 62
     7
370
    15
100
AcDbLine
 10
3.1717742719
 20
14.6192784923
 30
0.0
 11
3.1717742719
 21
13.3089387228
 31
0.0
  0
ARC
  5
242
330
1F
100
AcDbEntity
  8
0
  6
Continuous
 62
     7
370
    15
100
AcDbCircle
 10
2.921774393
 20
13.3089386005
 30
0.0
 40
0.2500000000000009
100
AcDbArc
 50
237.0792654719
 51
0.0
  0
ARC
  5
243
330
1F
100
AcDbEntity
  8
0
  6
Continuous
 62
     7
370
    15
100
AcDbCircle
 10
1.8991005337
 20
14.1532483851
 30
0.0
 40
0.2500000000000014
100
AcDbArc
 50
120.0
 51
223.835223614
  0
LINE
  5
244
330
1F
100
AcDbEntity
  8
0
  6
Continuous
 62
     7
370
    15
100
AcDbLine
 10
1.774100498
 20
14.3697547349
 30
0.0
 11
1.7745296397
 21
14.3700025987
 31
0.0
  0
ARC
  5
245
330
1F
100
AcDbEntity
  8
0
  6
Continuous
 62
     7
370
    15
100
AcDbCircle
 10
1.6495297416
 20
14.5865088903
 30
0.0
 40
0.2499999999999998
100
AcDbArc
 50
300.0
 51
30.0
  0
LINE
  5
246
330
1F
100
AcDbEntity
  8
0
  6
Continuous
 62
     7
370
    15
100
AcDbLine
 10
1.8660359693
 20
14.7115087602
 30
0.0
 11
1.7655117972
 21
14.8856223755
 31
0.0
  0
ARC
  5
247
330
1F
100
AcDbEntity
  8
0
  6
Continuous
 62
     7
370
    15
100
AcDbCircle
 10
1.9820180515
 20
15.0106222446
 30
0.0
 40
0.2500000000000007
100
AcDbArc
 50
106.2934470566
 51
210.0
  0
ARC
  5
248
330
1F
100
AcDbEntity
  8
0
  6
Continuous
 62
     7
370
    15
100
AcDbCircle
 10
1.859274393
 20
15.4305511008
 30
0.0
 40
0.1874999999999996
100
AcDbArc
 50
286.2934470566
 51
0.0
  0
LINE
  5
249
330
1F
100
AcDbEntity
  8
0
  6
Continuous
 62
     7
370
    15
100
AcDbLine
 10
2.0467744414
 20
15.4305510938
 30
0.0
 11
2.0467744414
 21
18.3231222469
 31
0.0
  0
ARC
  5
24A
330
1F
100
AcDbEntity
  8
0
  6
Continuous
 62
     7
370
    15
100
AcDbCircle
 10
1.859274393
 20
18.3231222446
 30
0.0
 40
0.1875000000000002
100
AcDbArc
 50
0.0
 51
90.0
  0
LINE
  5
24B
330
1F
100
AcDbEntity
  8
0
  6
Continuous
 62
     7
370
    15
100
AcDbLine
 10
1.8592744207
 20
18.5106222492
 30
0.0
 11
1.184274405
 21
18.5106222492
 31
0.0
  0
ARC
  5
24C
330
1F
100
AcDbEntity
  8
0
  6
Continuous
 62
     7
370
    15
100
AcDbCircle
 10
1.184274393
 20
18.3231222446
 30
0.0
 40
0.1875000000000008
100
AcDbArc
 50
90.0
 51
180.0
  0
LINE
  5
24D
330
1F
100
AcDbEntity
  8
0
  6
Continuous
 62
     7
370
    15
100
AcDbLine
 10
0.9967743844
 20
16.6012823827
 30
0.0
 11
0.9967743844
 21
18.3231222469
 31
0.0
  0
ARC
  5
24E
330
1F
100
AcDbEntity
  8
0
  6
Continuous
 62
     7
370
    15
100
AcDbCircle
 10
0.746774393
 20
16.6012823932
 30
0.0
 40
0.2499999999999998
100
AcDbArc
 50
273.1821643672
 51
0.0
  0
ARC
  5
24F
330
1F
100
AcDbEntity
  8
0
  6
Continuous
 62
     7
370
    15
100
AcDbCircle
 10
0.7745297416
 20
16.1020533469
 30
0.0
 40
0.2500000000000023
100
AcDbArc
 50
93.1821643672
 51
120.0
  0
LINE
  5
250
330
1F
100
AcDbEntity
  8
0
  6
Continuous
 62
     7
370
    15
100
AcDbLine
 10
0.6495298091
 20
16.3185596888
 30
0.0
 11
0.6491003741
 21
16.318311825
 31
0.0
  0
ARC
  5
251
330
1F
100
AcDbEntity
  8
0
  6
Continuous
 62
     7
370
    15
100
AcDbCircle
 10
0.5241005337
 20
16.5348182455
 30
0.0
 40
0.2500000000000012
100
AcDbArc
 50
196.164776386
 51
300.0
  0
ARC
  5
252
330
1F
100
AcDbEntity
  8
0
  6
Continuous
 62
     7
370
    15
100
AcDbCircle
 10
6.046774393
 20
18.1356222446
 30
0.0
 40
6.000000000000004
100
AcDbArc
 50
103.835223614
 51
196.164776386
  0
ARC
  5
253
330
1F
100
AcDbEntity
  8
0
  6
Continuous
 62
     7
370
    15
100
AcDbCircle
 10
4.671774393
 20
23.7188001031
 30
0.0
 40
0.2500000000000044
100
AcDbArc
 50
0.0
 51
103.835223614
  0
LINE
  5
254
330
1F
100
AcDbEntity
  8
0
  6
Continuous
 62
     7
370
    15
100
AcDbLine
 10
4.9217744158
 20
23.7187998806
 30
0.0
 11
4.9217744158
 21
23.7183047396
 31
0.0
  0
ARC
  5
255
330
1F
100
AcDbEntity
  8
0
  6
Continuous
 62
     7
370
    15
100
AcDbCircle
 10
5.171774393
 20
23.7183044965
 30
0.0
 40
0.25
100
AcDbArc
 50
180.0
 51
248.7480671539
  0
ARC
  5
256
330
1F
100
AcDbEntity
  8
0
  6
Continuous
 62
     7
370
    15
100
AcDbCircle
 10
4.9905396536
 20
23.2523066755
 30
0.0
 40
0.2500000000000053
100
AcDbArc
 50
344.9501626076
 51
68.7480671539
  0
ARC
  5
257
330
1F
100
AcDbEntity
  8
0
  6
Continuous
 62
     7
370
    15
100
AcDbCircle
 10
6.046774393
 20
22.9683044965
 30
0.0
 40
0.8437499999999999
100
AcDbArc
 50
164.9501626076
 51
15.0498373924
  0
ARC
  5
258
330
1F
100
AcDbEntity
  8
0
  6
Continuous
 62
     7
370
    15
100
AcDbCircle
 10
7.1030091325
 20
23.2523066755
 30
0.0
 40
0.2500000000000003
100
AcDbArc
 50
111.2519328461
 51
195.0498373924
  0
ARC
  5
259
330
1F
100
AcDbEntity
  8
0
  6
Continuous
 62
     7
370
    15
100
AcDbCircle
 10
6.921774393
 20
23.7183044965
 30
0.0
 40
0.25
100
AcDbArc
 50
291.2519328461
 51
0.0
  0
LINE
  5
25A
330
1F
100
AcDbEntity
  8
0
  6
Continuous
 62
     7
370
    15
100
AcDbLine
 10
7.0467743809
 20
15.3856223328
 30
0.0
 11
7.5467744116
 21
15.3856223328
 31
0.0
  0
LINE
  5
25B
330
1F
100
AcDbEntity
  8
0
  6
Continuous
 62
     7
370
    15
100
AcDbLine
 10
7.0467743809
 20
15.1356222075
 30
0.0
 11
7.0467743809
 21
15.3856223328
 31
0.0
  0
LINE
  5
25C
330
1F
100
AcDbEntity
  8
0
  6
Continuous
 62
     7
370
    15
100
AcDbLine
 10
7.5467744116
 20
15.1356222075
 30
0.0
 11
7.0467743809
 21
15.1356222075
 31
0.0
  0
LINE
  5
25D
330
1F
100
AcDbEntity
  8
0
  6
Continuous
 62
     7
370
    15
100
AcDbLine
 10
7.5467744116
 20
15.3856223328
 30
0.0
 11
7.5467744116
 21
15.1356222075
 31
0.0
  0
LINE
  5
25E
330
1F
100
AcDbEntity
  8
0
  6
Continuous
 62
     7
370
    15
100
AcDbLine
 10
4.5467743745
 20
15.1356222075
 30
0.0
 11
4.5467743745
 21
15.3856223328
 31
0.0
  0
LINE
  5
25F
330
1F
100
AcDbEntity
  8
0
  6
Continuous
 62
     7
370
    15
100
AcDbLine
 10
5.0467744051
 20
15.1356222075
 30
0.0
 11
4.5467743745
 21
15.1356222075
 31
0.0
  0
LINE
  5
260
330
1F
100
AcDbEntity
  8
0
  6
Continuous
 62
     7
370
    15
100
AcDbLine
 10
5.0467744051
 20
15.3856223328
 30
0.0
 11
5.0467744051
 21
15.1356222075
 31
0.0
  0
LINE
  5
261
330
1F
100
AcDbEntity
  8
0
  6
Continuous
 62
     7
370
    15
100
AcDbLine
 10
4.5467743745
 20
15.3856223328
 30
0.0
 11
5.0467744051
 21
15.3856223328
 31
0.0
  0
CIRCLE
  5
262
330
1F
100
AcDbEntity
  8
0
  6
Continuous
 62
     7
370
    15
100
AcDbCircle
 10
6.046774393
 20
15.2606222446
 30
0.0
 40
0.0825000000000005
  0
ARC
  5
263
330
1F
100
AcDbEntity
  8
0
  6
Continuous
 62
     7
370
    15
100
AcDbCircle
 10
6.046774393
 20
18.1356222446
 30
0.0
 40
6.000000000000004
100
AcDbArc
 50
343.835223614
 51
76.164776386
  0
ARC
  5
264
330
1F
100
AcDbEntity
  8
0
  6
Continuous
 62
     7
370
    15
100
AcDbCircle
 10
6.046774393
 20
18.1356222446
 30
0.0
 40
6.000000000000001
100
AcDbArc
 50
223.835223614
 51
237.0792654719
  0
ARC
  5
265
330
1F
100
AcDbEntity
  8
0
  6
Continuous
 62
     7
370
    15
100
AcDbCircle
 10
11.9572331414
 20
15.7453901721
 30
0.0
 40
0.3500000000000018
100
AcDbArc
 50
180.0
 51
247.619864948
  0
LINE
  5
266
330
1F
100
AcDbEntity
  8
0
  6
Continuous
 62
     7
370
    15
100
AcDbLine
 10
11.8239707464
 20
15.4217528595
 30
0.0
 11
12.5081144091
 21
15.140046679
 31
0.0
  0
ARC
  5
267
330
1F
100
AcDbEntity
  8
0
  6
Continuous
 62
     7
370
    15
100
AcDbCircle
 10
12.6413768089
 20
15.4636839561
 30
0.0
 40
0.3500000000000025
100
AcDbArc
 50
247.619864948
 51
315.0
  0
LINE
  5
268
330
1F
100
AcDbEntity
  8
0
  6
Continuous
 62
     7
370
    15
100
AcDbLine
 10
12.8888641539
 20
15.2161965658
 30
0.0
 11
14.1793340749
 21
16.5066664868
 31
0.0
  0
ARC
  5
269
330
1F
100
AcDbEntity
  8
0
  6
Continuous
 62
     7
370
    15
100
AcDbCircle
 10
13.9318466846
 20
16.7541538317
 30
0.0
 40
0.3499999999999993
100
AcDbArc
 50
315.0
 51
22.380135052
  0
LINE
  5
26A
330
1F
100
AcDbEntity
  8
0
  6
Continuous
 62
     7
370
    15
100
AcDbLine
 10
14.2554839616
 20
16.8874162316
 30
0.0
 11
13.9737777811
 21
17.5715598943
 31
0.0
  0
ARC
  5
26B
330
1F
100
AcDbEntity
  8
0
  6
Continuous
 62
     7
370
    15
100
AcDbCircle
 10
13.6501404686
 20
17.4382974992
 30
0.0
 40
0.3500000000000014
100
AcDbArc
 50
22.380135052
 51
90.0
  0
LINE
  5
26C
330
1F
100
AcDbEntity
  8
0
  6
Continuous
 62
     7
370
    15
100
AcDbLine
 10
13.6501404903
 20
17.7882974701
 30
0.0
 11
13.6260408725
 21
17.7882974701
 31
0.0
  0
ARC
  5
26D
330
1F
100
AcDbEntity
  8
0
  6
Continuous
 62
     7
370
    15
100
AcDbCircle
 10
13.6260408584
 20
18.1382974992
 30
0.0
 40
0.3499999999999979
100
AcDbArc
 50
225.0
 51
270.0
  0
LINE
  5
26E
330
1F
100
AcDbEntity
  8
0
  6
Continuous
 62
     7
370
    15
100
AcDbLine
 10
13.3785534684
 20
17.8908100861
 30
0.0
 11
12.9507360438
 21
18.3186275106
 31
0.0
  0
LINE
  5
26F
330
1F
100
AcDbEntity
  8
0
  6
Continuous
 62
     7
370
    15
100
AcDbLine
 10
13.1918594709
 20
18.5597509377
 30
0.0
 11
12.9507360438
 21
18.3186275106
 31
0.0
  0
LINE
  5
270
330
1F
100
AcDbEntity
  8
0
  6
Continuous
 62
     7
370
    15
100
AcDbLine
 10
13.1918594709
 20
18.5597509377
 30
0.0
 11
13.4358112169
 21
18.3157991916
 31
0.0
  0
LINE
  5
271
330
1F
100
AcDbEntity
  8
0
  6
Continuous
 62
     7
370
    15
100
AcDbLine
 10
13.4358112169
 20
18.3157991916
 30
0.0
 11
13.3714644701
 21
18.2514524448
 31
0.0
  0
LINE
  5
272
330
1F
100
AcDbEntity
  8
0
  6
Continuous
 62
     7
370
    15
100
AcDbLine
 10
13.3714644701
 20
18.2514524448
 30
0.0
 11
13.459852862
 21
18.1630640528
 31
0.0
  0
LINE
  5
273
330
1F
100
AcDbEntity
  8
0
  6
Continuous
 62
     7
370
    15
100
AcDbLine
 10
13.459852862
 20
18.1630640528
 30
0.0
 11
13.5241996089
 21
18.2274107997
 31
0.0
  0
LINE
  5
274
330
1F
100
AcDbEntity
  8
0
  6
Continuous
 62
     7
370
    15
100
AcDbLine
 10
13.5241996089
 20
18.2274107997
 30
0.0
 11
13.6161235033
 21
18.1354869052
 31
0.0
  0
LINE
  5
275
330
1F
100
AcDbEntity
  8
0
  6
Continuous
 62
     7
370
    15
100
AcDbLine
 10
13.6161235033
 20
18.1354869052
 30
0.0
 11
13.7349174656
 21
18.2542808675
 31
0.0
  0
LINE
  5
276
330
1F
100
AcDbEntity
  8
0
  6
Continuous
 62
     7
370
    15
100
AcDbLine
 10
13.7349174656
 20
18.2542808675
 30
0.0
 11
13.6429935712
 21
18.3462047619
 31
0.0
  0
LINE
  5
277
330
1F
100
AcDbEntity
  8
0
  6
Continuous
 62
     7
370
    15
100
AcDbLine
 10
13.6429935712
 20
18.3462047619
 30
0.0
 11
13.707340318
 21
18.4105515088
 31
0.0
  0
LINE
  5
278
330
1F
100
AcDbEntity
  8
0
  6
Continuous
 62
     7
370
    15
100
AcDbLine
 10
13.707340318
 20
18.4105515088
 30
0.0
 11
13.6189519261
 21
18.4989399007
 31
0.0
  0
LINE
  5
279
330
1F
100
AcDbEntity
  8
0
  6
Continuous
 62
     7
370
    15
100
AcDbLine
 10
13.6189519261
 20
18.4989399007
 30
0.0
 11
13.5546051792
 21
18.4345931539
 31
0.0
  0
LINE
  5
27A
330
1F
100
AcDbEntity
  8
0
  6
Continuous
 62
     7
370
    15
100
AcDbLine
 10
13.5546051792
 20
18.4345931539
 30
0.0
 11
13.3106534331
 21
18.6785449
 31
0.0
  0
LINE
  5
27B
330
1F
100
AcDbEntity
  8
0
  6
Continuous
 62
     7
370
    15
100
AcDbLine
 10
13.4280331322
 20
18.795924599
 30
0.0
 11
13.3106534331
 21
18.6785449
 31
0.0
  0
LINE
  5
27C
330
1F
100
AcDbEntity
  8
0
  6
Continuous
 62
     7
370
    15
100
AcDbLine
 10
13.2512563483
 20
18.9727013829
 30
0.0
 11
13.4280331322
 21
18.795924599
 31
0.0
  0
LINE
  5
27D
330
1F
100
AcDbEntity
  8
0
  6
Continuous
 62
     7
370
    15
100
AcDbLine
 10
13.6048098124
 20
19.326254847
 30
0.0
 11
13.2512563483
 21
18.9727013829
 31
0.0
  0
LINE
  5
27E
330
1F
100
AcDbEntity
  8
0
  6
Continuous
 62
     7
370
    15
100
AcDbLine
 10
13.7815865963
 20
19.1494780631
 30
0.0
 11
13.6048098124
 21
19.326254847
 31
0.0
  0
LINE
  5
27F
330
1F
100
AcDbEntity
  8
0
  6
Continuous
 62
     7
370
    15
100
AcDbLine
 10
13.9583631728
 20
19.3262546396
 30
0.0
 11
13.7815865963
 21
19.1494780631
 31
0.0
  0
LINE
  5
280
330
1F
100
AcDbEntity
  8
0
  6
Continuous
 62
     7
370
    15
100
AcDbLine
 10
14.135139853
 20
19.1494779594
 30
0.0
 11
13.9583631728
 21
19.3262546396
 31
0.0
  0
LINE
  5
281
330
1F
100
AcDbEntity
  8
0
  6
Continuous
 62
     7
370
    15
100
AcDbLine
 10
14.135139853
 20
19.1494779594
 30
0.0
 11
15.3725767181
 21
16.1442742924
 31
0.0
  0
LINE
  5
282
330
1F
100
AcDbEntity
  8
0
  6
Continuous
 62
     7
370
    15
100
AcDbLine
 10
15.1958000379
 20
15.9674976122
 30
0.0
 11
15.3725767181
 21
16.1442742924
 31
0.0
  0
LINE
  5
283
330
1F
100
AcDbEntity
  8
0
  6
Continuous
 62
     7
370
    15
100
AcDbLine
 10
15.3725768218
 20
15.7907208283
 30
0.0
 11
15.1958000379
 21
15.9674976122
 31
0.0
  0
LINE
  5
284
330
1F
100
AcDbEntity
  8
0
  6
Continuous
 62
     7
370
    15
100
AcDbLine
 10
15.0190234095
 20
15.437167416
 30
0.0
 11
15.3725768218
 21
15.7907208283
 31
0.0
  0
LINE
  5
285
330
1F
100
AcDbEntity
  8
0
  6
Continuous
 62
     7
370
    15
100
AcDbLine
 10
14.8422466256
 20
15.6139441999
 30
0.0
 11
15.0190234095
 21
15.437167416
 31
0.0
  0
LINE
  5
286
330
1F
100
AcDbEntity
  8
0
  6
Continuous
 62
     7
370
    15
100
AcDbLine
 10
14.3713135014
 20
15.1430110757
 30
0.0
 11
14.8422466256
 21
15.6139441999
 31
0.0
  0
LINE
  5
287
330
1F
100
AcDbEntity
  8
0
  6
Continuous
 62
     7
370
    15
100
AcDbLine
 10
14.1273617553
 20
15.3869628217
 30
0.0
 11
14.3713135014
 21
15.1430110757
 31
0.0
  0
LINE
  5
288
330
1F
100
AcDbEntity
  8
0
  6
Continuous
 62
     7
370
    15
100
AcDbLine
 10
14.1917084762
 20
15.4513095427
 30
0.0
 11
14.1273617553
 21
15.3869628217
 31
0.0
  0
LINE
  5
289
330
1F
100
AcDbEntity
  8
0
  6
Continuous
 62
     7
370
    15
100
AcDbLine
 10
14.1033200843
 20
15.5396979346
 30
0.0
 11
14.1917084762
 21
15.4513095427
 31
0.0
  0
LINE
  5
28A
330
1F
100
AcDbEntity
  8
0
  6
Continuous
 62
     7
370
    15
100
AcDbLine
 10
14.0389733633
 20
15.4753512137
 30
0.0
 11
14.1033200843
 21
15.5396979346
 31
0.0
  0
LINE
  5
28B
330
1F
100
AcDbEntity
  8
0
  6
Continuous
 62
     7
370
    15
100
AcDbLine
 10
13.9470494689
 20
15.5672751081
 30
0.0
 11
14.0389733633
 21
15.4753512137
 31
0.0
  0
LINE
  5
28C
330
1F
100
AcDbEntity
  8
0
  6
Continuous
 62
     7
370
    15
100
AcDbLine
 10
13.8282555325
 20
15.4484811718
 30
0.0
 11
13.9470494689
 21
15.5672751081
 31
0.0
  0
LINE
  5
28D
330
1F
100
AcDbEntity
  8
0
  6
Continuous
 62
     7
370
    15
100
AcDbLine
 10
13.920179427
 20
15.3565572773
 30
0.0
 11
13.8282555325
 21
15.4484811718
 31
0.0
  0
LINE
  5
28E
330
1F
100
AcDbEntity
  8
0
  6
Continuous
 62
     7
370
    15
100
AcDbLine
 10
13.855832706
 20
15.2922105564
 30
0.0
 11
13.920179427
 21
15.3565572773
 31
0.0
  0
LINE
  5
28F
330
1F
100
AcDbEntity
  8
0
  6
Continuous
 62
     7
370
    15
100
AcDbLine
 10
13.944221098
 20
15.2038221645
 30
0.0
 11
13.855832706
 21
15.2922105564
 31
0.0
  0
LINE
  5
290
330
1F
100
AcDbEntity
  8
0
  6
Continuous
 62
     7
370
    15
100
AcDbLine
 10
14.0085678189
 20
15.2681688854
 30
0.0
 11
13.944221098
 21
15.2038221645
 31
0.0
  0
LINE
  5
291
330
1F
100
AcDbEntity
  8
0
  6
Continuous
 62
     7
370
    15
100
AcDbLine
 10
14.252519565
 20
15.0242171393
 30
0.0
 11
14.0085678189
 21
15.2681688854
 31
0.0
  0
LINE
  5
292
330
1F
100
AcDbEntity
  8
0
  6
Continuous
 62
     7
370
    15
100
AcDbLine
 10
13.7815864407
 20
14.553284015
 30
0.0
 11
13.9583632246
 21
14.3765072311
 31
0.0
  0
LINE
  5
293
330
1F
100
AcDbEntity
  8
0
  6
Continuous
 62
     7
370
    15
100
AcDbLine
 10
13.9583632246
 20
14.3765072311
 30
0.0
 11
13.6048098124
 21
14.0229538189
 31
0.0
  0
LINE
  5
294
330
1F
100
AcDbEntity
  8
0
  6
Continuous
 62
     7
370
    15
100
AcDbLine
 10
13.6048098124
 20
14.0229538189
 30
0.0
 11
13.4280330285
 21
14.1997306028
 31
0.0
  0
LINE
  5
295
330
1F
100
AcDbEntity
  8
0
  6
Continuous
 62
     7
370
    15
100
AcDbLine
 10
13.2512563483
 20
14.0229539226
 30
0.0
 11
13.4280330285
 21
14.1997306028
 31
0.0
  0
LINE
  5
296
330
1F
100
AcDbEntity
  8
0
  6
Continuous
 62
     7
370
    15
100
AcDbLine
 10
10.2460526812
 20
15.2603907877
 30
0.0
 11
13.2512563483
 21
14.0229539226
 31
0.0
  0
LINE
  5
297
330
1F
100
AcDbEntity
  8
0
  6
Continuous
 62
     7
370
    15
100
AcDbLine
 10
10.069276001
 20
15.4371674679
 30
0.0
 11
10.2460526812
 21
15.2603907877
 31
0.0
  0
LINE
  5
298
330
1F
100
AcDbEntity
  8
0
  6
Continuous
 62
     7
370
    15
100
AcDbLine
 10
10.2460525775
 20
15.6139440444
 30
0.0
 11
10.0692757936
 21
15.7907208283
 31
0.0
  0
LINE
  5
299
330
1F
100
AcDbEntity
  8
0
  6
Continuous
 62
     7
370
    15
100
AcDbLine
 10
10.0692757936
 20
15.7907208283
 30
0.0
 11
10.4228292577
 21
16.1442742924
 31
0.0
  0
LINE
  5
29A
330
1F
100
AcDbEntity
  8
0
  6
Continuous
 62
     7
370
    15
100
AcDbLine
 10
10.4228292577
 20
16.1442742924
 30
0.0
 11
10.5996060416
 21
15.9674975085
 31
0.0
  0
LINE
  5
29B
330
1F
100
AcDbEntity
  8
0
  6
Continuous
 62
     7
370
    15
100
AcDbLine
 10
10.7169857407
 20
16.0848772075
 30
0.0
 11
10.5996060416
 21
15.9674975085
 31
0.0
  0
LINE
  5
29C
330
1F
100
AcDbEntity
  8
0
  6
Continuous
 62
     7
370
    15
100
AcDbLine
 10
10.9609374868
 20
15.8409254614
 30
0.0
 11
10.7169857407
 21
16.0848772075
 31
0.0
  0
LINE
  5
29D
330
1F
100
AcDbEntity
  8
0
  6
Continuous
 62
     7
370
    15
100
AcDbLine
 10
10.8965907399
 20
15.7765787146
 30
0.0
 11
10.9609374868
 21
15.8409254614
 31
0.0
  0
LINE
  5
29E
330
1F
100
AcDbEntity
  8
0
  6
Continuous
 62
     7
370
    15
100
AcDbLine
 10
10.9849791319
 20
15.6881903226
 30
0.0
 11
10.8965907399
 21
15.7765787146
 31
0.0
  0
LINE
  5
29F
330
1F
100
AcDbEntity
  8
0
  6
Continuous
 62
     7
370
    15
100
AcDbLine
 10
11.0493258787
 20
15.7525370695
 30
0.0
 11
10.9849791319
 21
15.6881903226
 31
0.0
  0
LINE
  5
2A0
330
1F
100
AcDbEntity
  8
0
  6
Continuous
 62
     7
370
    15
100
AcDbLine
 10
11.1412497732
 20
15.6606131751
 30
0.0
 11
11.0493258787
 21
15.7525370695
 31
0.0
  0
LINE
  5
2A1
330
1F
100
AcDbEntity
  8
0
  6
Continuous
 62
     7
370
    15
100
AcDbLine
 10
11.2600437354
 20
15.7794071373
 30
0.0
 11
11.1412497732
 21
15.6606131751
 31
0.0
  0
LINE
  5
2A2
330
1F
100
AcDbEntity
  8
0
  6
Continuous
 62
     7
370
    15
100
AcDbLine
 10
11.168119841
 20
15.8713310318
 30
0.0
 11
11.2600437354
 21
15.7794071373
 31
0.0
  0
LINE
  5
2A3
330
1F
100
AcDbEntity
  8
0
  6
Continuous
 62
     7
370
    15
100
AcDbLine
 10
11.2324665878
 20
15.9356777786
 30
0.0
 11
11.168119841
 21
15.8713310318
 31
0.0
  0
LINE
  5
2A4
330
1F
100
AcDbEntity
  8
0
  6
Continuous
 62
     7
370
    15
100
AcDbLine
 10
11.1440781959
 20
16.0240661706
 30
0.0
 11
11.2324665878
 21
15.9356777786
 31
0.0
  0
LINE
  5
2A5
330
1F
100
AcDbEntity
  8
0
  6
Continuous
 62
     7
370
    15
100
AcDbLine
 10
11.079731449
 20
15.9597194237
 30
0.0
 11
11.1440781959
 21
16.0240661706
 31
0.0
  0
LINE
  5
2A6
330
1F
100
AcDbEntity
  8
0
  6
Continuous
 62
     7
370
    15
100
AcDbLine
 10
10.835779703
 20
16.2036711698
 30
0.0
 11
11.079731449
 21
15.9597194237
 31
0.0
  0
LINE
  5
2A7
330
1F
100
AcDbEntity
  8
0
  6
Continuous
 62
     7
370
    15
100
AcDbLine
 10
11.07690313
 20
16.4447945969
 30
0.0
 11
10.835779703
 21
16.2036711698
 31
0.0
  0
LINE
  5
2A8
330
1F
100
AcDbEntity
  8
0
  6
Continuous
 62
     7
370
    15
100
AcDbLine
 10
11.07690313
 20
16.4447945969
 30
0.0
 11
11.5047205546
 21
16.0169771723
 31
0.0
  0
ARC
  5
2A9
330
1F
100
AcDbEntity
  8
0
  6
Continuous
 62
     7
370
    15
100
AcDbCircle
 10
11.2572331414
 20
15.7694897822
 30
0.0
 40
0.3500000000000018
100
AcDbArc
 50
0.0
 51
45.0
  0
LINE
  5
2AA
330
1F
100
AcDbEntity
  8
0
  6
Continuous
 62
     7
370
    15
100
AcDbLine
 10
11.6072331706
 20
15.7694897682
 30
0.0
 11
11.6072331706
 21
15.7453901504
 31
0.0
  0
LINE
  5
2AB
330
1F
100
AcDbEntity
  8
0
  6
Continuous
 62
     7
370
    15
100
AcDbLine
 10
13.7815864407
 20
14.553284015
 30
0.0
 11
14.252519565
 21
15.0242171393
 31
0.0
  0
LINE
  5
2AC
330
1F
100
AcDbEntity
  8
0
  6
Continuous
 62
     7
370
    15
100
AcDbLine
 10
10.2460525775
 20
15.6139440444
 30
0.0
 11
10.069276001
 21
15.4371674679
 31
0.0
  0
LINE
  5
2AD
330
1F
100
AcDbEntity
  8
0
  6
Continuous
 62
     7
370
    15
100
AcDbLine
 10
12.3621383311
 20
20.4636477881
 30
0.0
 11
12.3621383311
 21
20.2136477881
 31
0.0
  0
LINE
  5
2AE
330
1F
100
AcDbEntity
  8
0
  6
Continuous
 62
     7
370
    15
100
AcDbLine
 10
12.3621383311
 20
20.2136477881
 30
0.0
 11
11.8621383311
 21
20.2136477881
 31
0.0
  0
LINE
  5
2AF
330
1F
100
AcDbEntity
  8
0
  6
Continuous
 62
     7
370
    15
100
AcDbLine
 10
11.8621383311
 20
20.2136477881
 30
0.0
 11
11.8621383311
 21
20.4636477881
 31
0.0
  0
LINE
  5
2B0
330
1F
100
AcDbEntity
  8
0
  6
Continuous
 62
     7
370
    15
100
AcDbLine
 10
11.6121383311
 20
20.4636477881
 30
0.0
 11
11.8621383311
 21
20.4636477881
 31
0.0
  0
LINE
  5
2B1
330
1F
100
AcDbEntity
  8
0
  6
Continuous
 62
     7
370
    15
100
AcDbLine
 10
10.3621383311
 20
23.4636477881
 30
0.0
 11
11.6121383311
 21
20.4636477881
 31
0.0
  0
LINE
  5
2B2
330
1F
100
AcDbEntity
  8
0
  6
Continuous
 62
     7
370
    15
100
AcDbLine
 10
10.3621383311
 20
23.7136477881
 30
0.0
 11
10.3621383311
 21
23.4636477881
 31
0.0
  0
LINE
  5
2B3
330
1F
100
AcDbEntity
  8
0
  6
Continuous
 62
     7
370
    15
100
AcDbLine
 10
10.6121383311
 20
23.7136477881
 30
0.0
 11
10.3621383311
 21
23.7136477881
 31
0.0
  0
LINE
  5
2B4
330
1F
100
AcDbEntity
  8
0
  6
Continuous
 62
     7
370
    15
100
AcDbLine
 10
10.6121383311
 20
23.7136477881
 30
0.0
 11
10.6121383311
 21
23.9636477881
 31
0.0
  0
LINE
  5
2B5
330
1F
100
AcDbEntity
  8
0
  6
Continuous
 62
     7
370
    15
100
AcDbLine
 10
10.6121383311
 20
23.9636477881
 30
0.0
 11
11.1121383311
 21
23.9636477881
 31
0.0
  0
LINE
  5
2B6
330
1F
100
AcDbEntity
  8
0
  6
Continuous
 62
     7
370
    15
100
AcDbLine
 10
11.1121383311
 20
23.9636477881
 30
0.0
 11
11.1121383311
 21
23.7136477881
 31
0.0
  0
LINE
  5
2B7
330
1F
100
AcDbEntity
  8
0
  6
Continuous
 62
     7
370
    15
100
AcDbLine
 10
11.2781383311
 20
23.7136477881
 30
0.0
 11
11.1121383311
 21
23.7136477881
 31
0.0
  0
LINE
  5
2B8
330
1F
100
AcDbEntity
  8
0
  6
Continuous
 62
     7
370
    15
100
AcDbLine
 10
11.2781383311
 20
23.3686477881
 30
0.0
 11
11.2781383311
 21
23.7136477881
 31
0.0
  0
LINE
  5
2B9
330
1F
100
AcDbEntity
  8
0
  6
Continuous
 62
     7
370
    15
100
AcDbLine
 10
11.1871383311
 20
23.3686477881
 30
0.0
 11
11.2781383311
 21
23.3686477881
 31
0.0
  0
LINE
  5
2BA
330
1F
100
AcDbEntity
  8
0
  6
Continuous
 62
     7
370
    15
100
AcDbLine
 10
11.1871383311
 20
23.2436477881
 30
0.0
 11
11.1871383311
 21
23.3686477881
 31
0.0
  0
LINE
  5
2BB
330
1F
100
AcDbEntity
  8
0
  6
Continuous
 62
     7
370
    15
100
AcDbLine
 10
11.2781383311
 20
23.2436477881
 30
0.0
 11
11.1871383311
 21
23.2436477881
 31
0.0
  0
LINE
  5
2BC
330
1F
100
AcDbEntity
  8
0
  6
Continuous
 62
     7
370
    15
100
AcDbLine
 10
11.2781383311
 20
23.1136477881
 30
0.0
 11
11.2781383311
 21
23.2436477881
 31
0.0
  0
LINE
  5
2BD
330
1F
100
AcDbEntity
  8
0
  6
Continuous
 62
     7
370
    15
100
AcDbLine
 10
11.4461383311
 20
23.1136477881
 30
0.0
 11
11.2781383311
 21
23.1136477881
 31
0.0
  0
LINE
  5
2BE
330
1F
100
AcDbEntity
  8
0
  6
Continuous
 62
     7
370
    15
100
AcDbLine
 10
11.4461383311
 20
23.2436477881
 30
0.0
 11
11.4461383311
 21
23.1136477881
 31
0.0
  0
LINE
  5
2BF
330
1F
100
AcDbEntity
  8
0
  6
Continuous
 62
     7
370
    15
100
AcDbLine
 10
11.5371383311
 20
23.2436477881
 30
0.0
 11
11.4461383311
 21
23.2436477881
 31
0.0
  0
LINE
  5
2C0
330
1F
100
AcDbEntity
  8
0
  6
Continuous
 62
     7
370
    15
100
AcDbLine
 10
11.5371383311
 20
23.3686477881
 30
0.0
 11
11.5371383311
 21
23.2436477881
 31
0.0
  0
LINE
  5
2C1
330
1F
100
AcDbEntity
  8
0
  6
Continuous
 62
     7
370
    15
100
AcDbLine
 10
11.4461383311
 20
23.3686477881
 30
0.0
 11
11.5371383311
 21
23.3686477881
 31
0.0
  0
LINE
  5
2C2
330
1F
100
AcDbEntity
  8
0
  6
Continuous
 62
     7
370
    15
100
AcDbLine
 10
11.4461383311
 20
23.7136477881
 30
0.0
 11
11.4461383311
 21
23.3686477881
 31
0.0
  0
LINE
  5
2C3
330
1F
100
AcDbEntity
  8
0
  6
Continuous
 62
     7
370
    15
100
AcDbLine
 10
14.7781383311
 20
23.7136477881
 30
0.0
 11
11.4461383311
 21
23.7136477881
 31
0.0
  0
LINE
  5
2C4
330
1F
100
AcDbEntity
  8
0
  6
Continuous
 62
     7
370
    15
100
AcDbLine
 10
14.7781383311
 20
23.7136477881
 30
0.0
 11
14.7781383311
 21
23.3686477881
 31
0.0
  0
LINE
  5
2C5
330
1F
100
AcDbEntity
  8
0
  6
Continuous
 62
     7
370
    15
100
AcDbLine
 10
14.7781383311
 20
23.3686477881
 30
0.0
 11
14.6871383311
 21
23.3686477881
 31
0.0
  0
LINE
  5
2C6
330
1F
100
AcDbEntity
  8
0
  6
Continuous
 62
     7
370
    15
100
AcDbLine
 10
14.6871383311
 20
23.3686477881
 30
0.0
 11
14.6871383311
 21
23.2436477881
 31
0.0
  0
LINE
  5
2C7
330
1F
100
AcDbEntity
  8
0
  6
Continuous
 62
     7
370
    15
100
AcDbLine
 10
14.6871383311
 20
23.2436477881
 30
0.0
 11
14.7781383311
 21
23.2436477881
 31
0.0
  0
LINE
  5
2C8
330
1F
100
AcDbEntity
  8
0
  6
Continuous
 62
     7
370
    15
100
AcDbLine
 10
14.7781383311
 20
23.2436477881
 30
0.0
 11
14.7781383311
 21
23.1136477881
 31
0.0
  0
LINE
  5
2C9
330
1F
100
AcDbEntity
  8
0
  6
Continuous
 62
     7
370
    15
100
AcDbLine
 10
14.7781383311
 20
23.1136477881
 30
0.0
 11
14.9461383311
 21
23.1136477881
 31
0.0
  0
LINE
  5
2CA
330
1F
100
AcDbEntity
  8
0
  6
Continuous
 62
     7
370
    15
100
AcDbLine
 10
14.9461383311
 20
23.1136477881
 30
0.0
 11
14.9461383311
 21
23.2436477881
 31
0.0
  0
LINE
  5
2CB
330
1F
100
AcDbEntity
  8
0
  6
Continuous
 62
     7
370
    15
100
AcDbLine
 10
14.9461383311
 20
23.2436477881
 30
0.0
 11
15.0371383311
 21
23.2436477881
 31
0.0
  0
LINE
  5
2CC
330
1F
100
AcDbEntity
  8
0
  6
Continuous
 62
     7
370
    15
100
AcDbLine
 10
15.0371383311
 20
23.2436477881
 30
0.0
 11
15.0371383311
 21
23.3686477881
 31
0.0
  0
LINE
  5
2CD
330
1F
100
AcDbEntity
  8
0
  6
Continuous
 62
     7
370
    15
100
AcDbLine
 10
15.0371383311
 20
23.3686477881
 30
0.0
 11
14.9461383311
 21
23.3686477881
 31
0.0
  0
LINE
  5
2CE
330
1F
100
AcDbEntity
  8
0
  6
Continuous
 62
     7
370
    15
100
AcDbLine
 10
14.9461383311
 20
23.3686477881
 30
0.0
 11
14.9461383311
 21
23.7136477881
 31
0.0
  0
LINE
  5
2CF
330
1F
100
AcDbEntity
  8
0
  6
Continuous
 62
     7
370
    15
100
AcDbLine
 10
15.1121383311
 20
23.7136477881
 30
0.0
 11
14.9461383311
 21
23.7136477881
 31
0.0
  0
LINE
  5
2D0
330
1F
100
AcDbEntity
  8
0
  6
Continuous
 62
     7
370
    15
100
AcDbLine
 10
15.1121383311
 20
23.9636477881
 30
0.0
 11
15.1121383311
 21
23.7136477881
 31
0.0
  0
LINE
  5
2D1
330
1F
100
AcDbEntity
  8
0
  6
Continuous
 62
     7
370
    15
100
AcDbLine
 10
15.6121383311
 20
23.9636477881
 30
0.0
 11
15.1121383311
 21
23.9636477881
 31
0.0
  0
LINE
  5
2D2
330
1F
100
AcDbEntity
  8
0
  6
Continuous
 62
     7
370
    15
100
AcDbLine
 10
15.6121383311
 20
23.7136477881
 30
0.0
 11
15.6121383311
 21
23.9636477881
 31
0.0
  0
LINE
  5
2D3
330
1F
100
AcDbEntity
  8
0
  6
Continuous
 62
     7
370
    15
100
AcDbLine
 10
15.8621383311
 20
23.7136477881
 30
0.0
 11
15.6121383311
 21
23.7136477881
 31
0.0
  0
LINE
  5
2D4
330
1F
100
AcDbEntity
  8
0
  6
Continuous
 62
     7
370
    15
100
AcDbLine
 10
15.8621383311
 20
23.4636477881
 30
0.0
 11
15.8621383311
 21
23.7136477881
 31
0.0
  0
LINE
  5
2D5
330
1F
100
AcDbEntity
  8
0
  6
Continuous
 62
     7
370
    15
100
AcDbLine
 10
15.8621383311
 20
23.4636477881
 30
0.0
 11
14.6121383311
 21
20.4636477881
 31
0.0
  0
LINE
  5
2D6
330
1F
100
AcDbEntity
  8
0
  6
Continuous
 62
     7
370
    15
100
AcDbLine
 10
14.3621383311
 20
20.4636477881
 30
0.0
 11
14.6121383311
 21
20.4636477881
 31
0.0
  0
LINE
  5
2D7
330
1F
100
AcDbEntity
  8
0
  6
Continuous
 62
     7
370
    15
100
AcDbLine
 10
14.3621383311
 20
20.2136477881
 30
0.0
 11
14.3621383311
 21
20.4636477881
 31
0.0
  0
LINE
  5
2D8
330
1F
100
AcDbEntity
  8
0
  6
Continuous
 62
     7
370
    15
100
AcDbLine
 10
13.8621383311
 20
20.2136477881
 30
0.0
 11
14.3621383311
 21
20.2136477881
 31
0.0
  0
LINE
  5
2D9
330
1F
100
AcDbEntity
  8
0
  6
Continuous
 62
     7
370
    15
100
AcDbLine
 10
13.8621383311
 20
20.4636477881
 30
0.0
 11
13.8621383311
 21
20.2136477881
 31
0.0
  0
LINE
  5
2DA
330
1F
100
AcDbEntity
  8
0
  6
Continuous
 62
     7
370
    15
100
AcDbLine
 10
13.1956383311
 20
20.4636477881
 30
0.0
 11
13.8621383311
 21
20.4636477881
 31
0.0
  0
LINE
  5
2DB
330
1F
100
AcDbEntity
  8
0
  6
Continuous
 62
     7
370
    15
100
AcDbLine
 10
13.1956383311
 20
20.8086477881
 30
0.0
 11
13.1956383311
 21
20.4636477881
 31
0.0
  0
LINE
  5
2DC
330
1F
100
AcDbEntity
  8
0
  6
Continuous
 62
     7
370
    15
100
AcDbLine
 10
13.2871383311
 20
20.8086477881
 30
0.0
 11
13.1956383311
 21
20.8086477881
 31
0.0
  0
LINE
  5
2DD
330
1F
100
AcDbEntity
  8
0
  6
Continuous
 62
     7
370
    15
100
AcDbLine
 10
13.2871383311
 20
20.9336477881
 30
0.0
 11
13.2871383311
 21
20.8086477881
 31
0.0
  0
LINE
  5
2DE
330
1F
100
AcDbEntity
  8
0
  6
Continuous
 62
     7
370
    15
100
AcDbLine
 10
13.1956383311
 20
20.9336477881
 30
0.0
 11
13.2871383311
 21
20.9336477881
 31
0.0
  0
LINE
  5
2DF
330
1F
100
AcDbEntity
  8
0
  6
Continuous
 62
     7
370
    15
100
AcDbLine
 10
13.1956383311
 20
21.0636477881
 30
0.0
 11
13.1956383311
 21
20.9336477881
 31
0.0
  0
LINE
  5
2E0
330
1F
100
AcDbEntity
  8
0
  6
Continuous
 62
     7
370
    15
100
AcDbLine
 10
13.0286383311
 20
21.0636477881
 30
0.0
 11
13.1956383311
 21
21.0636477881
 31
0.0
  0
LINE
  5
2E1
330
1F
100
AcDbEntity
  8
0
  6
Continuous
 62
     7
370
    15
100
AcDbLine
 10
13.0286383311
 20
20.9336477881
 30
0.0
 11
13.0286383311
 21
21.0636477881
 31
0.0
  0
LINE
  5
2E2
330
1F
100
AcDbEntity
  8
0
  6
Continuous
 62
     7
370
    15
100
AcDbLine
 10
12.9371383311
 20
20.9336477881
 30
0.0
 11
13.0286383311
 21
20.9336477881
 31
0.0
  0
LINE
  5
2E3
330
1F
100
AcDbEntity
  8
0
  6
Continuous
 62
     7
370
    15
100
AcDbLine
 10
12.9371383311
 20
20.8086477881
 30
0.0
 11
12.9371383311
 21
20.9336477881
 31
0.0
  0
LINE
  5
2E4
330
1F
100
AcDbEntity
  8
0
  6
Continuous
 62
     7
370
    15
100
AcDbLine
 10
13.0286383311
 20
20.8086477881
 30
0.0
 11
12.9371383311
 21
20.8086477881
 31
0.0
  0
LINE
  5
2E5
330
1F
100
AcDbEntity
  8
0
  6
Continuous
 62
     7
370
    15
100
AcDbLine
 10
13.0286383311
 20
20.4636477881
 30
0.0
 11
13.0286383311
 21
20.8086477881
 31
0.0
  0
CIRCLE
  5
2E6
330
1F
100
AcDbEntity
  8
0
  6
Continuous
 62
     7
370
    15
100
AcDbCircle
 10
13.1121383311
 20
23.1398288904
 30
0.0
 40
0.2462204724409442
  0
CIRCLE
  5
2E7
330
1F
100
AcDbEntity
  8
0
  6
Continuous
 62
     7
370
    15
100
AcDbCircle
 10
12.5019021106
 20
22.8642383392
 30
0.0
 40
0.0592125984251979
  0
CIRCLE
  5
2E8
330
1F
100
AcDbEntity
  8
0
  6
Continuous
 62
     7
370
    15
100
AcDbCircle
 10
12.8070202208
 20
22.33575827
 30
0.0
 40
0.0592125984251979
  0
CIRCLE
  5
2E9
330
1F
100
AcDbEntity
  8
0
  6
Continuous
 62
     7
370
    15
100
AcDbCircle
 10
13.4172564413
 20
22.33575827
 30
0.0
 40
0.0592125984251961
  0
CIRCLE
  5
2EA
330
1F
100
AcDbEntity
  8
0
  6
Continuous
 62
     7
370
    15
100
AcDbCircle
 10
13.7223745516
 20
22.8642383392
 30
0.0
 40
0.0592125984251943
  0
CIRCLE
  5
2EB
330
1F
100
AcDbEntity
  8
0
  6
Continuous
 62
     7
370
    15
100
AcDbCircle
 10
13.4172564413
 20
23.3927184085
 30
0.0
 40
0.0592125984251961
  0
CIRCLE
  5
2EC
330
1F
100
AcDbEntity
  8
0
  6
Continuous
 62
     7
370
    15
100
AcDbCircle
 10
12.8070202208
 20
23.3927184085
 30
0.0
 40
0.0592125984251943
  0
LINE
  5
2ED
330
1F
100
AcDbEntity
  8
0
  6
Continuous
 62
     7
370
    15
100
AcDbLine
 10
12.3621383311
 20
20.4636477881
 30
0.0
 11
13.0286383311
 21
20.4636477881
 31
0.0
  0
LINE
  5
2EE
330
1F
100
AcDbEntity
  8
0
  6
Continuous
 62
     7
370
    15
100
AcDbLine
 10
12.4237440292
 20
10.6921947932
 30
0.0
 11
12.4237440292
 21
10.4421947932
 31
0.0
  0
LINE
  5
2EF
330
1F
100
AcDbEntity
  8
0
  6
Continuous
 62
     7
370
    15
100
AcDbLine
 10
12.4237440292
 20
10.4421947932
 30
0.0
 11
11.9237440292
 21
10.4421947932
 31
0.0
  0
LINE
  5
2F0
330
1F
100
AcDbEntity
  8
0
  6
Continuous
 62
     7
370
    15
100
AcDbLine
 10
11.9237440292
 20
10.4421947932
 30
0.0
 11
11.9237440292
 21
10.6921947932
 31
0.0
  0
LINE
  5
2F1
330
1F
100
AcDbEntity
  8
0
  6
Continuous
 62
     7
370
    15
100
AcDbLine
 10
11.6737440292
 20
10.6921947932
 30
0.0
 11
11.9237440292
 21
10.6921947932
 31
0.0
  0
LINE
  5
2F2
330
1F
100
AcDbEntity
  8
0
  6
Continuous
 62
     7
370
    15
100
AcDbLine
 10
10.4237440292
 20
13.6921947932
 30
0.0
 11
11.6737440292
 21
10.6921947932
 31
0.0
  0
LINE
  5
2F3
330
1F
100
AcDbEntity
  8
0
  6
Continuous
 62
     7
370
    15
100
AcDbLine
 10
10.4237440292
 20
13.9421947932
 30
0.0
 11
10.4237440292
 21
13.6921947932
 31
0.0
  0
LINE
  5
2F4
330
1F
100
AcDbEntity
  8
0
  6
Continuous
 62
     7
370
    15
100
AcDbLine
 10
10.6737440292
 20
13.9421947932
 30
0.0
 11
10.4237440292
 21
13.9421947932
 31
0.0
  0
LINE
  5
2F5
330
1F
100
AcDbEntity
  8
0
  6
Continuous
 62
     7
370
    15
100
AcDbLine
 10
10.6737440292
 20
13.9421947932
 30
0.0
 11
10.6737440292
 21
14.1921947932
 31
0.0
  0
LINE
  5
2F6
330
1F
100
AcDbEntity
  8
0
  6
Continuous
 62
     7
370
    15
100
AcDbLine
 10
10.6737440292
 20
14.1921947932
 30
0.0
 11
11.1737440292
 21
14.1921947932
 31
0.0
  0
LINE
  5
2F7
330
1F
100
AcDbEntity
  8
0
  6
Continuous
 62
     7
370
    15
100
AcDbLine
 10
11.1737440292
 20
14.1921947932
 30
0.0
 11
11.1737440292
 21
13.9421947932
 31
0.0
  0
LINE
  5
2F8
330
1F
100
AcDbEntity
  8
0
  6
Continuous
 62
     7
370
    15
100
AcDbLine
 10
11.3397440292
 20
13.9421947932
 30
0.0
 11
11.1737440292
 21
13.9421947932
 31
0.0
  0
LINE
  5
2F9
330
1F
100
AcDbEntity
  8
0
  6
Continuous
 62
     7
370
    15
100
AcDbLine
 10
11.3397440292
 20
13.5971947932
 30
0.0
 11
11.3397440292
 21
13.9421947932
 31
0.0
  0
LINE
  5
2FA
330
1F
100
AcDbEntity
  8
0
  6
Continuous
 62
     7
370
    15
100
AcDbLine
 10
11.2487440292
 20
13.5971947932
 30
0.0
 11
11.3397440292
 21
13.5971947932
 31
0.0
  0
LINE
  5
2FB
330
1F
100
AcDbEntity
  8
0
  6
Continuous
 62
     7
370
    15
100
AcDbLine
 10
11.2487440292
 20
13.4721947932
 30
0.0
 11
11.2487440292
 21
13.5971947932
 31
0.0
  0
LINE
  5
2FC
330
1F
100
AcDbEntity
  8
0
  6
Continuous
 62
     7
370
    15
100
AcDbLine
 10
11.3397440292
 20
13.4721947932
 30
0.0
 11
11.2487440292
 21
13.4721947932
 31
0.0
  0
LINE
  5
2FD
330
1F
100
AcDbEntity
  8
0
  6
Continuous
 62
     7
370
    15
100
AcDbLine
 10
11.3397440292
 20
13.3421947932
 30
0.0
 11
11.3397440292
 21
13.4721947932
 31
0.0
  0
LINE
  5
2FE
330
1F
100
AcDbEntity
  8
0
  6
Continuous
 62
     7
370
    15
100
AcDbLine
 10
11.5077440292
 20
13.3421947932
 30
0.0
 11
11.3397440292
 21
13.3421947932
 31
0.0
  0
LINE
  5
2FF
330
1F
100
AcDbEntity
  8
0
  6
Continuous
 62
     7
370
    15
100
AcDbLine
 10
11.5077440292
 20
13.4721947932
 30
0.0
 11
11.5077440292
 21
13.3421947932
 31
0.0
  0
LINE
  5
300
330
1F
100
AcDbEntity
  8
0
  6
Continuous
 62
     7
370
    15
100
AcDbLine
 10
11.5987440292
 20
13.4721947932
 30
0.0
 11
11.5077440292
 21
13.4721947932
 31
0.0
  0
LINE
  5
301
330
1F
100
AcDbEntity
  8
0
  6
Continuous
 62
     7
370
    15
100
AcDbLine
 10
11.5987440292
 20
13.5971947932
 30
0.0
 11
11.5987440292
 21
13.4721947932
 31
0.0
  0
LINE
  5
302
330
1F
100
AcDbEntity
  8
0
  6
Continuous
 62
     7
370
    15
100
AcDbLine
 10
11.5077440292
 20
13.5971947932
 30
0.0
 11
11.5987440292
 21
13.5971947932
 31
0.0
  0
LINE
  5
303
330
1F
100
AcDbEntity
  8
0
  6
Continuous
 62
     7
370
    15
100
AcDbLine
 10
11.5077440292
 20
13.9421947932
 30
0.0
 11
11.5077440292
 21
13.5971947932
 31
0.0
  0
LINE
  5
304
330
1F
100
AcDbEntity
  8
0
  6
Continuous
 62
     7
370
    15
100
AcDbLine
 10
14.8397440292
 20
13.9421947932
 30
0.0
 11
11.5077440292
 21
13.9421947932
 31
0.0
  0
LINE
  5
305
330
1F
100
AcDbEntity
  8
0
  6
Continuous
 62
     7
370
    15
100
AcDbLine
 10
14.8397440292
 20
13.9421947932
 30
0.0
 11
14.8397440292
 21
13.5971947932
 31
0.0
  0
LINE
  5
306
330
1F
100
AcDbEntity
  8
0
  6
Continuous
 62
     7
370
    15
100
AcDbLine
 10
14.8397440292
 20
13.5971947932
 30
0.0
 11
14.7487440292
 21
13.5971947932
 31
0.0
  0
LINE
  5
307
330
1F
100
AcDbEntity
  8
0
  6
Continuous
 62
     7
370
    15
100
AcDbLine
 10
14.7487440292
 20
13.5971947932
 30
0.0
 11
14.7487440292
 21
13.4721947932
 31
0.0
  0
LINE
  5
308
330
1F
100
AcDbEntity
  8
0
  6
Continuous
 62
     7
370
    15
100
AcDbLine
 10
14.7487440292
 20
13.4721947932
 30
0.0
 11
14.8397440292
 21
13.4721947932
 31
0.0
  0
LINE
  5
309
330
1F
100
AcDbEntity
  8
0
  6
Continuous
 62
     7
370
    15
100
AcDbLine
 10
14.8397440292
 20
13.4721947932
 30
0.0
 11
14.8397440292
 21
13.3421947932
 31
0.0
  0
LINE
  5
30A
330
1F
100
AcDbEntity
  8
0
  6
Continuous
 62
     7
370
    15
100
AcDbLine
 10
14.8397440292
 20
13.3421947932
 30
0.0
 11
15.0077440292
 21
13.3421947932
 31
0.0
  0
LINE
  5
30B
330
1F
100
AcDbEntity
  8
0
  6
Continuous
 62
     7
370
    15
100
AcDbLine
 10
15.0077440292
 20
13.3421947932
 30
0.0
 11
15.0077440292
 21
13.4721947932
 31
0.0
  0
LINE
  5
30C
330
1F
100
AcDbEntity
  8
0
  6
Continuous
 62
     7
370
    15
100
AcDbLine
 10
15.0077440292
 20
13.4721947932
 30
0.0
 11
15.0987440292
 21
13.4721947932
 31
0.0
  0
LINE
  5
30D
330
1F
100
AcDbEntity
  8
0
  6
Continuous
 62
     7
370
    15
100
AcDbLine
 10
15.0987440292
 20
13.4721947932
 30
0.0
 11
15.0987440292
 21
13.5971947932
 31
0.0
  0
LINE
  5
30E
330
1F
100
AcDbEntity
  8
0
  6
Continuous
 62
     7
370
    15
100
AcDbLine
 10
15.0987440292
 20
13.5971947932
 30
0.0
 11
15.0077440292
 21
13.5971947932
 31
0.0
  0
LINE
  5
30F
330
1F
100
AcDbEntity
  8
0
  6
Continuous
 62
     7
370
    15
100
AcDbLine
 10
15.0077440292
 20
13.5971947932
 30
0.0
 11
15.0077440292
 21
13.9421947932
 31
0.0
  0
LINE
  5
310
330
1F
100
AcDbEntity
  8
0
  6
Continuous
 62
     7
370
    15
100
AcDbLine
 10
15.1737440292
 20
13.9421947932
 30
0.0
 11
15.0077440292
 21
13.9421947932
 31
0.0
  0
LINE
  5
311
330
1F
100
AcDbEntity
  8
0
  6
Continuous
 62
     7
370
    15
100
AcDbLine
 10
15.1737440292
 20
14.1921947932
 30
0.0
 11
15.1737440292
 21
13.9421947932
 31
0.0
  0
LINE
  5
312
330
1F
100
AcDbEntity
  8
0
  6
Continuous
 62
     7
370
    15
100
AcDbLine
 10
15.6737440292
 20
14.1921947932
 30
0.0
 11
15.1737440292
 21
14.1921947932
 31
0.0
  0
LINE
  5
313
330
1F
100
AcDbEntity
  8
0
  6
Continuous
 62
     7
370
    15
100
AcDbLine
 10
15.6737440292
 20
13.9421947932
 30
0.0
 11
15.6737440292
 21
14.1921947932
 31
0.0
  0
LINE
  5
314
330
1F
100
AcDbEntity
  8
0
  6
Continuous
 62
     7
370
    15
100
AcDbLine
 10
15.9237440292
 20
13.9421947932
 30
0.0
 11
15.6737440292
 21
13.9421947932
 31
0.0
  0
LINE
  5
315
330
1F
100
AcDbEntity
  8
0
  6
Continuous
 62
     7
370
    15
100
AcDbLine
 10
15.9237440292
 20
13.6921947932
 30
0.0
 11
15.9237440292
 21
13.9421947932
 31
0.0
  0
LINE
  5
316
330
1F
100
AcDbEntity
  8
0
  6
Continuous
 62
     7
370
    15
100
AcDbLine
 10
15.9237440292
 20
13.6921947932
 30
0.0
 11
14.6737440292
 21
10.6921947932
 31
0.0
  0
LINE
  5
317
330
1F
100
AcDbEntity
  8
0
  6
Continuous
 62
     7
370
    15
100
AcDbLine
 10
14.4237440292
 20
10.6921947932
 30
0.0
 11
14.6737440292
 21
10.6921947932
 31
0.0
  0
LINE
  5
318
330
1F
100
AcDbEntity
  8
0
  6
Continuous
 62
     7
370
    15
100
AcDbLine
 10
14.4237440292
 20
10.4421947932
 30
0.0
 11
14.4237440292
 21
10.6921947932
 31
0.0
  0
LINE
  5
319
330
1F
100
AcDbEntity
  8
0
  6
Continuous
 62
     7
370
    15
100
AcDbLine
 10
13.9237440292
 20
10.4421947932
 30
0.0
 11
14.4237440292
 21
10.4421947932
 31
0.0
  0
LINE
  5
31A
330
1F
100
AcDbEntity
  8
0
  6
Continuous
 62
     7
370
    15
100
AcDbLine
 10
13.9237440292
 20
10.6921947932
 30
0.0
 11
13.9237440292
 21
10.4421947932
 31
0.0
  0
LINE
  5
31B
330
1F
100
AcDbEntity
  8
0
  6
Continuous
 62
     7
370
    15
100
AcDbLine
 10
13.2572440292
 20
10.6921947932
 30
0.0
 11
13.9237440292
 21
10.6921947932
 31
0.0
  0
LINE
  5
31C
330
1F
100
AcDbEntity
  8
0
  6
Continuous
 62
     7
370
    15
100
AcDbLine
 10
13.2572440292
 20
11.0371947932
 30
0.0
 11
13.2572440292
 21
10.6921947932
 31
0.0
  0
LINE
  5
31D
330
1F
100
AcDbEntity
  8
0
  6
Continuous
 62
     7
370
    15
100
AcDbLine
 10
13.3487440292
 20
11.0371947932
 30
0.0
 11
13.2572440292
 21
11.0371947932
 31
0.0
  0
LINE
  5
31E
330
1F
100
AcDbEntity
  8
0
  6
Continuous
 62
     7
370
    15
100
AcDbLine
 10
13.3487440292
 20
11.1621947932
 30
0.0
 11
13.3487440292
 21
11.0371947932
 31
0.0
  0
LINE
  5
31F
330
1F
100
AcDbEntity
  8
0
  6
Continuous
 62
     7
370
    15
100
AcDbLine
 10
13.2572440292
 20
11.1621947932
 30
0.0
 11
13.3487440292
 21
11.1621947932
 31
0.0
  0
LINE
  5
320
330
1F
100
AcDbEntity
  8
0
  6
Continuous
 62
     7
370
    15
100
AcDbLine
 10
13.2572440292
 20
11.2921947932
 30
0.0
 11
13.2572440292
 21
11.1621947932
 31
0.0
  0
LINE
  5
321
330
1F
100
AcDbEntity
  8
0
  6
Continuous
 62
     7
370
    15
100
AcDbLine
 10
13.0902440292
 20
11.2921947932
 30
0.0
 11
13.2572440292
 21
11.2921947932
 31
0.0
  0
LINE
  5
322
330
1F
100
AcDbEntity
  8
0
  6
Continuous
 62
     7
370
    15
100
AcDbLine
 10
13.0902440292
 20
11.1621947932
 30
0.0
 11
13.0902440292
 21
11.2921947932
 31
0.0
  0
LINE
  5
323
330
1F
100
AcDbEntity
  8
0
  6
Continuous
 62
     7
370
    15
100
AcDbLine
 10
12.9987440292
 20
11.1621947932
 30
0.0
 11
13.0902440292
 21
11.1621947932
 31
0.0
  0
LINE
  5
324
330
1F
100
AcDbEntity
  8
0
  6
Continuous
 62
     7
370
    15
100
AcDbLine
 10
12.9987440292
 20
11.0371947932
 30
0.0
 11
12.9987440292
 21
11.1621947932
 31
0.0
  0
LINE
  5
325
330
1F
100
AcDbEntity
  8
0
  6
Continuous
 62
     7
370
    15
100
AcDbLine
 10
13.0902440292
 20
11.0371947932
 30
0.0
 11
12.9987440292
 21
11.0371947932
 31
0.0
  0
LINE
  5
326
330
1F
100
AcDbEntity
  8
0
  6
Continuous
 62
     7
370
    15
100
AcDbLine
 10
13.0902440292
 20
10.6921947932
 30
0.0
 11
13.0902440292
 21
11.0371947932
 31
0.0
  0
CIRCLE
  5
327
330
1F
100
AcDbEntity
  8
0
  6
Continuous
 62
     7
370
    15
100
AcDbCircle
 10
13.1737440292
 20
13.3683758955
 30
0.0
 40
0.2462204724409442
  0
CIRCLE
  5
328
330
1F
100
AcDbEntity
  8
0
  6
Continuous
 62
     7
370
    15
100
AcDbCircle
 10
12.5635078088
 20
13.0927853443
 30
0.0
 40
0.0592125984251979
  0
CIRCLE
  5
329
330
1F
100
AcDbEntity
  8
0
  6
Continuous
 62
     7
370
    15
100
AcDbCircle
 10
12.868625919
 20
12.5643052751
 30
0.0
 40
0.0592125984251979
  0
CIRCLE
  5
32A
330
1F
100
AcDbEntity
  8
0
  6
Continuous
 62
     7
370
    15
100
AcDbCircle
 10
13.4788621395
 20
12.5643052751
 30
0.0
 40
0.0592125984251961
  0
CIRCLE
  5
32B
330
1F
100
AcDbEntity
  8
0
  6
Continuous
 62
     7
370
    15
100
AcDbCircle
 10
13.7839802497
 20
13.0927853443
 30
0.0
 40
0.0592125984251943
  0
CIRCLE
  5
32C
330
1F
100
AcDbEntity
  8
0
  6
Continuous
 62
     7
370
    15
100
AcDbCircle
 10
13.4788621395
 20
13.6212654136
 30
0.0
 40
0.0592125984251961
  0
CIRCLE
  5
32D
330
1F
100
AcDbEntity
  8
0
  6
Continuous
 62
     7
370
    15
100
AcDbCircle
 10
12.868625919
 20
13.6212654136
 30
0.0
 40
0.0592125984251943
  0
LINE
  5
32E
330
1F
100
AcDbEntity
  8
0
  6
Continuous
 62
     7
370
    15
100
AcDbLine
 10
12.4237440292
 20
10.6921947932
 30
0.0
 11
13.0902440292
 21
10.6921947932
 31
0.0
  0
LINE
  5
32F
330
1F
100
AcDbEntity
  8
0
  6
Continuous
 62
     7
370
    15
100
AcDbLine
 10
6.1825872517
 20
6.9970412222
 30
0.0
 11
6.0610081488
 21
6.4744985897
 31
0.0
  0
LINE
  5
330
330
1F
100
AcDbEntity
  8
0
  6
Continuous
 62
     7
370
    15
100
AcDbLine
 10
6.4085516276
 20
6.9444664764
 30
0.0
 11
6.1825872517
 21
6.9970412222
 31
0.0
  0
LINE
  5
331
330
1F
100
AcDbEntity
  8
0
  6
Continuous
 62
     7
370
    15
100
AcDbLine
 10
6.2869725246
 20
6.4219238438
 30
0.0
 11
6.4085516276
 21
6.9444664764
 31
0.0
  0
LINE
  5
332
330
1F
100
AcDbEntity
  8
0
  6
Continuous
 62
     7
370
    15
100
AcDbLine
 10
6.0610081488
 20
6.4744985897
 30
0.0
 11
6.2869725246
 21
6.4219238438
 31
0.0
  0
ARC
  5
333
330
1F
100
AcDbEntity
  8
0
  6
Continuous
 62
     7
370
    15
100
AcDbCircle
 10
4.9964856358
 20
5.8001031882
 30
0.0
 40
0.2500000000000005
100
AcDbArc
 50
166.9021195099
 51
256.9021195099
  0
ARC
  5
334
330
1F
100
AcDbEntity
  8
0
  6
Continuous
 62
     7
370
    15
100
AcDbCircle
 10
5.0531394552
 20
6.043599276
 30
0.0
 40
0.2500000000000003
100
AcDbArc
 50
76.9021195099
 51
166.9021195099
  0
ARC
  5
335
330
1F
100
AcDbEntity
  8
0
  6
Continuous
 62
     7
370
    15
100
AcDbCircle
 10
5.2653958446
 20
6.5075692145
 30
0.0
 40
0.2499999999999997
100
AcDbArc
 50
256.9021195099
 51
318.2916598439
  0
ARC
  5
336
330
1F
100
AcDbEntity
  8
0
  6
Continuous
 62
     7
370
    15
100
AcDbCircle
 10
7.0154670453
 20
6.1003831334
 30
0.0
 40
0.2500000000000005
100
AcDbArc
 50
195.5125791758
 51
256.9021195099
  0
ARC
  5
337
330
1F
100
AcDbEntity
  8
0
  6
Continuous
 62
     7
370
    15
100
AcDbCircle
 10
7.0011081572
 20
5.5903687209
 30
0.0
 40
0.2500000000000007
100
AcDbArc
 50
346.9021195099
 51
76.9021195099
  0
ARC
  5
338
330
1F
100
AcDbEntity
  8
0
  6
Continuous
 62
     7
370
    15
100
AcDbCircle
 10
6.9444543378
 20
5.3468726331
 30
0.0
 40
0.2500000000000007
100
AcDbArc
 50
256.9021195099
 51
346.9021195099
  0
CIRCLE
  5
339
330
1F
100
AcDbEntity
  8
0
  6
Continuous
 62
     7
370
    15
100
AcDbCircle
 10
6.1347660631
 20
6.2796265652
 30
0.0
 40
0.0849999999999993
  0
LINE
  5
33A
330
1F
100
AcDbEntity
  8
0
  6
Continuous
 62
     7
370
    15
100
AcDbLine
 10
4.9398318145
 20
5.5566070855
 30
0.0
 11
6.8878005822
 21
5.1033765151
 31
0.0
  0
LINE
  5
33B
330
1F
100
AcDbEntity
  8
0
  6
Continuous
 62
     7
370
    15
100
AcDbLine
 10
4.8096433671
 20
6.1002530738
 30
0.0
 11
4.7529895525
 21
5.8567570069
 31
0.0
  0
LINE
  5
33C
330
1F
100
AcDbEntity
  8
0
  6
Continuous
 62
     7
370
    15
100
AcDbLine
 10
7.0577620508
 20
5.8338648231
 30
0.0
 11
6.9588132796
 21
5.8568870649
 31
0.0
  0
LINE
  5
33D
330
1F
100
AcDbEntity
  8
0
  6
Continuous
 62
     7
370
    15
100
AcDbLine
 10
7.187950472
 20
5.2902188032
 30
0.0
 11
7.2446042866
 21
5.5337148702
 31
0.0
  0
LINE
  5
33E
330
1F
100
AcDbEntity
  8
0
  6
Continuous
 62
     7
370
    15
100
AcDbLine
 10
5.2087420364
 20
6.2640731558
 30
0.0
 11
5.1097932831
 21
6.2870953935
 31
0.0
  0
LINE
  5
33F
330
1F
100
AcDbEntity
  8
0
  6
Continuous
 62
     7
370
    15
100
AcDbLine
 10
5.4834778248
 20
5.6867955466
 30
0.0
 11
5.5401316394
 21
5.9302916135
 31
0.0
  0
LINE
  5
340
330
1F
100
AcDbEntity
  8
0
  6
Continuous
 62
     7
370
    15
100
AcDbLine
 10
5.5401316394
 20
5.9302916135
 30
0.0
 11
5.0531394519
 21
6.0435992551
 31
0.0
  0
LINE
  5
341
330
1F
100
AcDbEntity
  8
0
  6
Continuous
 62
     7
370
    15
100
AcDbLine
 10
5.0531394519
 20
6.0435992551
 30
0.0
 11
4.9964856373
 21
5.8001031882
 31
0.0
  0
CIRCLE
  5
342
330
1F
100
AcDbEntity
  8
0
  6
Continuous
 62
     7
370
    15
100
AcDbCircle
 10
5.9987968965
 20
5.6952359546
 30
0.0
 40
0.0825000000000006
  0
ARC
  5
343
330
1F
100
AcDbEntity
  8
0
  6
Continuous
 62
     7
370
    15
100
AcDbCircle
 10
6.2770619119
 20
6.8912090297
 30
0.0
 40
0.2500000000000012
100
AcDbArc
 50
15.5125791758
 51
138.2916598439
  0
LINE
  5
344
330
1F
100
AcDbEntity
  8
0
  6
Continuous
 62
     7
370
    15
100
AcDbLine
 10
5.4520311825
 20
6.3412344136
 30
0.0
 11
6.0904266208
 21
7.0575438173
 31
0.0
  0
LINE
  5
345
330
1F
100
AcDbEntity
  8
0
  6
Continuous
 62
     7
370
    15
100
AcDbLine
 10
6.51795484
 20
6.9580715558
 30
0.0
 11
6.774574028
 21
6.0335206257
 31
0.0
  0
LINE
  5
346
330
1F
100
AcDbEntity
  8
0
  6
Continuous
 62
     7
370
    15
100
AcDbLine
 10
6.4574621283
 20
5.4601802801
 30
0.0
 11
6.9444544051
 21
5.3468726178
 31
0.0
  0
LINE
  5
347
330
1F
100
AcDbEntity
  8
0
  6
Continuous
 62
     7
370
    15
100
AcDbLine
 10
6.9444544051
 20
5.3468726178
 30
0.0
 11
7.0011082196
 21
5.5903686847
 31
0.0
  0
LINE
  5
348
330
1F
100
AcDbEntity
  8
0
  6
Continuous
 62
     7
370
    15
100
AcDbLine
 10
7.0011082196
 20
5.5903686847
 30
0.0
 11
6.5141159429
 21
5.703676347
 31
0.0
  0
LINE
  5
349
330
1F
100
AcDbEntity
  8
0
  6
Continuous
 62
     7
370
    15
100
AcDbLine
 10
6.5141159429
 20
5.703676347
 30
0.0
 11
6.4574621283
 21
5.4601802801
 31
0.0
  0
LINE
  5
34A
330
1F
100
AcDbEntity
  8
0
  6
Continuous
 62
     7
370
    15
100
AcDbLine
 10
4.9964856373
 20
5.8001031882
 30
0.0
 11
5.4834778248
 21
5.6867955466
 31
0.0
  0
ARC
  5
34B
330
1F
100
AcDbEntity
  8
0
  6
Continuous
 62
     7
370
    15
100
AcDbCircle
 10
8.380237527
 20
7.2458659476
 30
0.0
 40
0.2500000000000001
100
AcDbArc
 50
295.0274718158
 51
25.0274718158
  0
ARC
  5
34C
330
1F
100
AcDbEntity
  8
0
  6
Continuous
 62
     7
370
    15
100
AcDbCircle
 10
7.9536071941
 20
7.0466758627
 30
0.0
 40
0.2499999999999989
100
AcDbArc
 50
281.721552575
 51
295.0274718158
  0
LINE
  5
34D
330
1F
100
AcDbEntity
  8
0
  6
Continuous
 62
     7
370
    15
100
AcDbLine
 10
7.1630007901
 20
6.6273145606
 30
0.0
 11
8.0043961256
 21
6.8018892346
 31
0.0
  0
ARC
  5
34E
330
1F
100
AcDbEntity
  8
0
  6
Continuous
 62
     7
370
    15
100
AcDbCircle
 10
7.1122119295
 20
6.8721011786
 30
0.0
 40
0.2500000000000001
100
AcDbArc
 50
205.0274718158
 51
281.721552575
  0
LINE
  5
34F
330
1F
100
AcDbEntity
  8
0
  6
Continuous
 62
     7
370
    15
100
AcDbLine
 10
6.2069157271
 20
8.2201444155
 30
0.0
 11
6.8856856384
 21
6.7663379497
 31
0.0
  0
ARC
  5
350
330
1F
100
AcDbEntity
  8
0
  6
Continuous
 62
     7
370
    15
100
AcDbCircle
 10
6.4334420369
 20
8.3259076043
 30
0.0
 40
0.2500000000000001
100
AcDbArc
 50
128.3333910566
 51
205.0274718158
  0
LINE
  5
351
330
1F
100
AcDbEntity
  8
0
  6
Continuous
 62
     7
370
    15
100
AcDbLine
 10
6.9524426016
 20
9.0549897469
 30
0.0
 11
6.2783829344
 21
8.5220113305
 31
0.0
  0
ARC
  5
352
330
1F
100
AcDbEntity
  8
0
  6
Continuous
 62
     7
370
    15
100
AcDbCircle
 10
7.1075016664
 20
8.8588859598
 30
0.0
 40
0.2500000000000013
100
AcDbArc
 50
115.0274718158
 51
128.3333910566
  0
ARC
  5
353
330
1F
100
AcDbEntity
  8
0
  6
Continuous
 62
     7
370
    15
100
AcDbCircle
 10
7.5341319994
 20
9.0580760447
 30
0.0
 40
0.2499999999999997
100
AcDbArc
 50
25.0274718158
 51
115.0274718158
  0
CIRCLE
  5
354
330
1F
100
AcDbEntity
  8
0
  6
Continuous
 62
     7
370
    15
100
AcDbCircle
 10
7.8439216321
 20
8.0990894006
 30
0.0
 40
0.0824999999999997
  0
LINE
  5
355
330
1F
100
AcDbEntity
  8
0
  6
Continuous
 62
     7
370
    15
100
AcDbLine
 10
8.1687111412
 20
7.6989184767
 30
0.0
 11
7.9421848818
 21
7.593155287
 31
0.0
  0
LINE
  5
356
330
1F
100
AcDbEntity
  8
0
  6
Continuous
 62
     7
370
    15
100
AcDbLine
 10
7.9421848818
 20
7.593155287
 30
0.0
 11
8.1537112611
 21
7.1401027682
 31
0.0
  0
LINE
  5
357
330
1F
100
AcDbEntity
  8
0
  6
Continuous
 62
     7
370
    15
100
AcDbLine
 10
8.1537112611
 20
7.1401027682
 30
0.0
 11
8.3802375205
 21
7.2458659579
 31
0.0
  0
LINE
  5
358
330
1F
100
AcDbEntity
  8
0
  6
Continuous
 62
     7
370
    15
100
AcDbLine
 10
8.3802375205
 20
7.2458659579
 30
0.0
 11
8.1687111412
 21
7.6989184767
 31
0.0
  0
LINE
  5
359
330
1F
100
AcDbEntity
  8
0
  6
Continuous
 62
     7
370
    15
100
AcDbLine
 10
7.5341320031
 20
9.0580760331
 30
0.0
 11
7.3076057437
 21
8.9523128434
 31
0.0
  0
LINE
  5
35A
330
1F
100
AcDbEntity
  8
0
  6
Continuous
 62
     7
370
    15
100
AcDbLine
 10
7.3076057437
 20
8.9523128434
 30
0.0
 11
7.5191321231
 21
8.4992603246
 31
0.0
  0
LINE
  5
35B
330
1F
100
AcDbEntity
  8
0
  6
Continuous
 62
     7
370
    15
100
AcDbLine
 10
7.5191321231
 20
8.4992603246
 30
0.0
 11
7.7456583825
 21
8.6050235143
 31
0.0
  0
LINE
  5
35C
330
1F
100
AcDbEntity
  8
0
  6
Continuous
 62
     7
370
    15
100
AcDbLine
 10
7.7456583825
 20
8.6050235143
 30
0.0
 11
7.5341320031
 21
9.0580760331
 31
0.0
  0
LINE
  5
35D
330
1F
100
AcDbEntity
  8
0
  6
Continuous
 62
     7
370
    15
100
AcDbLine
 10
6.9746300146
 20
7.4759755447
 30
0.0
 11
6.8080738121
 21
7.8327098078
 31
0.0
  0
LINE
  5
35E
330
1F
100
AcDbEntity
  8
0
  6
Continuous
 62
     7
370
    15
100
AcDbLine
 10
6.8080738121
 20
7.8327098078
 30
0.0
 11
6.7010535797
 21
7.7827429688
 31
0.0
  0
LINE
  5
35F
330
1F
100
AcDbEntity
  8
0
  6
Continuous
 62
     7
370
    15
100
AcDbLine
 10
6.7010535797
 20
7.7827429688
 30
0.0
 11
6.8676097822
 21
7.4260087057
 31
0.0
  0
LINE
  5
360
330
1F
100
AcDbEntity
  8
0
  6
Continuous
 62
     7
370
    15
100
AcDbLine
 10
6.8676097822
 20
7.4260087057
 30
0.0
 11
6.9746300146
 21
7.4759755447
 31
0.0
  0
ARC
  5
361
330
1F
100
AcDbEntity
  8
0
  6
Continuous
 62
     7
370
    15
100
AcDbCircle
 10
7.380438289
 20
8.0239047921
 30
0.0
 40
0.1117125984251977
100
AcDbArc
 50
25.0274718158
 51
205.0274718158
  0
LINE
  5
362
330
1F
100
AcDbEntity
  8
0
  6
Continuous
 62
     7
370
    15
100
AcDbLine
 10
7.2792149337
 20
7.9766444687
 30
0.0
 11
7.38747647
 21
7.7447671877
 31
0.0
  0
ARC
  5
363
330
1F
100
AcDbEntity
  8
0
  6
Continuous
 62
     7
370
    15
100
AcDbCircle
 10
7.4886998231
 20
7.7920275159
 30
0.0
 40
0.1117125984251969
100
AcDbArc
 50
205.0274718158
 51
25.0274718158
  0
LINE
  5
364
330
1F
100
AcDbEntity
  8
0
  6
Continuous
 62
     7
370
    15
100
AcDbLine
 10
7.5899231738
 20
7.8392878371
 30
0.0
 11
7.4816616375
 21
8.0711651181
 31
0.0
  0
CIRCLE
  5
365
330
1F
100
AcDbEntity
  8
0
  6
Continuous
 62
     7
370
    15
100
AcDbCircle
 10
7.3440099696
 20
7.3295144123
 30
0.0
 40
0.3282234251968501
  0
CIRCLE
  5
366
330
1F
100
AcDbEntity
  8
0
  6
Continuous
 62
     7
370
    15
100
AcDbCircle
 10
6.9192916437
 20
8.2391868036
 30
0.0
 40
0.3282234251968513
  0
CIRCLE
  5
367
330
1F
100
AcDbEntity
  8
0
  6
Continuous
 62
     7
370
    15
100
AcDbCircle
 10
7.7716091551
 20
7.1767790076
 30
0.0
 40
0.0156249999999996
  0
CIRCLE
  5
368
330
1F
100
AcDbEntity
  8
0
  6
Continuous
 62
     7
370
    15
100
AcDbCircle
 10
6.505350067
 20
8.3626699981
 30
0.0
 40
0.0156249999999992
  0
LINE
  5
369
330
1F
100
AcDbEntity
  8
0
  6
Continuous
 62
     7
370
    15
100
AcDbLine
 10
8.6067637883
 20
7.3516291514
 30
0.0
 11
7.7606582708
 21
9.1638392266
 31
0.0
  0
LINE
  5
36A
330
1F
100
AcDbEntity
  8
0
  6
Continuous
 62
     7
370
    15
100
AcDbLine
 10
8.0593703986
 20
6.8201495629
 30
0.0
 11
8.4860007335
 21
7.0193396486
 31
0.0
  0
LINE
  5
36B
330
1F
100
AcDbEntity
  8
0
  6
Continuous
 62
     7
370
    15
100
AcDbLine
 10
7.4283687902
 20
9.2846023423
 30
0.0
 11
7.0017384552
 21
9.0854122566
 31
0.0
  0
CIRCLE
  5
36C
330
1F
100
AcDbEntity
  8
0
  6
Continuous
 62
     7
370
    15
100
AcDbCircle
 10
5.0868422893
 20
7.8940182659
 30
0.0
 40
0.8437500000000009
  0
CIRCLE
  5
36D
330
1F
100
AcDbEntity
  8
0
  6
Continuous
 62
     7
370
    15
100
AcDbCircle
 10
5.0868422893
 20
8.9877682659
 30
0.0
 40
0.109375
  0
LINE
  5
36E
330
1F
100
AcDbEntity
  8
0
  6
Continuous
 62
     7
370
    15
100
AcDbLine
 10
4.8748455883
 20
9.1725896691
 30
0.0
 11
4.3330762169
 21
8.5511610879
 31
0.0
  0
ARC
  5
36F
330
1F
100
AcDbEntity
  8
0
  6
Continuous
 62
     7
370
    15
100
AcDbCircle
 10
5.0868422893
 20
8.9877682659
 30
0.0
 40
0.2812500000000001
100
AcDbArc
 50
41.0823331405
 51
138.9176668595
  0
LINE
  5
370
330
1F
100
AcDbEntity
  8
0
  6
Continuous
 62
     7
370
    15
100
AcDbLine
 10
5.8406083617
 20
8.5511610879
 30
0.0
 11
5.2988389903
 21
9.1725896691
 31
0.0
  0
ARC
  5
371
330
1F
100
AcDbEntity
  8
0
  6
Continuous
 62
     7
370
    15
100
AcDbCircle
 10
5.0868422893
 20
7.8940182659
 30
0.0
 40
1.0
100
AcDbArc
 50
318.9176668595
 51
41.0823331405
  0
LINE
  5
372
330
1F
100
AcDbEntity
  8
0
  6
Continuous
 62
     7
370
    15
100
AcDbLine
 10
5.2988389903
 20
6.6154468628
 30
0.0
 11
5.8406083617
 21
7.236875444
 31
0.0
  0
ARC
  5
373
330
1F
100
AcDbEntity
  8
0
  6
Continuous
 62
     7
370
    15
100
AcDbCircle
 10
5.0868422893
 20
6.8002682659
 30
0.0
 40
0.2812500000000007
100
AcDbArc
 50
221.0823331405
 51
318.9176668595
  0
LINE
  5
374
330
1F
100
AcDbEntity
  8
0
  6
Continuous
 62
     7
370
    15
100
AcDbLine
 10
4.3330762169
 20
7.236875444
 30
0.0
 11
4.8748455883
 21
6.6154468628
 31
0.0
  0
ARC
  5
375
330
1F
100
AcDbEntity
  8
0
  6
Continuous
 62
     7
370
    15
100
AcDbCircle
 10
5.0868422893
 20
7.8940182659
 30
0.0
 40
0.9999999999999997
100
AcDbArc
 50
138.9176668595
 51
221.0823331405
  0
CIRCLE
  5
376
330
1F
100
AcDbEntity
  8
0
  6
Continuous
 62
     7
370
    15
100
AcDbCircle
 10
5.0868422893
 20
6.8002682659
 30
0.0
 40
0.1093749999999991
  0
ARC
  5
377
330
1F
100
AcDbEntity
  8
0
  6
Continuous
 62
     7
370
    15
100
AcDbCircle
 10
0.3317069973
 20
13.7738507072
 30
0.0
 40
0.25
100
AcDbArc
 50
90.0
 51
180.0
  0
ARC
  5
378
330
1F
100
AcDbEntity
  8
0
  6
Continuous
 62
     7
370
    15
100
AcDbCircle
 10
0.8025468118
 20
13.7738507072
 30
0.0
 40
0.25
100
AcDbArc
 50
76.6940807592
 51
90.0
  0
LINE
  5
379
330
1F
100
AcDbEntity
  8
0
  6
Continuous
 62
     7
370
    15
100
AcDbLine
 10
1.6963312237
 20
13.8193678759
 30
0.0
 11
0.8600843641
 21
14.0171395046
 31
0.0
  0
ARC
  5
37A
330
1F
100
AcDbEntity
  8
0
  6
Continuous
 62
     7
370
    15
100
AcDbCircle
 10
1.6387936115
 20
13.5760791177
 30
0.0
 40
0.2500000000000025
100
AcDbArc
 50
0.0
 51
76.6940807592
  0
LINE
  5
37B
330
1F
100
AcDbEntity
  8
0
  6
Continuous
 62
     7
370
    15
100
AcDbLine
 10
1.8887936537
 20
11.9716222746
 30
0.0
 11
1.8887936537
 21
13.5760791398
 31
0.0
  0
ARC
  5
37C
330
1F
100
AcDbEntity
  8
0
  6
Continuous
 62
     7
370
    15
100
AcDbCircle
 10
1.6387936115
 20
11.9716222967
 30
0.0
 40
0.2500000000000024
100
AcDbArc
 50
283.3059192408
 51
0.0
  0
LINE
  5
37D
330
1F
100
AcDbEntity
  8
0
  6
Continuous
 62
     7
370
    15
100
AcDbLine
 10
0.8600843641
 20
11.5305619098
 30
0.0
 11
1.6963312237
 21
11.7283335384
 31
0.0
  0
ARC
  5
37E
330
1F
100
AcDbEntity
  8
0
  6
Continuous
 62
     7
370
    15
100
AcDbCircle
 10
0.8025468118
 20
11.7738507072
 30
0.0
 40
0.249999999999999
100
AcDbArc
 50
270.0
 51
283.3059192408
  0
ARC
  5
37F
330
1F
100
AcDbEntity
  8
0
  6
Continuous
 62
     7
370
    15
100
AcDbCircle
 10
0.3317069973
 20
11.7738507072
 30
0.0
 40
0.2499999999999999
100
AcDbArc
 50
180.0
 51
270.0
  0
CIRCLE
  5
380
330
1F
100
AcDbEntity
  8
0
  6
Continuous
 62
     7
370
    15
100
AcDbCircle
 10
0.4567069973
 20
12.7738507072
 30
0.0
 40
0.0825000000000014
  0
LINE
  5
381
330
1F
100
AcDbEntity
  8
0
  6
Continuous
 62
     7
370
    15
100
AcDbLine
 10
0.3317069988
 20
13.2738507011
 30
0.0
 11
0.5817069958
 21
13.2738507011
 31
0.0
  0
LINE
  5
382
330
1F
100
AcDbEntity
  8
0
  6
Continuous
 62
     7
370
    15
100
AcDbLine
 10
0.5817069958
 20
13.2738507011
 30
0.0
 11
0.5817069958
 21
13.7738506951
 31
0.0
  0
LINE
  5
383
330
1F
100
AcDbEntity
  8
0
  6
Continuous
 62
     7
370
    15
100
AcDbLine
 10
0.5817069958
 20
13.7738506951
 30
0.0
 11
0.3317069988
 21
13.7738506951
 31
0.0
  0
LINE
  5
384
330
1F
100
AcDbEntity
  8
0
  6
Continuous
 62
     7
370
    15
100
AcDbLine
 10
0.3317069988
 20
13.7738506951
 30
0.0
 11
0.3317069988
 21
13.2738507011
 31
0.0
  0
LINE
  5
385
330
1F
100
AcDbEntity
  8
0
  6
Continuous
 62
     7
370
    15
100
AcDbLine
 10
0.3317069988
 20
11.7738507193
 30
0.0
 11
0.5817069958
 21
11.7738507193
 31
0.0
  0
LINE
  5
386
330
1F
100
AcDbEntity
  8
0
  6
Continuous
 62
     7
370
    15
100
AcDbLine
 10
0.5817069958
 20
11.7738507193
 30
0.0
 11
0.5817069958
 21
12.2738507132
 31
0.0
  0
LINE
  5
387
330
1F
100
AcDbEntity
  8
0
  6
Continuous
 62
     7
370
    15
100
AcDbLine
 10
0.5817069958
 20
12.2738507132
 30
0.0
 11
0.3317069988
 21
12.2738507132
 31
0.0
  0
LINE
  5
388
330
1F
100
AcDbEntity
  8
0
  6
Continuous
 62
     7
370
    15
100
AcDbLine
 10
0.3317069988
 20
12.2738507132
 30
0.0
 11
0.3317069988
 21
11.7738507193
 31
0.0
  0
LINE
  5
389
330
1F
100
AcDbEntity
  8
0
  6
Continuous
 62
     7
370
    15
100
AcDbLine
 10
1.5079865595
 20
12.9707010965
 30
0.0
 11
1.5079865595
 21
12.5770003179
 31
0.0
  0
LINE
  5
38A
330
1F
100
AcDbEntity
  8
0
  6
Continuous
 62
     7
370
    15
100
AcDbLine
 10
1.5079865595
 20
12.5770003179
 30
0.0
 11
1.6260967418
 21
12.5770003179
 31
0.0
  0
LINE
  5
38B
330
1F
100
AcDbEntity
  8
0
  6
Continuous
 62
     7
370
    15
100
AcDbLine
 10
1.6260967418
 20
12.5770003179
 30
0.0
 11
1.6260967418
 21
12.9707010965
 31
0.0
  0
LINE
  5
38C
330
1F
100
AcDbEntity
  8
0
  6
Continuous
 62
     7
370
    15
100
AcDbLine
 10
1.6260967418
 20
12.9707010965
 30
0.0
 11
1.5079865595
 21
12.9707010965
 31
0.0
  0
ARC
  5
38D
330
1F
100
AcDbEntity
  8
0
  6
Continuous
 62
     7
370
    15
100
AcDbCircle
 10
0.9084786509
 20
12.6458979513
 30
0.0
 40
0.1117125984251968
100
AcDbArc
 50
180.0
 51
0.0
  0
LINE
  5
38E
330
1F
100
AcDbEntity
  8
0
  6
Continuous
 62
     7
370
    15
100
AcDbLine
 10
1.0201912546
 20
12.6458979486
 30
0.0
 11
1.0201912546
 21
12.9018034657
 31
0.0
  0
ARC
  5
38F
330
1F
100
AcDbEntity
  8
0
  6
Continuous
 62
     7
370
    15
100
AcDbCircle
 10
0.9084786509
 20
12.9018034631
 30
0.0
 40
0.1117125984251968
100
AcDbArc
 50
0.0
 51
180.0
  0
LINE
  5
390
330
1F
100
AcDbEntity
  8
0
  6
Continuous
 62
     7
370
    15
100
AcDbLine
 10
0.7967660523
 20
12.9018034657
 30
0.0
 11
0.7967660523
 21
12.6458979486
 31
0.0
  0
CIRCLE
  5
391
330
1F
100
AcDbEntity
  8
0
  6
Continuous
 62
     7
370
    15
100
AcDbCircle
 10
1.2352503044
 20
13.2596774788
 30
0.0
 40
0.3282234251968497
  0
CIRCLE
  5
392
330
1F
100
AcDbEntity
  8
0
  6
Continuous
 62
     7
370
    15
100
AcDbCircle
 10
1.2352503044
 20
12.255740471
 30
0.0
 40
0.3282234251968514
  0
CIRCLE
  5
393
330
1F
100
AcDbEntity
  8
0
  6
Continuous
 62
     7
370
    15
100
AcDbCircle
 10
0.9124156587
 20
13.5789688174
 30
0.0
 40
0.0156250000000018
  0
CIRCLE
  5
394
330
1F
100
AcDbEntity
  8
0
  6
Continuous
 62
     7
370
    15
100
AcDbCircle
 10
1.5580849501
 20
11.9687325969
 30
0.0
 40
0.0156250000000018
  0
LINE
  5
395
330
1F
100
AcDbEntity
  8
0
  6
Continuous
 62
     7
370
    15
100
AcDbLine
 10
0.0817069927
 20
13.7738506951
 30
0.0
 11
0.0817069927
 21
11.7738507193
 31
0.0
  0
LINE
  5
396
330
1F
100
AcDbEntity
  8
0
  6
Continuous
 62
     7
370
    15
100
AcDbLine
 10
0.8025468155
 20
14.0238507471
 30
0.0
 11
0.3317069988
 21
14.0238507471
 31
0.0
  0
LINE
  5
397
330
1F
100
AcDbEntity
  8
0
  6
Continuous
 62
     7
370
    15
100
AcDbLine
 10
0.3317069988
 20
11.5238506673
 30
0.0
 11
0.8025468155
 21
11.5238506673
 31
0.0
  0
LINE
  5
398
330
1F
100
AcDbEntity
  8
0
  6
Continuous
 62
     7
370
    15
100
AcDbLine
 10
12.1333899727
 20
17.1019249657
 30
0.0
 11
12.5127527813
 21
16.7225621571
 31
0.0
  0
LINE
  5
399
330
1F
100
AcDbEntity
  8
0
  6
Continuous
 62
     7
370
    15
100
AcDbLine
 10
12.2974387506
 20
17.2659737436
 30
0.0
 11
12.1333899727
 21
17.1019249657
 31
0.0
  0
LINE
  5
39A
330
1F
100
AcDbEntity
  8
0
  6
Continuous
 62
     7
370
    15
100
AcDbLine
 10
12.6768015592
 20
16.886610935
 30
0.0
 11
12.2974387506
 21
17.2659737436
 31
0.0
  0
LINE
  5
39B
330
1F
100
AcDbEntity
  8
0
  6
Continuous
 62
     7
370
    15
100
AcDbLine
 10
12.5127527813
 20
16.7225621571
 30
0.0
 11
12.6768015592
 21
16.886610935
 31
0.0
  0
ARC
  5
39C
330
1F
100
AcDbEntity
  8
0
  6
Continuous
 62
     7
370
    15
100
AcDbCircle
 10
12.5227142643
 20
15.4624359306
 30
0.0
 40
0.2500000000000008
100
AcDbArc
 50
225.0
 51
315.0
  0
ARC
  5
39D
330
1F
100
AcDbEntity
  8
0
  6
Continuous
 62
     7
370
    15
100
AcDbCircle
 10
12.345937569
 20
15.6392126259
 30
0.0
 40
0.2500000000000008
100
AcDbArc
 50
135.0
 51
225.0
  0
ARC
  5
39E
330
1F
100
AcDbEntity
  8
0
  6
Continuous
 62
     7
370
    15
100
AcDbCircle
 10
12.0642203763
 20
16.0646022143
 30
0.0
 40
0.2500000000000013
100
AcDbArc
 50
315.0
 51
16.389540334
  0
ARC
  5
39F
330
1F
100
AcDbEntity
  8
0
  6
Continuous
 62
     7
370
    15
100
AcDbCircle
 10
13.3347615429
 20
17.3351433809
 30
0.0
 40
0.2500000000000001
100
AcDbArc
 50
253.610459666
 51
315.0
  0
ARC
  5
3A0
330
1F
100
AcDbEntity
  8
0
  6
Continuous
 62
     7
370
    15
100
AcDbCircle
 10
13.7601511314
 20
17.0534261882
 30
0.0
 40
0.250000000000002
100
AcDbArc
 50
45.0
 51
135.0
  0
ARC
  5
3A1
330
1F
100
AcDbEntity
  8
0
  6
Continuous
 62
     7
370
    15
100
AcDbCircle
 10
13.9369278267
 20
16.8766494929
 30
0.0
 40
0.2500000000000008
100
AcDbArc
 50
315.0
 51
45.0
  0
CIRCLE
  5
3A2
330
1F
100
AcDbEntity
  8
0
  6
Continuous
 62
     7
370
    15
100
AcDbCircle
 10
12.7171686291
 20
16.6821951281
 30
0.0
 40
0.0850000000000008
  0
LINE
  5
3A3
330
1F
100
AcDbEntity
  8
0
  6
Continuous
 62
     7
370
    15
100
AcDbLine
 10
12.6994909713
 20
15.2856592257
 30
0.0
 11
14.1137045814
 21
16.6998728358
 31
0.0
  0
LINE
  5
3A4
330
1F
100
AcDbEntity
  8
0
  6
Continuous
 62
     7
370
    15
100
AcDbLine
 10
12.1691608918
 20
15.4624359188
 30
0.0
 11
12.345937572
 21
15.2856592386
 31
0.0
  0
LINE
  5
3A5
330
1F
100
AcDbEntity
  8
0
  6
Continuous
 62
     7
370
    15
100
AcDbLine
 10
13.583374463
 20
17.2302029541
 30
0.0
 11
13.5115382502
 21
17.1583667413
 31
0.0
  0
LINE
  5
3A6
330
1F
100
AcDbEntity
  8
0
  6
Continuous
 62
     7
370
    15
100
AcDbLine
 10
14.1137045555
 20
17.0534262221
 30
0.0
 11
13.9369278753
 21
17.2302029023
 31
0.0
  0
LINE
  5
3A7
330
1F
100
AcDbEntity
  8
0
  6
Continuous
 62
     7
370
    15
100
AcDbLine
 10
12.2409970528
 20
15.8878255439
 30
0.0
 11
12.1691608529
 21
15.815989344
 31
0.0
  0
LINE
  5
3A8
330
1F
100
AcDbEntity
  8
0
  6
Continuous
 62
     7
370
    15
100
AcDbLine
 10
12.8762676645
 20
15.8159893311
 30
0.0
 11
12.6994909843
 21
15.9927660113
 31
0.0
  0
LINE
  5
3A9
330
1F
100
AcDbEntity
  8
0
  6
Continuous
 62
     7
370
    15
100
AcDbLine
 10
12.6994909843
 20
15.9927660113
 30
0.0
 11
12.345937585
 21
15.639212612
 31
0.0
  0
LINE
  5
3AA
330
1F
100
AcDbEntity
  8
0
  6
Continuous
 62
     7
370
    15
100
AcDbLine
 10
12.345937585
 20
15.639212612
 30
0.0
 11
12.5227142652
 21
15.4624359318
 31
0.0
  0
CIRCLE
  5
3AB
330
1F
100
AcDbEntity
  8
0
  6
Continuous
 62
     7
370
    15
100
AcDbCircle
 10
13.1414326978
 20
16.2579310594
 30
0.0
 40
0.0825000000000012
  0
ARC
  5
3AC
330
1F
100
AcDbEntity
  8
0
  6
Continuous
 62
     7
370
    15
100
AcDbCircle
 10
12.273163438
 20
17.1262003192
 30
0.0
 40
0.2500000000000001
100
AcDbArc
 50
73.610459666
 51
196.389540334
  0
LINE
  5
3AD
330
1F
100
AcDbEntity
  8
0
  6
Continuous
 62
     7
370
    15
100
AcDbLine
 10
12.3040617898
 20
16.1351437747
 30
0.0
 11
12.0333220606
 21
17.0556587917
 31
0.0
  0
LINE
  5
3AE
330
1F
100
AcDbEntity
  8
0
  6
Continuous
 62
     7
370
    15
100
AcDbLine
 10
12.3437049765
 20
17.3660417076
 30
0.0
 11
13.2642199417
 21
17.0953019266
 31
0.0
  0
LINE
  5
3AF
330
1F
100
AcDbEntity
  8
0
  6
Continuous
 62
     7
370
    15
100
AcDbLine
 10
13.5833744112
 20
16.5230960778
 30
0.0
 11
13.9369278753
 21
16.8766495419
 31
0.0
  0
LINE
  5
3B0
330
1F
100
AcDbEntity
  8
0
  6
Continuous
 62
     7
370
    15
100
AcDbLine
 10
13.9369278753
 20
16.8766495419
 30
0.0
 11
13.7601511951
 21
17.0534262221
 31
0.0
  0
LINE
  5
3B1
330
1F
100
AcDbEntity
  8
0
  6
Continuous
 62
     7
370
    15
100
AcDbLine
 10
13.7601511951
 20
17.0534262221
 30
0.0
 11
13.406597731
 21
16.699872758
 31
0.0
  0
LINE
  5
3B2
330
1F
100
AcDbEntity
  8
0
  6
Continuous
 62
     7
370
    15
100
AcDbLine
 10
13.406597731
 20
16.699872758
 30
0.0
 11
13.5833744112
 21
16.5230960778
 31
0.0
  0
LINE
  5
3B3
330
1F
100
AcDbEntity
  8
0
  6
Continuous
 62
     7
370
    15
100
AcDbLine
 10
12.5227142652
 20
15.4624359318
 30
0.0
 11
12.8762676645
 21
15.8159893311
 31
0.0
  0
MTEXT
  5
3B5
330
1F
100
AcDbEntity
  8
0
  6
Continuous
 62
     7
100
AcDbMText
 10
0.0
 20
1.1580209256
 30
0.0
 40
0.4152
 41
0.0
 71
     1
 72
     1
  1
SOLIDWORKS Student Edition.
  7
SLDTEXTSTYLE0
 73
     1
 44
1.0
  0
MTEXT
  5
3B6
330
1F
100
AcDbEntity
  8
0
  6
Continuous
 62
     7
100
AcDbMText
 10
0.0
 20
0.5352209256
 30
0.0
 40
0.4152
 41
0.0
 71
     1
 72
     1
  1
For Academic Use Only.
  7
SLDTEXTSTYLE0
 73
     1
 44
1.0
  0
ENDSEC
  0
SECTION
  2
OBJECTS
  0
DICTIONARY
  5
C
330
0
100
AcDbDictionary
281
     1
  3
ACAD_GROUP
350
D
  3
ACAD_LAYOUT
350
1A
  3
ACAD_MLINESTYLE
350
17
  3
ACAD_PLOTSETTINGS
350
19
  3
ACAD_PLOTSTYLENAME
350
E
  3
ACAD_SCALELIST
350
47
  0
DICTIONARY
  5
D
102
{ACAD_REACTORS
330
C
102
}
330
C
100
AcDbDictionary
281
     1
  0
DICTIONARY
  5
1A
102
{ACAD_REACTORS
330
C
102
}
330
C
100
AcDbDictionary
281
     1
  3
Layout1
350
1E
  3
Layout2
350
26
  3
Model
350
22
  0
DICTIONARY
  5
17
102
{ACAD_REACTORS
330
C
102
}
330
C
100
AcDbDictionary
281
     1
  3
Standard
350
18
  0
DICTIONARY
  5
19
102
{ACAD_REACTORS
330
C
102
}
330
C
100
AcDbDictionary
281
     1
  0
ACDBDICTIONARYWDFLT
  5
E
102
{ACAD_REACTORS
330
C
102
}
330
C
100
AcDbDictionary
281
     1
  3
Normal
350
F
100
AcDbDictionaryWithDefault
340
F
  0
DICTIONARY
  5
47
102
{ACAD_REACTORS
330
C
102
}
330
C
100
AcDbDictionary
281
     1
  3
A0
350
48
  3
A1
350
49
  3
A2
350
4A
  3
A3
350
4B
  3
A4
350
4C
  3
A5
350
4D
  3
A6
350
4E
  3
A7
350
4F
  3
A8
350
50
  3
A9
350
51
  3
B0
350
52
  3
B1
350
53
  3
B2
350
54
  3
B3
350
55
  3
B4
350
56
  3
B5
350
57
  3
B6
350
58
  3
B7
350
59
  3
B8
350
5A
  3
B9
350
5B
  3
C0
350
5C
  3
C1
350
5D
  3
C2
350
5E
  3
C3
350
5F
  3
C4
350
60
  3
C5
350
61
  3
C6
350
62
  3
C7
350
63
  3
C8
350
64
  3
C9
350
65
  3
D0
350
66
  3
D1
350
67
  3
D2
350
68
  0
LAYOUT
  5
1E
102
{ACAD_REACTORS
330
1A
102
}
330
1A
100
AcDbPlotSettings
  1

  2
none_device
  4

  6

 40
0.0
 41
0.0
 42
0.0
 43
0.0
 44
0.0
 45
0.0
 46
0.0
 47
0.0
 48
0.0
 49
0.0
140
0.0
141
0.0
142
1.0
143
1.0
 70
   688
 72
     0
 73
     0
 74
     5
  7

 75
    16
147
1.0
148
0.0
149
0.0
100
AcDbLayout
  1
Layout1
 70
     1
 71
     1
 10
0.0
 20
0.0
 11
12.0
 21
9.0
 12
0.0
 22
0.0
 32
0.0
 14
1.0000000000E+20
 24
1.0000000000E+20
 34
1.0000000000E+20
 15
-1.0000000000E+20
 25
-1.0000000000E+20
 35
-1.0000000000E+20
146
0.0
 13
0.0
 23
0.0
 33
0.0
 16
1.0
 26
0.0
 36
0.0
 17
0.0
 27
1.0
 37
0.0
 76
     0
330
1B
  0
LAYOUT
  5
26
102
{ACAD_REACTORS
330
1A
102
}
330
1A
100
AcDbPlotSettings
  1

  2
none_device
  4

  6

 40
0.0
 41
0.0
 42
0.0
 43
0.0
 44
0.0
 45
0.0
 46
0.0
 47
0.0
 48
0.0
 49
0.0
140
0.0
141
0.0
142
1.0
143
1.0
 70
   688
 72
     0
 73
     0
 74
     5
  7

 75
    16
147
1.0
148
0.0
149
0.0
100
AcDbLayout
  1
Layout2
 70
     1
 71
     2
 10
0.0
 20
0.0
 11
0.0
 21
0.0
 12
0.0
 22
0.0
 32
0.0
 14
0.0
 24
0.0
 34
0.0
 15
0.0
 25
0.0
 35
0.0
146
0.0
 13
0.0
 23
0.0
 33
0.0
 16
1.0
 26
0.0
 36
0.0
 17
0.0
 27
1.0
 37
0.0
 76
     0
330
23
  0
LAYOUT
  5
22
102
{ACAD_REACTORS
330
1A
102
}
330
1A
100
AcDbPlotSettings
  1

  2
none_device
  4
Letter_(8.50_x_11.00_Inches)
  6

 40
6.35
 41
6.35
 42
6.35000508
 43
6.35000508
 44
215.9
 45
279.4
 46
0.0
 47
0.0
 48
0.0
 49
0.0
140
0.0
141
0.0
142
1.0
143
1.0
 70
  1712
 72
     0
 73
     0
 74
     0
  7

 75
     0
147
1.0
148
0.0
149
0.0
100
AcDbLayout
  1
Model
 70
     1
 71
     0
 10
0.0
 20
0.0
 11
24.0
 21
24.0
 12
0.0
 22
0.0
 32
0.0
 14
0.0
 24
0.0
 34
0.0
 15
24.0
 25
24.0
 35
0.0
146
0.0
 13
0.0
 23
0.0
 33
0.0
 16
1.0
 26
0.0
 36
0.0
 17
0.0
 27
1.0
 37
0.0
 76
     0
330
1F
331
29
  0
MLINESTYLE
  5
18
102
{ACAD_REACTORS
330
17
102
}
330
17
100
AcDbMlineStyle
  2
Standard
 70
     0
  3

 62
   256
 51
90.0
 52
90.0
 71
     2
 49
0.5
 62
   256
  6
BYLAYER
 49
-0.5
 62
   256
  6
BYLAYER
  0
ACDBPLACEHOLDER
  5
F
102
{ACAD_REACTORS
330
E
102
}
330
E
  0
SCALE
  5
48
102
{ACAD_REACTORS
330
47
102
}
330
47
100
AcDbScale
 70
     0
300
1:1
140
1.0
141
1.0
290
     1
  0
SCALE
  5
49
102
{ACAD_REACTORS
330
47
102
}
330
47
100
AcDbScale
 70
     0
300
1:2
140
1.0
141
2.0
290
     0
  0
SCALE
  5
4A
102
{ACAD_REACTORS
330
47
102
}
330
47
100
AcDbScale
 70
     0
300
1:4
140
1.0
141
4.0
290
     0
  0
SCALE
  5
4B
102
{ACAD_REACTORS
330
47
102
}
330
47
100
AcDbScale
 70
     0
300
1:5
140
1.0
141
5.0
290
     0
  0
SCALE
  5
4C
102
{ACAD_REACTORS
330
47
102
}
330
47
100
AcDbScale
 70
     0
300
1:8
140
1.0
141
8.0
290
     0
  0
SCALE
  5
4D
102
{ACAD_REACTORS
330
47
102
}
330
47
100
AcDbScale
 70
     0
300
1:10
140
1.0
141
10.0
290
     0
  0
SCALE
  5
4E
102
{ACAD_REACTORS
330
47
102
}
330
47
100
AcDbScale
 70
     0
300
1:16
140
1.0
141
16.0
290
     0
  0
SCALE
  5
4F
102
{ACAD_REACTORS
330
47
102
}
330
47
100
AcDbScale
 70
     0
300
1:20
140
1.0
141
20.0
290
     0
  0
SCALE
  5
50
102
{ACAD_REACTORS
330
47
102
}
330
47
100
AcDbScale
 70
     0
300
1:30
140
1.0
141
30.0
290
     0
  0
SCALE
  5
51
102
{ACAD_REACTORS
330
47
102
}
330
47
100
AcDbScale
 70
     0
300
1:40
140
1.0
141
40.0
290
     0
  0
SCALE
  5
52
102
{ACAD_REACTORS
330
47
102
}
330
47
100
AcDbScale
 70
     0
300
1:50
140
1.0
141
50.0
290
     0
  0
SCALE
  5
53
102
{ACAD_REACTORS
330
47
102
}
330
47
100
AcDbScale
 70
     0
300
1:100
140
1.0
141
100.0
290
     0
  0
SCALE
  5
54
102
{ACAD_REACTORS
330
47
102
}
330
47
100
AcDbScale
 70
     0
300
2:1
140
2.0
141
1.0
290
     0
  0
SCALE
  5
55
102
{ACAD_REACTORS
330
47
102
}
330
47
100
AcDbScale
 70
     0
300
4:1
140
4.0
141
1.0
290
     0
  0
SCALE
  5
56
102
{ACAD_REACTORS
330
47
102
}
330
47
100
AcDbScale
 70
     0
300
8:1
140
8.0
141
1.0
290
     0
  0
SCALE
  5
57
102
{ACAD_REACTORS
330
47
102
}
330
47
100
AcDbScale
 70
     0
300
10:1
140
10.0
141
1.0
290
     0
  0
SCALE
  5
58
102
{ACAD_REACTORS
330
47
102
}
330
47
100
AcDbScale
 70
     0
300
100:1
140
100.0
141
1.0
290
     0
  0
SCALE
  5
59
102
{ACAD_REACTORS
330
47
102
}
330
47
100
AcDbScale
 70
     0
300
1/128" = 1'-0"
140
0.0078125
141
12.0
290
     0
  0
SCALE
  5
5A
102
{ACAD_REACTORS
330
47
102
}
330
47
100
AcDbScale
 70
     0
300
1/64" = 1'-0"
140
0.015625
141
12.0
290
     0
  0
SCALE
  5
5B
102
{ACAD_REACTORS
330
47
102
}
330
47
100
AcDbScale
 70
     0
300
1/32" = 1'-0"
140
0.03125
141
12.0
290
     0
  0
SCALE
  5
5C
102
{ACAD_REACTORS
330
47
102
}
330
47
100
AcDbScale
 70
     0
300
1/16" = 1'-0"
140
0.0625
141
12.0
290
     0
  0
SCALE
  5
5D
102
{ACAD_REACTORS
330
47
102
}
330
47
100
AcDbScale
 70
     0
300
3/32" = 1'-0"
140
0.09375
141
12.0
290
     0
  0
SCALE
  5
5E
102
{ACAD_REACTORS
330
47
102
}
330
47
100
AcDbScale
 70
     0
300
1/8" = 1'-0"
140
0.125
141
12.0
290
     0
  0
SCALE
  5
5F
102
{ACAD_REACTORS
330
47
102
}
330
47
100
AcDbScale
 70
     0
300
3/16" = 1'-0"
140
0.1875
141
12.0
290
     0
  0
SCALE
  5
60
102
{ACAD_REACTORS
330
47
102
}
330
47
100
AcDbScale
 70
     0
300
1/4" = 1'-0"
140
0.25
141
12.0
290
     0
  0
SCALE
  5
61
102
{ACAD_REACTORS
330
47
102
}
330
47
100
AcDbScale
 70
     0
300
3/8" = 1'-0"
140
0.375
141
12.0
290
     0
  0
SCALE
  5
62
102
{ACAD_REACTORS
330
47
102
}
330
47
100
AcDbScale
 70
     0
300
1/2" = 1'-0"
140
0.5
141
12.0
290
     0
  0
SCALE
  5
63
102
{ACAD_REACTORS
330
47
102
}
330
47
100
AcDbScale
 70
     0
300
3/4" = 1'-0"
140
0.75
141
12.0
290
     0
  0
SCALE
  5
64
102
{ACAD_REACTORS
330
47
102
}
330
47
100
AcDbScale
 70
     0
300
1" = 1'-0"
140
1.0
141
12.0
290
     0
  0
SCALE
  5
65
102
{ACAD_REACTORS
330
47
102
}
330
47
100
AcDbScale
 70
     0
300
1-1/2" = 1'-0"
140
1.5
141
12.0
290
     0
  0
SCALE
  5
66
102
{ACAD_REACTORS
330
47
102
}
330
47
100
AcDbScale
 70
     0
300
3" = 1'-0"
140
3.0
141
12.0
290
     0
  0
SCALE
  5
67
102
{ACAD_REACTORS
330
47
102
}
330
47
100
AcDbScale
 70
     0
300
6" = 1'-0"
140
6.0
141
12.0
290
     0
  0
SCALE
  5
68
102
{ACAD_REACTORS
330
47
102
}
330
47
100
AcDbScale
 70
     0
300
1'-0" = 1'-0"
140
12.0
141
12.0
290
     0
  0
ENDSEC
  0
EOF
